<?xml version="1.0" standalone="no"?><!-- Generator: Gravit.io --><svg xmlns="http://www.w3.org/2000/svg" xmlns:xlink="http://www.w3.org/1999/xlink" style="isolation:isolate" viewBox="0 0 258 258" width="258" height="258"><defs><clipPath id="_clipPath_kLmMu7wlZSv1USuKSsxJjs0FRrEuIBLf"><rect width="258" height="258"/></clipPath></defs><g clip-path="url(#_clipPath_kLmMu7wlZSv1USuKSsxJjs0FRrEuIBLf)"><path d=" M 16.6 129 C 16.6 66.91 67.01 16.5 129.1 16.5 C 191.19 16.5 241.6 66.91 241.6 129 C 241.6 191.09 191.19 241.5 129.1 241.5 C 67.01 241.5 16.6 191.09 16.6 129 Z " fill="rgb(59,59,59)"/><path d=" M 163.604 195.789 L 134.619 180.548 C 133.865 180.166 133.059 179.88 132.22 179.721 C 131.201 179.498 130.151 179.392 129.1 179.402 C 128.049 179.392 126.999 179.498 125.98 179.721 C 125.141 179.88 124.335 180.166 123.581 180.548 L 94.596 195.789 C 93.832 196.192 93.026 196.521 92.187 196.765 C 91.349 197.02 90.489 197.147 89.608 197.158 C 88.579 197.179 87.549 196.978 86.594 196.574 C 85.586 196.139 84.694 195.481 83.994 194.643 C 83.346 193.847 82.858 192.923 82.561 191.926 C 82.296 191.013 82.168 190.058 82.179 189.103 C 82.179 188.37 82.253 187.638 82.381 186.916 L 87.921 154.62 C 87.995 154.175 88.027 153.729 88.027 153.272 C 88.016 152.445 87.931 151.606 87.762 150.789 C 87.581 149.887 87.326 149.006 86.987 148.157 C 86.679 147.34 86.286 146.554 85.819 145.801 C 85.448 145.196 85.013 144.633 84.503 144.134 L 61.069 121.295 C 60.167 120.446 59.403 119.459 58.809 118.366 C 58.172 117.219 57.832 115.925 57.8 114.608 C 57.79 113.515 58.045 112.433 58.522 111.456 C 59 110.522 59.658 109.695 60.475 109.037 C 61.229 108.432 62.067 107.954 62.969 107.614 C 63.861 107.275 64.784 107.041 65.729 106.914 L 98.12 102.202 C 98.958 102.074 99.776 101.82 100.55 101.469 C 101.506 101.045 102.418 100.514 103.267 99.888 C 104.117 99.283 104.902 98.572 105.602 97.797 C 106.186 97.171 106.674 96.471 107.056 95.717 L 121.554 66.35 C 121.894 65.639 122.308 64.971 122.775 64.334 C 123.231 63.708 123.762 63.134 124.356 62.636 C 125.672 61.5 127.359 60.863 129.1 60.842 C 130.841 60.863 132.528 61.5 133.844 62.636 C 134.438 63.134 134.969 63.708 135.425 64.334 C 135.892 64.971 136.306 65.639 136.646 66.35 L 151.144 95.717 C 151.526 96.471 152.014 97.171 152.598 97.797 C 153.298 98.572 154.083 99.283 154.933 99.888 C 155.782 100.514 156.694 101.045 157.65 101.469 C 158.424 101.82 159.242 102.074 160.08 102.202 L 192.471 106.914 C 193.416 107.041 194.339 107.275 195.231 107.614 C 196.133 107.954 196.971 108.432 197.725 109.037 C 198.542 109.695 199.2 110.522 199.678 111.456 C 200.155 112.433 200.41 113.515 200.4 114.608 C 200.368 115.925 200.028 117.219 199.391 118.366 C 198.797 119.459 198.033 120.446 197.131 121.295 L 173.697 144.134 C 173.187 144.633 172.752 145.196 172.381 145.801 C 171.914 146.554 171.521 147.34 171.213 148.157 C 170.874 149.006 170.619 149.887 170.438 150.789 C 170.269 151.606 170.184 152.445 170.173 153.272 C 170.173 153.729 170.205 154.175 170.279 154.62 L 175.819 186.916 C 175.947 187.638 176.021 188.37 176.021 189.103 C 176.032 190.058 175.904 191.013 175.639 191.926 C 175.342 192.923 174.854 193.847 174.206 194.643 C 173.506 195.481 172.614 196.139 171.606 196.574 C 170.651 196.978 169.621 197.179 168.592 197.158 C 167.711 197.147 166.851 197.02 166.013 196.765 C 165.174 196.521 164.368 196.192 163.604 195.789 Z  M 67.087 115.298 L 99.372 110.607 C 99.383 110.607 99.404 110.597 99.415 110.597 C 101.017 110.342 102.578 109.875 104.053 109.206 C 105.539 108.538 106.95 107.721 108.256 106.765 C 109.572 105.81 110.792 104.728 111.875 103.518 C 112.979 102.329 113.902 100.981 114.634 99.538 C 114.645 99.527 114.655 99.506 114.655 99.495 L 129.1 70.235 L 143.545 99.495 C 143.545 99.506 143.555 99.527 143.566 99.538 C 144.298 100.981 145.221 102.329 146.325 103.518 C 147.408 104.728 148.628 105.81 149.944 106.765 C 151.25 107.721 152.661 108.538 154.147 109.206 C 155.622 109.875 157.183 110.342 158.785 110.597 C 158.796 110.597 158.817 110.607 158.828 110.607 L 191.113 115.298 L 167.753 138.074 C 167.743 138.074 167.732 138.085 167.732 138.096 C 166.745 139.072 165.875 140.165 165.153 141.354 C 164.421 142.542 163.795 143.784 163.296 145.079 C 162.786 146.384 162.394 147.722 162.118 149.091 C 161.831 150.46 161.693 151.84 161.683 153.23 C 161.683 154.175 161.757 155.108 161.905 156.032 C 161.916 156.032 161.916 156.042 161.916 156.042 L 167.424 188.2 L 138.546 173.024 C 138.535 173.013 138.525 173.002 138.503 173.002 C 137.06 172.259 135.521 171.718 133.929 171.4 C 132.348 171.071 130.724 170.901 129.1 170.901 C 127.476 170.901 125.852 171.071 124.271 171.4 C 122.679 171.718 121.14 172.259 119.697 173.002 C 119.675 173.002 119.665 173.013 119.654 173.024 L 90.776 188.2 L 96.284 156.042 C 96.284 156.042 96.284 156.032 96.295 156.032 C 96.443 155.108 96.517 154.175 96.517 153.23 C 96.507 151.84 96.369 150.46 96.082 149.091 C 95.806 147.722 95.414 146.384 94.904 145.079 C 94.405 143.784 93.779 142.542 93.047 141.354 C 92.325 140.165 91.455 139.072 90.468 138.096 C 90.468 138.085 90.457 138.074 90.447 138.074 L 67.087 115.298 L 67.087 115.298 Z " fill-rule="evenodd" fill="rgb(254,254,254)"/></g></svg>