<?xml version="1.0" standalone="no"?><!-- Generator: Gravit.io --><svg xmlns="http://www.w3.org/2000/svg" xmlns:xlink="http://www.w3.org/1999/xlink" style="isolation:isolate" viewBox="0 0 1065.2 41.116" width="1065.2" height="41.116"><defs><clipPath id="_clipPath_yGLh7ZaejKu5kJiofBn5HhlV9eaT9Dty"><rect width="1065.2" height="41.116"/></clipPath></defs><g clip-path="url(#_clipPath_yGLh7ZaejKu5kJiofBn5HhlV9eaT9Dty)"><g><path d=" M 3.737 18.725 L 28.848 18.725 C 30.611 18.725 32.042 20.156 32.042 21.919 L 32.042 26.781 C 32.042 28.544 30.611 29.975 28.848 29.975 L 3.737 29.975 C 1.974 29.975 0.542 28.544 0.542 26.781 L 0.542 21.919 C 0.542 20.156 1.974 18.725 3.737 18.725 Z  M 51.637 19.759 L 51.637 19.759 L 51.637 19.759 Q 51.637 24.769 53.94 27.625 L 53.94 27.625 L 53.94 27.625 Q 56.243 30.481 60.743 30.481 L 60.743 30.481 L 60.743 30.481 Q 65.243 30.481 67.519 27.634 L 67.519 27.634 L 67.519 27.634 Q 69.795 24.786 69.795 19.759 L 69.795 19.759 L 69.795 19.759 Q 69.795 14.626 67.501 11.796 L 67.501 11.796 L 67.501 11.796 Q 65.207 8.966 60.76 8.966 L 60.76 8.966 L 60.76 8.966 Q 56.313 8.966 53.975 11.796 L 53.975 11.796 L 53.975 11.796 Q 51.637 14.626 51.637 19.759 Z  M 73.047 19.759 L 73.047 19.759 L 73.047 19.759 Q 73.047 22.729 72.23 25.19 L 72.23 25.19 L 72.23 25.19 Q 71.413 27.651 69.874 29.418 L 69.874 29.418 L 69.874 29.418 Q 68.336 31.185 65.998 32.16 L 65.998 32.16 L 65.998 32.16 Q 63.661 33.136 60.743 33.136 L 60.743 33.136 L 60.743 33.136 Q 56.805 33.136 54.001 31.457 L 54.001 31.457 L 54.001 31.457 Q 51.198 29.778 49.8 26.781 L 49.8 26.781 L 49.8 26.781 Q 48.403 23.784 48.403 19.741 L 48.403 19.741 L 48.403 19.741 Q 48.403 13.501 51.655 9.897 L 51.655 9.897 L 51.655 9.897 Q 54.907 6.294 60.76 6.294 L 60.76 6.294 L 60.76 6.294 Q 66.526 6.294 69.787 9.924 L 69.787 9.924 L 69.787 9.924 Q 73.047 13.554 73.047 19.759 Z  M 80.465 40.923 L 77.53 41.116 L 77.53 13.466 L 80.114 13.466 L 80.395 16.085 L 80.395 16.085 Q 82.926 13.062 86.477 13.062 L 86.477 13.062 L 86.477 13.062 Q 89.114 13.062 90.942 14.38 L 90.942 14.38 L 90.942 14.38 Q 92.77 15.698 93.64 17.948 L 93.64 17.948 L 93.64 17.948 Q 94.51 20.198 94.51 23.204 L 94.51 23.204 L 94.51 23.204 Q 94.51 26.087 93.561 28.328 L 93.561 28.328 L 93.561 28.328 Q 92.612 30.569 90.775 31.861 L 90.775 31.861 L 90.775 31.861 Q 88.938 33.153 86.477 33.153 L 86.477 33.153 L 86.477 33.153 Q 84.614 33.153 82.979 32.318 L 82.979 32.318 L 82.979 32.318 Q 81.344 31.483 80.36 30.112 L 80.36 30.112 L 80.36 30.112 Q 80.465 32.011 80.465 33.804 L 80.465 33.804 L 80.465 40.923 L 80.465 40.923 L 80.465 40.923 L 80.465 40.923 L 80.465 40.923 Z  M 86.073 30.675 L 86.073 30.675 L 86.073 30.675 Q 87.409 30.675 88.463 30.068 L 88.463 30.068 L 88.463 30.068 Q 89.518 29.462 90.168 28.407 L 90.168 28.407 L 90.168 28.407 Q 90.819 27.353 91.153 26.008 L 91.153 26.008 L 91.153 26.008 Q 91.487 24.663 91.487 23.099 L 91.487 23.099 L 91.487 23.099 Q 91.487 19.794 90.098 17.676 L 90.098 17.676 L 90.098 17.676 Q 88.709 15.558 86.038 15.558 L 86.038 15.558 L 86.038 15.558 Q 80.448 15.558 80.448 22.782 L 80.448 22.782 L 80.448 22.782 Q 80.448 26.702 81.757 28.688 L 81.757 28.688 L 81.757 28.688 Q 83.067 30.675 86.073 30.675 Z  M 104.793 33.101 L 104.793 33.101 L 104.793 33.101 Q 101.946 33.101 100.75 31.712 L 100.75 31.712 L 100.75 31.712 Q 99.555 30.323 99.485 27.229 L 99.485 27.229 L 99.485 15.645 L 96.62 15.645 L 96.743 13.712 L 99.467 13.466 L 100.469 9.054 L 102.403 8.983 L 102.403 13.466 L 107.764 13.466 L 107.764 15.645 L 102.403 15.645 L 102.403 26.702 L 102.403 26.702 Q 102.403 28.899 103.071 29.796 L 103.071 29.796 L 103.071 29.796 Q 103.739 30.692 105.356 30.692 L 105.356 30.692 L 105.356 30.692 Q 105.936 30.692 107.87 30.411 L 107.87 30.411 L 107.993 32.731 L 107.993 32.731 Q 105.901 33.101 104.793 33.101 Z  M 111.631 13.466 L 114.584 13.466 L 114.584 32.749 L 111.631 32.749 L 111.631 13.466 L 111.631 13.466 L 111.631 13.466 L 111.631 13.466 L 111.631 13.466 Z  M 111.631 6.452 L 114.584 6.452 L 114.584 9.933 L 111.631 9.933 L 111.631 6.452 L 111.631 6.452 L 111.631 6.452 L 111.631 6.452 L 111.631 6.452 Z  M 122.248 23.151 L 122.248 23.151 L 122.248 23.151 Q 122.248 26.579 123.769 28.645 L 123.769 28.645 L 123.769 28.645 Q 125.289 30.71 128.207 30.71 L 128.207 30.71 L 128.207 30.71 Q 131.09 30.71 132.558 28.653 L 132.558 28.653 L 132.558 28.653 Q 134.026 26.597 134.026 23.116 L 134.026 23.116 L 134.026 23.116 Q 134.026 19.583 132.576 17.553 L 132.576 17.553 L 132.576 17.553 Q 131.125 15.522 128.155 15.522 L 128.155 15.522 L 128.155 15.522 Q 125.272 15.522 123.76 17.597 L 123.76 17.597 L 123.76 17.597 Q 122.248 19.671 122.248 23.151 Z  M 137.067 23.099 L 137.067 23.099 L 137.067 23.099 Q 137.067 27.581 134.676 30.367 L 134.676 30.367 L 134.676 30.367 Q 132.286 33.153 128.067 33.153 L 128.067 33.153 L 128.067 33.153 Q 124.006 33.153 121.607 30.341 L 121.607 30.341 L 121.607 30.341 Q 119.207 27.528 119.207 23.116 L 119.207 23.116 L 119.207 23.116 Q 119.207 18.616 121.616 15.839 L 121.616 15.839 L 121.616 15.839 Q 124.024 13.062 128.225 13.062 L 128.225 13.062 L 128.225 13.062 Q 132.356 13.062 134.711 15.848 L 134.711 15.848 L 134.711 15.848 Q 137.067 18.634 137.067 23.099 Z  M 144.186 32.749 L 141.215 32.749 L 141.215 13.466 L 143.676 13.466 L 144.045 16.226 L 144.045 16.226 Q 145.188 14.802 146.902 13.932 L 146.902 13.932 L 146.902 13.932 Q 148.616 13.062 150.602 13.062 L 150.602 13.062 L 150.602 13.062 Q 153.942 13.062 155.541 14.934 L 155.541 14.934 L 155.541 14.934 Q 157.141 16.806 157.141 20.69 L 157.141 20.69 L 157.141 32.749 L 154.205 32.749 L 154.205 32.749 Q 154.205 21.147 154.188 20.321 L 154.188 20.321 L 154.188 20.321 Q 154.118 17.86 153.195 16.718 L 153.195 16.718 L 153.195 16.718 Q 152.272 15.575 150.11 15.575 L 150.11 15.575 L 150.11 15.575 Q 147.842 15.575 146.33 16.665 L 146.33 16.665 L 146.33 16.665 Q 144.819 17.755 144.362 19.495 L 144.362 19.495 L 144.362 19.495 Q 144.186 20.673 144.186 22.202 L 144.186 22.202 L 144.186 32.749 L 144.186 32.749 L 144.186 32.749 L 144.186 32.749 L 144.186 32.749 Z  M 167.776 33.153 L 167.776 33.153 L 167.776 33.153 Q 165.807 33.153 164.146 32.731 L 164.146 32.731 L 164.146 32.731 Q 162.485 32.31 161.448 31.642 L 161.448 31.642 L 161.817 29.163 L 161.817 29.163 Q 164.752 30.728 167.582 30.728 L 167.582 30.728 L 167.582 30.728 Q 171.872 30.728 171.995 27.704 L 171.995 27.704 L 171.995 27.704 Q 171.995 26.421 171.08 25.683 L 171.08 25.683 L 171.08 25.683 Q 170.166 24.944 167.495 24.03 L 167.495 24.03 L 166.036 23.52 L 166.036 23.52 Q 163.504 22.677 162.423 21.429 L 162.423 21.429 L 162.423 21.429 Q 161.342 20.181 161.325 18.317 L 161.325 18.317 L 161.325 18.317 Q 161.325 16.05 163.144 14.556 L 163.144 14.556 L 163.144 14.556 Q 164.963 13.062 168.127 13.062 L 168.127 13.062 L 168.127 13.062 Q 171.397 13.062 174.086 14.327 L 174.086 14.327 L 173.225 16.577 L 173.225 16.577 Q 170.5 15.452 168.127 15.452 L 168.127 15.452 L 168.127 15.452 Q 166.282 15.452 165.236 16.182 L 165.236 16.182 L 165.236 16.182 Q 164.19 16.911 164.19 18.229 L 164.19 18.229 L 164.19 18.229 Q 164.19 19.354 164.946 19.952 L 164.946 19.952 L 164.946 19.952 Q 165.702 20.55 167.969 21.323 L 167.969 21.323 L 167.969 21.323 Q 168.549 21.534 169.428 21.815 L 169.428 21.815 L 169.428 21.815 Q 172.346 22.765 173.559 24.057 L 173.559 24.057 L 173.559 24.057 Q 174.772 25.349 174.772 27.546 L 174.772 27.546 L 174.772 27.546 Q 174.737 30.218 172.856 31.686 L 172.856 31.686 L 172.856 31.686 Q 170.975 33.153 167.776 33.153 Z  M 0 14.024 L 0.305 13.18 L 0.305 13.18 Q 1.659 13.848 3.205 13.848 L 3.205 13.848 L 3.205 13.848 Q 5.11 13.848 5.11 12.114 L 5.11 12.114 L 5.11 12.114 Q 5.11 11.551 4.808 11.203 L 4.808 11.203 L 4.808 11.203 Q 4.506 10.854 3.709 10.655 L 3.709 10.655 L 1.987 10.221 L 1.987 10.221 Q 0.012 9.723 0.012 8.112 L 0.012 8.112 L 0.012 8.112 Q 0.012 6.875 0.862 6.275 L 0.862 6.275 L 0.862 6.275 Q 1.711 5.674 3.211 5.674 L 3.211 5.674 L 3.211 5.674 Q 3.997 5.674 4.682 5.844 L 4.682 5.844 L 4.682 5.844 Q 5.368 6.014 5.83 6.301 L 5.83 6.301 L 5.538 7.127 L 5.538 7.127 Q 5.145 6.911 4.497 6.741 L 4.497 6.741 L 4.497 6.741 Q 3.85 6.571 3.188 6.571 L 3.188 6.571 L 3.188 6.571 Q 1.067 6.571 1.067 8.041 L 1.067 8.041 L 1.067 8.041 Q 1.067 8.539 1.392 8.841 L 1.392 8.841 L 1.392 8.841 Q 1.717 9.143 2.368 9.301 L 2.368 9.301 L 4.014 9.7 L 4.014 9.7 Q 5.069 9.952 5.614 10.505 L 5.614 10.505 L 5.614 10.505 Q 6.159 11.059 6.159 12.079 L 6.159 12.079 L 6.159 12.079 Q 6.159 13.403 5.347 14.074 L 5.347 14.074 L 5.347 14.074 Q 4.536 14.745 3.141 14.745 L 3.141 14.745 L 3.141 14.745 Q 2.098 14.745 1.287 14.531 L 1.287 14.531 L 1.287 14.531 Q 0.475 14.317 0 14.024 L 0 14.024 L 0 14.024 L 0 14.024 L 0 14.024 L 0 14.024 Z  M 11.183 9.369 L 11.183 9.369 L 11.183 9.369 Q 10.752 8.856 10.002 8.856 L 10.002 8.856 L 10.002 8.856 Q 9.252 8.856 8.778 9.386 L 8.778 9.386 L 8.778 9.386 Q 8.303 9.916 8.221 10.836 L 8.221 10.836 L 11.614 10.836 L 11.614 10.836 Q 11.614 9.881 11.183 9.369 Z  M 10.196 14.745 L 10.196 14.745 L 10.196 14.745 Q 8.795 14.745 7.99 13.854 L 7.99 13.854 L 7.99 13.854 Q 7.184 12.963 7.184 11.416 L 7.184 11.416 L 7.184 11.416 Q 7.184 9.922 7.963 8.994 L 7.963 8.994 L 7.963 8.994 Q 8.743 8.065 10.014 8.047 L 10.014 8.047 L 10.014 8.047 Q 11.209 8.047 11.91 8.865 L 11.91 8.865 L 11.91 8.865 Q 12.61 9.682 12.61 11.047 L 12.61 11.047 L 12.61 11.047 Q 12.61 11.118 12.607 11.305 L 12.607 11.305 L 12.607 11.305 Q 12.604 11.493 12.604 11.575 L 12.604 11.575 L 8.192 11.575 L 8.192 11.575 Q 8.209 12.67 8.757 13.283 L 8.757 13.283 L 8.757 13.283 Q 9.305 13.895 10.231 13.895 L 10.231 13.895 L 10.231 13.895 Q 11.25 13.895 12.276 13.356 L 12.276 13.356 L 12.428 14.147 L 12.428 14.147 Q 11.45 14.745 10.196 14.745 Z  M 15.698 14.727 L 15.698 14.727 L 15.698 14.727 Q 14.76 14.727 14.371 14.223 L 14.371 14.223 L 14.371 14.223 Q 13.981 13.719 13.981 12.471 L 13.981 12.471 L 13.981 5.686 L 14.954 5.627 L 14.954 12.084 L 14.954 12.084 Q 14.954 12.483 14.962 12.723 L 14.962 12.723 L 14.962 12.723 Q 14.971 12.963 15.006 13.195 L 15.006 13.195 L 15.006 13.195 Q 15.041 13.426 15.1 13.543 L 15.1 13.543 L 15.1 13.543 Q 15.159 13.661 15.27 13.757 L 15.27 13.757 L 15.27 13.757 Q 15.381 13.854 15.537 13.886 L 15.537 13.886 L 15.537 13.886 Q 15.692 13.918 15.92 13.918 L 15.92 13.918 L 15.92 13.918 Q 16.108 13.918 16.659 13.848 L 16.659 13.848 L 16.711 14.627 L 16.711 14.627 Q 16.108 14.727 15.698 14.727 Z  M 21.009 9.369 L 21.009 9.369 L 21.009 9.369 Q 20.579 8.856 19.829 8.856 L 19.829 8.856 L 19.829 8.856 Q 19.079 8.856 18.604 9.386 L 18.604 9.386 L 18.604 9.386 Q 18.129 9.916 18.047 10.836 L 18.047 10.836 L 21.44 10.836 L 21.44 10.836 Q 21.44 9.881 21.009 9.369 Z  M 20.022 14.745 L 20.022 14.745 L 20.022 14.745 Q 18.622 14.745 17.816 13.854 L 17.816 13.854 L 17.816 13.854 Q 17.01 12.963 17.01 11.416 L 17.01 11.416 L 17.01 11.416 Q 17.01 9.922 17.789 8.994 L 17.789 8.994 L 17.789 8.994 Q 18.569 8.065 19.84 8.047 L 19.84 8.047 L 19.84 8.047 Q 21.036 8.047 21.736 8.865 L 21.736 8.865 L 21.736 8.865 Q 22.436 9.682 22.436 11.047 L 22.436 11.047 L 22.436 11.047 Q 22.436 11.118 22.433 11.305 L 22.433 11.305 L 22.433 11.305 Q 22.43 11.493 22.43 11.575 L 22.43 11.575 L 18.018 11.575 L 18.018 11.575 Q 18.036 12.67 18.583 13.283 L 18.583 13.283 L 18.583 13.283 Q 19.131 13.895 20.057 13.895 L 20.057 13.895 L 20.057 13.895 Q 21.077 13.895 22.102 13.356 L 22.102 13.356 L 22.254 14.147 L 22.254 14.147 Q 21.276 14.745 20.022 14.745 Z  M 26.514 14.745 L 26.514 14.745 L 26.514 14.745 Q 25.096 14.745 24.296 13.825 L 24.296 13.825 L 24.296 13.825 Q 23.497 12.905 23.497 11.416 L 23.497 11.416 L 23.497 11.416 Q 23.502 9.916 24.314 8.982 L 24.314 8.982 L 24.314 8.982 Q 25.125 8.047 26.538 8.047 L 26.538 8.047 L 26.538 8.047 Q 27.036 8.047 27.501 8.17 L 27.501 8.17 L 27.501 8.17 Q 27.967 8.293 28.237 8.493 L 28.237 8.493 L 27.967 9.254 L 27.967 9.254 Q 27.282 8.885 26.52 8.885 L 26.52 8.885 L 26.52 8.885 Q 25.588 8.885 25.046 9.565 L 25.046 9.565 L 25.046 9.565 Q 24.504 10.245 24.504 11.422 L 24.504 11.422 L 24.504 11.422 Q 24.504 12.571 25.04 13.242 L 25.04 13.242 L 25.04 13.242 Q 25.577 13.913 26.526 13.913 L 26.526 13.913 L 26.526 13.913 Q 27.282 13.913 28.073 13.502 L 28.073 13.502 L 28.196 14.282 L 28.196 14.282 Q 27.557 14.745 26.514 14.745 Z  M 31.518 14.727 L 31.518 14.727 L 31.518 14.727 Q 30.569 14.727 30.17 14.264 L 30.17 14.264 L 30.17 14.264 Q 29.772 13.801 29.748 12.77 L 29.748 12.77 L 29.748 8.909 L 28.793 8.909 L 28.834 8.264 L 29.743 8.182 L 30.077 6.711 L 30.721 6.688 L 30.721 8.182 L 32.508 8.182 L 32.508 8.909 L 30.721 8.909 L 30.721 12.594 L 30.721 12.594 Q 30.721 13.327 30.944 13.625 L 30.944 13.625 L 30.944 13.625 Q 31.166 13.924 31.705 13.924 L 31.705 13.924 L 31.705 13.924 Q 31.899 13.924 32.543 13.83 L 32.543 13.83 L 32.584 14.604 L 32.584 14.604 Q 31.887 14.727 31.518 14.727 Z " fill-rule="evenodd" fill="rgb(255,255,255)"/><path d=" M 291.374 30.692 L 288.403 30.692 L 280.423 12.13 L 279.755 10.354 L 279.878 16.718 L 279.878 32.292 L 277.03 32.292 L 277.03 6.294 L 280.968 6.294 L 290.021 27.001 L 298.986 6.294 L 302.818 6.294 L 302.818 32.292 L 299.864 32.292 L 299.864 16.647 L 299.987 10.425 L 299.337 12.2 L 291.374 30.692 L 291.374 30.692 L 291.374 30.692 L 291.374 30.692 L 291.374 30.692 Z  M 319.526 16.568 L 319.526 16.568 L 319.526 16.568 Q 318.234 15.03 315.984 15.03 L 315.984 15.03 L 315.984 15.03 Q 313.734 15.03 312.31 16.621 L 312.31 16.621 L 312.31 16.621 Q 310.886 18.212 310.64 20.972 L 310.64 20.972 L 320.818 20.972 L 320.818 20.972 Q 320.818 18.106 319.526 16.568 Z  M 316.564 32.696 L 316.564 32.696 L 316.564 32.696 Q 312.362 32.696 309.945 30.024 L 309.945 30.024 L 309.945 30.024 Q 307.528 27.353 307.528 22.712 L 307.528 22.712 L 307.528 22.712 Q 307.528 18.229 309.866 15.443 L 309.866 15.443 L 309.866 15.443 Q 312.204 12.657 316.019 12.604 L 316.019 12.604 L 316.019 12.604 Q 319.605 12.604 321.705 15.057 L 321.705 15.057 L 321.705 15.057 Q 323.806 17.509 323.806 21.604 L 323.806 21.604 L 323.806 21.604 Q 323.806 21.815 323.797 22.378 L 323.797 22.378 L 323.797 22.378 Q 323.788 22.94 323.788 23.187 L 323.788 23.187 L 310.552 23.187 L 310.552 23.187 Q 310.605 26.474 312.248 28.311 L 312.248 28.311 L 312.248 28.311 Q 313.892 30.147 316.669 30.147 L 316.669 30.147 L 316.669 30.147 Q 319.728 30.147 322.804 28.53 L 322.804 28.53 L 323.261 30.903 L 323.261 30.903 Q 320.325 32.696 316.564 32.696 Z  M 330.855 32.292 L 327.884 32.292 L 327.884 13.009 L 330.345 13.009 L 330.714 15.769 L 330.714 15.769 Q 331.857 14.345 333.57 13.475 L 333.57 13.475 L 333.57 13.475 Q 335.284 12.604 337.271 12.604 L 337.271 12.604 L 337.271 12.604 Q 340.611 12.604 342.21 14.477 L 342.21 14.477 L 342.21 14.477 Q 343.81 16.349 343.81 20.233 L 343.81 20.233 L 343.81 32.292 L 340.874 32.292 L 340.874 32.292 Q 340.874 20.69 340.857 19.864 L 340.857 19.864 L 340.857 19.864 Q 340.786 17.403 339.863 16.261 L 339.863 16.261 L 339.863 16.261 Q 338.941 15.118 336.778 15.118 L 336.778 15.118 L 336.778 15.118 Q 334.511 15.118 332.999 16.208 L 332.999 16.208 L 332.999 16.208 Q 331.487 17.298 331.03 19.038 L 331.03 19.038 L 331.03 19.038 Q 330.855 20.216 330.855 21.745 L 330.855 21.745 L 330.855 32.292 L 330.855 32.292 L 330.855 32.292 L 330.855 32.292 L 330.855 32.292 Z  M 348.028 25.858 L 348.028 25.858 L 348.028 13.009 L 350.982 13.009 L 350.982 25.894 L 350.982 25.894 Q 350.982 27.159 351.342 28.038 L 351.342 28.038 L 351.342 28.038 Q 351.702 28.917 352.379 29.4 L 352.379 29.4 L 352.379 29.4 Q 353.056 29.884 353.908 30.095 L 353.908 30.095 L 353.908 30.095 Q 354.761 30.306 355.868 30.306 L 355.868 30.306 L 355.868 30.306 Q 358.153 30.306 359.428 29.304 L 359.428 29.304 L 359.428 29.304 Q 360.702 28.302 360.702 25.894 L 360.702 25.894 L 360.702 13.009 L 363.655 13.009 L 363.655 25.858 L 363.655 25.858 Q 363.655 27.335 363.234 28.513 L 363.234 28.513 L 363.234 28.513 Q 362.812 29.69 362.1 30.473 L 362.1 30.473 L 362.1 30.473 Q 361.388 31.255 360.386 31.765 L 360.386 31.765 L 360.386 31.765 Q 359.384 32.274 358.268 32.503 L 358.268 32.503 L 358.268 32.503 Q 357.152 32.731 355.868 32.731 L 355.868 32.731 L 355.868 32.731 Q 354.603 32.731 353.478 32.503 L 353.478 32.503 L 353.478 32.503 Q 352.353 32.274 351.342 31.756 L 351.342 31.756 L 351.342 31.756 Q 350.331 31.237 349.602 30.455 L 349.602 30.455 L 349.602 30.455 Q 348.872 29.673 348.45 28.495 L 348.45 28.495 L 348.45 28.495 Q 348.028 27.317 348.028 25.858 Z  M 232.618 14.899 L 232.922 14.055 L 232.922 14.055 Q 234.276 14.723 235.823 14.723 L 235.823 14.723 L 235.823 14.723 Q 237.727 14.723 237.727 12.989 L 237.727 12.989 L 237.727 12.989 Q 237.727 12.426 237.425 12.078 L 237.425 12.078 L 237.425 12.078 Q 237.124 11.729 236.327 11.53 L 236.327 11.53 L 234.604 11.096 L 234.604 11.096 Q 232.63 10.598 232.63 8.987 L 232.63 8.987 L 232.63 8.987 Q 232.63 7.75 233.479 7.15 L 233.479 7.15 L 233.479 7.15 Q 234.329 6.549 235.829 6.549 L 235.829 6.549 L 235.829 6.549 Q 236.614 6.549 237.299 6.719 L 237.299 6.719 L 237.299 6.719 Q 237.985 6.889 238.448 7.176 L 238.448 7.176 L 238.155 8.002 L 238.155 8.002 Q 237.762 7.786 237.115 7.616 L 237.115 7.616 L 237.115 7.616 Q 236.467 7.446 235.805 7.446 L 235.805 7.446 L 235.805 7.446 Q 233.684 7.446 233.684 8.916 L 233.684 8.916 L 233.684 8.916 Q 233.684 9.414 234.009 9.716 L 234.009 9.716 L 234.009 9.716 Q 234.335 10.018 234.985 10.176 L 234.985 10.176 L 236.631 10.575 L 236.631 10.575 Q 237.686 10.827 238.231 11.38 L 238.231 11.38 L 238.231 11.38 Q 238.776 11.934 238.776 12.954 L 238.776 12.954 L 238.776 12.954 Q 238.776 14.278 237.964 14.949 L 237.964 14.949 L 237.964 14.949 Q 237.153 15.62 235.758 15.62 L 235.758 15.62 L 235.758 15.62 Q 234.715 15.62 233.904 15.406 L 233.904 15.406 L 233.904 15.406 Q 233.092 15.192 232.618 14.899 L 232.618 14.899 L 232.618 14.899 L 232.618 14.899 L 232.618 14.899 L 232.618 14.899 Z  M 242.145 15.602 L 242.145 15.602 L 242.145 15.602 Q 241.196 15.602 240.797 15.139 L 240.797 15.139 L 240.797 15.139 Q 240.399 14.676 240.376 13.645 L 240.376 13.645 L 240.376 9.784 L 239.421 9.784 L 239.462 9.139 L 240.37 9.057 L 240.704 7.586 L 241.348 7.563 L 241.348 9.057 L 243.135 9.057 L 243.135 9.784 L 241.348 9.784 L 241.348 13.469 L 241.348 13.469 Q 241.348 14.202 241.571 14.5 L 241.571 14.5 L 241.571 14.5 Q 241.794 14.799 242.333 14.799 L 242.333 14.799 L 242.333 14.799 Q 242.526 14.799 243.171 14.705 L 243.171 14.705 L 243.212 15.479 L 243.212 15.479 Q 242.514 15.602 242.145 15.602 Z  M 246.112 14.829 L 246.112 14.829 L 246.112 14.829 Q 246.809 14.829 247.339 14.445 L 247.339 14.445 L 247.339 14.445 Q 247.87 14.061 248.022 13.411 L 248.022 13.411 L 248.022 12.327 L 248.022 12.327 Q 247.993 12.327 247.668 12.356 L 247.668 12.356 L 247.668 12.356 Q 247.342 12.385 247.243 12.391 L 247.243 12.391 L 247.243 12.391 Q 245.971 12.502 245.47 12.807 L 245.47 12.807 L 245.47 12.807 Q 244.969 13.112 244.969 13.786 L 244.969 13.786 L 244.969 13.786 Q 244.969 14.301 245.274 14.565 L 245.274 14.565 L 245.274 14.565 Q 245.579 14.829 246.112 14.829 Z  M 249.001 15.485 L 248.239 15.485 L 248.239 15.485 Q 248.151 15.11 248.069 14.676 L 248.069 14.676 L 248.069 14.676 Q 247.536 15.209 247.067 15.414 L 247.067 15.414 L 247.067 15.414 Q 246.598 15.62 245.965 15.62 L 245.965 15.62 L 245.965 15.62 Q 245.063 15.62 244.515 15.148 L 244.515 15.148 L 244.515 15.148 Q 243.967 14.676 243.967 13.791 L 243.967 13.791 L 243.967 13.791 Q 243.967 12.807 244.714 12.332 L 244.714 12.332 L 244.714 12.332 Q 245.462 11.858 246.868 11.741 L 246.868 11.741 L 246.868 11.741 Q 247.061 11.723 247.451 11.691 L 247.451 11.691 L 247.451 11.691 Q 247.84 11.659 248.034 11.641 L 248.034 11.641 L 248.034 11.073 L 248.034 11.073 Q 248.034 10.393 247.717 10.065 L 247.717 10.065 L 247.717 10.065 Q 247.401 9.737 246.721 9.737 L 246.721 9.737 L 246.721 9.737 Q 245.772 9.737 244.805 10.205 L 244.805 10.205 L 244.805 10.205 Q 244.776 10.135 244.653 9.798 L 244.653 9.798 L 244.653 9.798 Q 244.53 9.461 244.524 9.45 L 244.524 9.45 L 244.524 9.45 Q 244.952 9.209 245.541 9.066 L 245.541 9.066 L 245.541 9.066 Q 246.13 8.922 246.739 8.922 L 246.739 8.922 L 246.739 8.922 Q 247.94 8.922 248.47 9.447 L 248.47 9.447 L 248.47 9.447 Q 249.001 9.971 249.001 11.231 L 249.001 11.231 L 249.001 15.485 L 249.001 15.485 L 249.001 15.485 L 249.001 15.485 L 249.001 15.485 Z  M 253.571 8.998 L 253.571 8.998 L 253.571 8.998 Q 253.835 8.998 254.051 9.034 L 254.051 9.034 L 254.016 9.936 L 254.016 9.936 Q 253.747 9.889 253.547 9.889 L 253.547 9.889 L 253.547 9.889 Q 252.727 9.889 252.214 10.46 L 252.214 10.46 L 252.214 10.46 Q 251.702 11.032 251.702 11.875 L 251.702 11.875 L 251.702 15.485 L 250.723 15.485 L 250.723 15.485 Q 250.717 9.567 250.717 9.057 L 250.717 9.057 L 251.532 9.057 L 251.626 10.211 L 251.626 10.211 Q 251.96 9.666 252.475 9.332 L 252.475 9.332 L 252.475 9.332 Q 252.991 8.998 253.571 8.998 Z  M 257.11 15.602 L 257.11 15.602 L 257.11 15.602 Q 256.161 15.602 255.762 15.139 L 255.762 15.139 L 255.762 15.139 Q 255.364 14.676 255.34 13.645 L 255.34 13.645 L 255.34 9.784 L 254.385 9.784 L 254.426 9.139 L 255.335 9.057 L 255.669 7.586 L 256.313 7.563 L 256.313 9.057 L 258.1 9.057 L 258.1 9.784 L 256.313 9.784 L 256.313 13.469 L 256.313 13.469 Q 256.313 14.202 256.536 14.5 L 256.536 14.5 L 256.536 14.5 Q 256.758 14.799 257.297 14.799 L 257.297 14.799 L 257.297 14.799 Q 257.491 14.799 258.135 14.705 L 258.135 14.705 L 258.176 15.479 L 258.176 15.479 Q 257.479 15.602 257.11 15.602 Z  M 234.288 31.6 L 234.288 25.6 L 234.288 19.6 L 245.397 22.6 L 256.506 25.6 L 245.397 28.6 L 234.288 31.6 L 234.288 31.6 L 234.288 31.6 L 234.288 31.6 L 234.288 31.6 Z " fill-rule="evenodd" fill="rgb(255,255,255)"/><path d=" M 908.5 19.7 C 908.5 8.827 917.327 0 928.2 0 C 939.073 0 947.9 8.827 947.9 19.7 C 947.9 30.573 939.073 39.4 928.2 39.4 C 917.327 39.4 908.5 30.573 908.5 19.7 Z  M 917.894 10.708 L 920.265 8.337 L 939.803 27.875 L 937.433 30.247 L 917.894 10.708 Z  M 937.626 8.143 L 939.998 10.514 L 931.22 19.292 L 928.849 16.921 L 937.626 8.143 Z  M 926.494 19.309 L 928.864 21.68 L 919.932 30.612 L 917.561 28.241 L 926.494 19.309 Z  M 967.109 31.489 L 968.023 28.958 L 968.023 28.958 Q 972.084 30.962 976.724 30.962 L 976.724 30.962 L 976.724 30.962 Q 982.437 30.962 982.437 25.759 L 982.437 25.759 L 982.437 25.759 Q 982.437 24.071 981.532 23.026 L 981.532 23.026 L 981.532 23.026 Q 980.627 21.98 978.236 21.382 L 978.236 21.382 L 973.068 20.081 L 973.068 20.081 Q 967.144 18.587 967.144 13.753 L 967.144 13.753 L 967.144 13.753 Q 967.144 10.044 969.693 8.242 L 969.693 8.242 L 969.693 8.242 Q 972.242 6.441 976.742 6.441 L 976.742 6.441 L 976.742 6.441 Q 979.097 6.441 981.154 6.95 L 981.154 6.95 L 981.154 6.95 Q 983.211 7.46 984.599 8.321 L 984.599 8.321 L 983.72 10.8 L 983.72 10.8 Q 982.543 10.15 980.6 9.64 L 980.6 9.64 L 980.6 9.64 Q 978.658 9.13 976.671 9.13 L 976.671 9.13 L 976.671 9.13 Q 970.308 9.13 970.308 13.542 L 970.308 13.542 L 970.308 13.542 Q 970.308 15.036 971.284 15.942 L 971.284 15.942 L 971.284 15.942 Q 972.259 16.847 974.211 17.321 L 974.211 17.321 L 979.15 18.517 L 979.15 18.517 Q 982.314 19.273 983.949 20.934 L 983.949 20.934 L 983.949 20.934 Q 985.584 22.595 985.584 25.654 L 985.584 25.654 L 985.584 25.654 Q 985.584 29.626 983.149 31.639 L 983.149 31.639 L 983.149 31.639 Q 980.714 33.652 976.531 33.652 L 976.531 33.652 L 976.531 33.652 Q 973.402 33.652 970.967 33.01 L 970.967 33.01 L 970.967 33.01 Q 968.533 32.368 967.109 31.489 L 967.109 31.489 L 967.109 31.489 L 967.109 31.489 Z  M 1000.657 17.524 L 1000.657 17.524 L 1000.657 17.524 Q 999.365 15.986 997.115 15.986 L 997.115 15.986 L 997.115 15.986 Q 994.865 15.986 993.441 17.576 L 993.441 17.576 L 993.441 17.576 Q 992.017 19.167 991.771 21.927 L 991.771 21.927 L 1001.949 21.927 L 1001.949 21.927 Q 1001.949 19.062 1000.657 17.524 Z  M 997.695 33.652 L 997.695 33.652 L 997.695 33.652 Q 993.494 33.652 991.077 30.98 L 991.077 30.98 L 991.077 30.98 Q 988.66 28.308 988.66 23.667 L 988.66 23.667 L 988.66 23.667 Q 988.66 19.185 990.998 16.399 L 990.998 16.399 L 990.998 16.399 Q 993.336 13.613 997.15 13.56 L 997.15 13.56 L 997.15 13.56 Q 1000.736 13.56 1002.837 16.012 L 1002.837 16.012 L 1002.837 16.012 Q 1004.937 18.464 1004.937 22.56 L 1004.937 22.56 L 1004.937 22.56 Q 1004.937 22.771 1004.928 23.333 L 1004.928 23.333 L 1004.928 23.333 Q 1004.92 23.896 1004.92 24.142 L 1004.92 24.142 L 991.683 24.142 L 991.683 24.142 Q 991.736 27.429 993.379 29.266 L 993.379 29.266 L 993.379 29.266 Q 995.023 31.103 997.8 31.103 L 997.8 31.103 L 997.8 31.103 Q 1000.859 31.103 1003.935 29.486 L 1003.935 29.486 L 1004.392 31.859 L 1004.392 31.859 Q 1001.457 33.652 997.695 33.652 Z  M 1014.201 33.599 L 1014.201 33.599 L 1014.201 33.599 Q 1011.388 33.599 1010.219 32.087 L 1010.219 32.087 L 1010.219 32.087 Q 1009.05 30.575 1009.05 26.831 L 1009.05 26.831 L 1009.05 6.476 L 1011.968 6.3 L 1011.968 25.671 L 1011.968 25.671 Q 1011.968 26.866 1011.995 27.587 L 1011.995 27.587 L 1011.995 27.587 Q 1012.021 28.308 1012.127 29.002 L 1012.127 29.002 L 1012.127 29.002 Q 1012.232 29.696 1012.408 30.048 L 1012.408 30.048 L 1012.408 30.048 Q 1012.584 30.4 1012.918 30.69 L 1012.918 30.69 L 1012.918 30.69 Q 1013.252 30.98 1013.717 31.076 L 1013.717 31.076 L 1013.717 31.076 Q 1014.183 31.173 1014.869 31.173 L 1014.869 31.173 L 1014.869 31.173 Q 1015.431 31.173 1017.084 30.962 L 1017.084 30.962 L 1017.242 33.3 L 1017.242 33.3 Q 1015.431 33.599 1014.201 33.599 Z  M 1030.135 17.524 L 1030.135 17.524 L 1030.135 17.524 Q 1028.843 15.986 1026.593 15.986 L 1026.593 15.986 L 1026.593 15.986 Q 1024.343 15.986 1022.92 17.576 L 1022.92 17.576 L 1022.92 17.576 Q 1021.496 19.167 1021.25 21.927 L 1021.25 21.927 L 1031.427 21.927 L 1031.427 21.927 Q 1031.427 19.062 1030.135 17.524 Z  M 1027.173 33.652 L 1027.173 33.652 L 1027.173 33.652 Q 1022.972 33.652 1020.555 30.98 L 1020.555 30.98 L 1020.555 30.98 Q 1018.138 28.308 1018.138 23.667 L 1018.138 23.667 L 1018.138 23.667 Q 1018.138 19.185 1020.476 16.399 L 1020.476 16.399 L 1020.476 16.399 Q 1022.814 13.613 1026.629 13.56 L 1026.629 13.56 L 1026.629 13.56 Q 1030.214 13.56 1032.315 16.012 L 1032.315 16.012 L 1032.315 16.012 Q 1034.416 18.464 1034.416 22.56 L 1034.416 22.56 L 1034.416 22.56 Q 1034.416 22.771 1034.407 23.333 L 1034.407 23.333 L 1034.407 23.333 Q 1034.398 23.896 1034.398 24.142 L 1034.398 24.142 L 1021.162 24.142 L 1021.162 24.142 Q 1021.214 27.429 1022.858 29.266 L 1022.858 29.266 L 1022.858 29.266 Q 1024.502 31.103 1027.279 31.103 L 1027.279 31.103 L 1027.279 31.103 Q 1030.337 31.103 1033.414 29.486 L 1033.414 29.486 L 1033.871 31.859 L 1033.871 31.859 Q 1030.935 33.652 1027.173 33.652 Z  M 1046.65 33.652 L 1046.65 33.652 L 1046.65 33.652 Q 1042.396 33.652 1039.997 30.892 L 1039.997 30.892 L 1039.997 30.892 Q 1037.597 28.132 1037.597 23.667 L 1037.597 23.667 L 1037.597 23.667 Q 1037.615 19.167 1040.049 16.363 L 1040.049 16.363 L 1040.049 16.363 Q 1042.484 13.56 1046.72 13.56 L 1046.72 13.56 L 1046.72 13.56 Q 1048.214 13.56 1049.612 13.929 L 1049.612 13.929 L 1049.612 13.929 Q 1051.009 14.298 1051.818 14.896 L 1051.818 14.896 L 1051.009 17.181 L 1051.009 17.181 Q 1048.953 16.073 1046.668 16.073 L 1046.668 16.073 L 1046.668 16.073 Q 1043.873 16.073 1042.247 18.113 L 1042.247 18.113 L 1042.247 18.113 Q 1040.621 20.152 1040.621 23.685 L 1040.621 23.685 L 1040.621 23.685 Q 1040.621 27.13 1042.229 29.143 L 1042.229 29.143 L 1042.229 29.143 Q 1043.837 31.155 1046.685 31.155 L 1046.685 31.155 L 1046.685 31.155 Q 1048.953 31.155 1051.326 29.925 L 1051.326 29.925 L 1051.695 32.263 L 1051.695 32.263 Q 1049.779 33.652 1046.65 33.652 Z  M 1061.662 33.599 L 1061.662 33.599 L 1061.662 33.599 Q 1058.814 33.599 1057.619 32.21 L 1057.619 32.21 L 1057.619 32.21 Q 1056.423 30.821 1056.353 27.728 L 1056.353 27.728 L 1056.353 16.144 L 1053.488 16.144 L 1053.611 14.21 L 1056.336 13.964 L 1057.337 9.552 L 1059.271 9.482 L 1059.271 13.964 L 1064.632 13.964 L 1064.632 16.144 L 1059.271 16.144 L 1059.271 27.2 L 1059.271 27.2 Q 1059.271 29.398 1059.939 30.294 L 1059.939 30.294 L 1059.939 30.294 Q 1060.607 31.191 1062.224 31.191 L 1062.224 31.191 L 1062.224 31.191 Q 1062.804 31.191 1064.738 30.909 L 1064.738 30.909 L 1064.861 33.23 L 1064.861 33.23 Q 1062.769 33.599 1061.662 33.599 Z " fill-rule="evenodd" fill="rgb(255,255,255)"/><path d=" M 729.343 9.675 L 722.382 9.675 L 722.382 18.464 L 722.382 18.464 Q 723.103 18.464 725.362 18.499 L 725.362 18.499 L 725.362 18.499 Q 727.62 18.534 728.851 18.534 L 728.851 18.534 L 728.851 18.534 Q 732.208 18.534 733.527 17.418 L 733.527 17.418 L 733.527 17.418 Q 734.845 16.302 734.845 13.876 L 734.845 13.876 L 734.845 13.876 Q 734.845 11.749 733.579 10.712 L 733.579 10.712 L 733.579 10.712 Q 732.314 9.675 729.343 9.675 L 729.343 9.675 L 729.343 9.675 L 729.343 9.675 L 729.343 9.675 Z  M 734.792 24.071 L 739.046 33.247 L 735.531 33.247 L 731.945 25.091 L 731.945 25.091 Q 730.486 21.804 730.081 21.136 L 730.081 21.136 L 730.081 21.136 Q 728.798 21.224 727.04 21.224 L 727.04 21.224 L 722.382 21.083 L 722.382 33.247 L 719.271 33.247 L 719.271 6.95 L 727.585 6.95 L 727.585 6.95 Q 729.027 6.95 730.134 7.021 L 730.134 7.021 L 730.134 7.021 Q 731.242 7.091 732.34 7.276 L 732.34 7.276 L 732.34 7.276 Q 733.439 7.46 734.247 7.785 L 734.247 7.785 L 734.247 7.785 Q 735.056 8.111 735.759 8.629 L 735.759 8.629 L 735.759 8.629 Q 736.462 9.148 736.893 9.868 L 736.893 9.868 L 736.893 9.868 Q 737.324 10.589 737.57 11.582 L 737.57 11.582 L 737.57 11.582 Q 737.816 12.575 737.816 13.823 L 737.816 13.823 L 737.816 13.823 Q 737.816 16.284 736.524 18.06 L 736.524 18.06 L 736.524 18.06 Q 735.232 19.835 732.859 20.521 L 732.859 20.521 L 732.859 20.521 Q 732.859 20.556 733.21 21.154 L 733.21 21.154 L 733.21 21.154 Q 733.562 21.751 734.045 22.621 L 734.045 22.621 L 734.045 22.621 Q 734.529 23.491 734.792 24.071 L 734.792 24.071 L 734.792 24.071 L 734.792 24.071 L 734.792 24.071 Z  M 748.31 31.279 L 748.31 31.279 L 748.31 31.279 Q 750.402 31.279 751.993 30.127 L 751.993 30.127 L 751.993 30.127 Q 753.583 28.976 754.04 27.025 L 754.04 27.025 L 754.04 23.773 L 754.04 23.773 Q 753.953 23.773 752.977 23.861 L 752.977 23.861 L 752.977 23.861 Q 752.001 23.948 751.703 23.966 L 751.703 23.966 L 751.703 23.966 Q 747.888 24.3 746.385 25.214 L 746.385 25.214 L 746.385 25.214 Q 744.882 26.128 744.882 28.15 L 744.882 28.15 L 744.882 28.15 Q 744.882 29.696 745.796 30.488 L 745.796 30.488 L 745.796 30.488 Q 746.71 31.279 748.31 31.279 Z  M 756.976 33.247 L 754.691 33.247 L 754.691 33.247 Q 754.427 32.122 754.181 30.821 L 754.181 30.821 L 754.181 30.821 Q 752.581 32.421 751.175 33.036 L 751.175 33.036 L 751.175 33.036 Q 749.769 33.652 747.87 33.652 L 747.87 33.652 L 747.87 33.652 Q 745.163 33.652 743.52 32.237 L 743.52 32.237 L 743.52 32.237 Q 741.876 30.821 741.876 28.167 L 741.876 28.167 L 741.876 28.167 Q 741.876 25.214 744.118 23.79 L 744.118 23.79 L 744.118 23.79 Q 746.359 22.366 750.578 22.015 L 750.578 22.015 L 750.578 22.015 Q 751.158 21.962 752.327 21.865 L 752.327 21.865 L 752.327 21.865 Q 753.495 21.769 754.076 21.716 L 754.076 21.716 L 754.076 20.011 L 754.076 20.011 Q 754.076 17.972 753.126 16.988 L 753.126 16.988 L 753.126 16.988 Q 752.177 16.003 750.138 16.003 L 750.138 16.003 L 750.138 16.003 Q 747.29 16.003 744.39 17.409 L 744.39 17.409 L 744.39 17.409 Q 744.302 17.198 743.933 16.188 L 743.933 16.188 L 743.933 16.188 Q 743.564 15.177 743.546 15.142 L 743.546 15.142 L 743.546 15.142 Q 744.829 14.421 746.596 13.99 L 746.596 13.99 L 746.596 13.99 Q 748.363 13.56 750.191 13.56 L 750.191 13.56 L 750.191 13.56 Q 753.794 13.56 755.385 15.133 L 755.385 15.133 L 755.385 15.133 Q 756.976 16.706 756.976 20.486 L 756.976 20.486 L 756.976 33.247 L 756.976 33.247 L 756.976 33.247 L 756.976 33.247 Z  M 765.009 33.247 L 762.038 33.247 L 762.038 13.964 L 764.499 13.964 L 764.869 16.724 L 764.869 16.724 Q 766.011 15.3 767.725 14.43 L 767.725 14.43 L 767.725 14.43 Q 769.439 13.56 771.425 13.56 L 771.425 13.56 L 771.425 13.56 Q 774.765 13.56 776.365 15.432 L 776.365 15.432 L 776.365 15.432 Q 777.964 17.304 777.964 21.189 L 777.964 21.189 L 777.964 33.247 L 775.029 33.247 L 775.029 33.247 Q 775.029 21.646 775.011 20.82 L 775.011 20.82 L 775.011 20.82 Q 774.941 18.359 774.018 17.216 L 774.018 17.216 L 774.018 17.216 Q 773.095 16.073 770.933 16.073 L 770.933 16.073 L 770.933 16.073 Q 768.665 16.073 767.154 17.163 L 767.154 17.163 L 767.154 17.163 Q 765.642 18.253 765.185 19.993 L 765.185 19.993 L 765.185 19.993 Q 765.009 21.171 765.009 22.7 L 765.009 22.7 L 765.009 33.247 L 765.009 33.247 L 765.009 33.247 L 765.009 33.247 Z  M 790.374 31.12 L 790.374 31.12 L 790.374 31.12 Q 793.275 31.12 794.69 29.257 L 794.69 29.257 L 794.69 29.257 Q 796.105 27.394 796.105 23.931 L 796.105 23.931 L 796.105 23.931 Q 796.105 20.029 794.743 18.051 L 794.743 18.051 L 794.743 18.051 Q 793.38 16.073 790.339 16.073 L 790.339 16.073 L 790.339 16.073 Q 788.986 16.073 787.949 16.654 L 787.949 16.654 L 787.949 16.654 Q 786.912 17.234 786.279 18.271 L 786.279 18.271 L 786.279 18.271 Q 785.646 19.308 785.321 20.653 L 785.321 20.653 L 785.321 20.653 Q 784.995 21.997 784.995 23.597 L 784.995 23.597 L 784.995 23.597 Q 784.995 25.847 785.549 27.499 L 785.549 27.499 L 785.549 27.499 Q 786.103 29.152 787.333 30.136 L 787.333 30.136 L 787.333 30.136 Q 788.564 31.12 790.374 31.12 Z  M 796.544 33.247 L 796.158 30.452 L 796.158 30.452 Q 795.208 31.911 793.626 32.773 L 793.626 32.773 L 793.626 32.773 Q 792.044 33.634 790.093 33.634 L 790.093 33.634 L 790.093 33.634 Q 786.279 33.634 784.117 30.918 L 784.117 30.918 L 784.117 30.918 Q 781.954 28.202 781.954 23.527 L 781.954 23.527 L 781.954 23.527 Q 781.954 19.062 784.152 16.311 L 784.152 16.311 L 784.152 16.311 Q 786.349 13.56 790.04 13.56 L 790.04 13.56 L 790.04 13.56 Q 791.956 13.56 793.653 14.395 L 793.653 14.395 L 793.653 14.395 Q 795.349 15.23 796.193 16.636 L 796.193 16.636 L 796.14 14.966 L 796.14 6.476 L 799.04 6.3 L 799.04 33.247 L 796.544 33.247 L 796.544 33.247 L 796.544 33.247 L 796.544 33.247 Z  M 806.283 23.65 L 806.283 23.65 L 806.283 23.65 Q 806.283 27.077 807.803 29.143 L 807.803 29.143 L 807.803 29.143 Q 809.324 31.208 812.242 31.208 L 812.242 31.208 L 812.242 31.208 Q 815.124 31.208 816.592 29.152 L 816.592 29.152 L 816.592 29.152 Q 818.06 27.095 818.06 23.614 L 818.06 23.614 L 818.06 23.614 Q 818.06 20.081 816.61 18.051 L 816.61 18.051 L 816.61 18.051 Q 815.16 16.021 812.189 16.021 L 812.189 16.021 L 812.189 16.021 Q 809.306 16.021 807.794 18.095 L 807.794 18.095 L 807.794 18.095 Q 806.283 20.169 806.283 23.65 Z  M 821.101 23.597 L 821.101 23.597 L 821.101 23.597 Q 821.101 28.079 818.71 30.865 L 818.71 30.865 L 818.71 30.865 Q 816.32 33.652 812.101 33.652 L 812.101 33.652 L 812.101 33.652 Q 808.04 33.652 805.641 30.839 L 805.641 30.839 L 805.641 30.839 Q 803.242 28.027 803.242 23.614 L 803.242 23.614 L 803.242 23.614 Q 803.242 19.114 805.65 16.337 L 805.65 16.337 L 805.65 16.337 Q 808.058 13.56 812.259 13.56 L 812.259 13.56 L 812.259 13.56 Q 816.39 13.56 818.745 16.346 L 818.745 16.346 L 818.745 16.346 Q 821.101 19.132 821.101 23.597 Z  M 852.671 33.247 L 849.736 33.247 L 849.736 23.21 L 849.736 23.21 Q 849.736 21.804 849.674 20.855 L 849.674 20.855 L 849.674 20.855 Q 849.613 19.905 849.393 18.921 L 849.393 18.921 L 849.393 18.921 Q 849.173 17.937 848.778 17.365 L 848.778 17.365 L 848.778 17.365 Q 848.382 16.794 847.679 16.434 L 847.679 16.434 L 847.679 16.434 Q 846.976 16.073 845.992 16.073 L 845.992 16.073 L 845.992 16.073 Q 844.058 16.073 842.696 17.111 L 842.696 17.111 L 842.696 17.111 Q 841.333 18.148 840.753 20.029 L 840.753 20.029 L 840.753 20.029 Q 840.595 21.294 840.595 22.736 L 840.595 22.736 L 840.595 33.247 L 837.66 33.247 L 837.66 22.894 L 837.66 22.894 Q 837.66 21.593 837.572 20.635 L 837.572 20.635 L 837.572 20.635 Q 837.484 19.677 837.238 18.772 L 837.238 18.772 L 837.238 18.772 Q 836.992 17.866 836.578 17.304 L 836.578 17.304 L 836.578 17.304 Q 836.165 16.741 835.48 16.407 L 835.48 16.407 L 835.48 16.407 Q 834.794 16.073 833.845 16.073 L 833.845 16.073 L 833.845 16.073 Q 831.736 16.073 830.303 17.146 L 830.303 17.146 L 830.303 17.146 Q 828.87 18.218 828.378 19.993 L 828.378 19.993 L 828.378 19.993 Q 828.22 21.347 828.22 22.929 L 828.22 22.929 L 828.22 33.247 L 825.285 33.247 L 825.285 33.247 Q 825.249 15.159 825.249 13.964 L 825.249 13.964 L 827.71 13.964 L 828.079 16.724 L 828.079 16.724 Q 828.958 15.388 830.576 14.474 L 830.576 14.474 L 830.576 14.474 Q 832.193 13.56 834.249 13.56 L 834.249 13.56 L 834.249 13.56 Q 835.322 13.56 836.227 13.779 L 836.227 13.779 L 836.227 13.779 Q 837.132 13.999 837.739 14.333 L 837.739 14.333 L 837.739 14.333 Q 838.345 14.667 838.82 15.133 L 838.82 15.133 L 838.82 15.133 Q 839.294 15.599 839.558 16.047 L 839.558 16.047 L 839.558 16.047 Q 839.822 16.495 839.997 16.988 L 839.997 16.988 L 839.997 16.988 Q 842.107 13.56 846.449 13.56 L 846.449 13.56 L 846.449 13.56 Q 849.665 13.56 851.168 15.397 L 851.168 15.397 L 851.168 15.397 Q 852.671 17.234 852.671 20.837 L 852.671 20.837 L 852.671 33.247 L 852.671 33.247 L 852.671 33.247 L 852.671 33.247 Z  M 660.009 19.7 C 660.009 8.827 668.836 0 679.709 0 C 690.582 0 699.409 8.827 699.409 19.7 C 699.409 30.573 690.582 39.4 679.709 39.4 C 668.836 39.4 660.009 30.573 660.009 19.7 Z  M 692.846 29.255 L 679.986 29.255 L 667.131 29.255 L 673.561 18.123 L 679.986 6.986 L 686.416 18.123 L 692.846 29.255 L 692.846 29.255 L 692.846 29.255 L 692.846 29.255 Z  M 687.041 25.902 L 679.986 25.902 L 672.936 25.902 L 676.461 19.799 L 679.986 13.692 L 683.516 19.799 L 687.041 25.902 L 687.041 25.902 L 687.041 25.902 L 687.041 25.902 Z " fill-rule="evenodd" fill="rgb(255,255,255)"/><path d=" M 481.344 20.989 L 481.344 32.591 L 478.303 32.591 L 478.303 6.593 L 492.734 6.593 L 492.611 9.282 L 481.344 9.282 L 481.344 18.405 L 492.084 18.405 L 492.084 20.989 L 481.344 20.989 L 481.344 20.989 L 481.344 20.989 L 481.344 20.989 Z  M 501.629 30.622 L 501.629 30.622 L 501.629 30.622 Q 503.721 30.622 505.312 29.471 L 505.312 29.471 L 505.312 29.471 Q 506.902 28.319 507.359 26.368 L 507.359 26.368 L 507.359 23.116 L 507.359 23.116 Q 507.272 23.116 506.296 23.204 L 506.296 23.204 L 506.296 23.204 Q 505.32 23.292 505.022 23.31 L 505.022 23.31 L 505.022 23.31 Q 501.207 23.644 499.704 24.558 L 499.704 24.558 L 499.704 24.558 Q 498.201 25.472 498.201 27.493 L 498.201 27.493 L 498.201 27.493 Q 498.201 29.04 499.115 29.831 L 499.115 29.831 L 499.115 29.831 Q 500.029 30.622 501.629 30.622 Z  M 510.295 32.591 L 508.01 32.591 L 508.01 32.591 Q 507.746 31.466 507.5 30.165 L 507.5 30.165 L 507.5 30.165 Q 505.9 31.765 504.494 32.38 L 504.494 32.38 L 504.494 32.38 Q 503.088 32.995 501.19 32.995 L 501.19 32.995 L 501.19 32.995 Q 498.483 32.995 496.839 31.58 L 496.839 31.58 L 496.839 31.58 Q 495.195 30.165 495.195 27.511 L 495.195 27.511 L 495.195 27.511 Q 495.195 24.558 497.437 23.134 L 497.437 23.134 L 497.437 23.134 Q 499.678 21.71 503.897 21.358 L 503.897 21.358 L 503.897 21.358 Q 504.477 21.306 505.646 21.209 L 505.646 21.209 L 505.646 21.209 Q 506.815 21.112 507.395 21.06 L 507.395 21.06 L 507.395 19.354 L 507.395 19.354 Q 507.395 17.315 506.445 16.331 L 506.445 16.331 L 506.445 16.331 Q 505.496 15.347 503.457 15.347 L 503.457 15.347 L 503.457 15.347 Q 500.609 15.347 497.709 16.753 L 497.709 16.753 L 497.709 16.753 Q 497.621 16.542 497.252 15.531 L 497.252 15.531 L 497.252 15.531 Q 496.883 14.52 496.865 14.485 L 496.865 14.485 L 496.865 14.485 Q 498.149 13.765 499.915 13.334 L 499.915 13.334 L 499.915 13.334 Q 501.682 12.903 503.51 12.903 L 503.51 12.903 L 503.51 12.903 Q 507.113 12.903 508.704 14.477 L 508.704 14.477 L 508.704 14.477 Q 510.295 16.05 510.295 19.829 L 510.295 19.829 L 510.295 32.591 L 510.295 32.591 L 510.295 32.591 L 510.295 32.591 Z  M 523.496 32.591 L 520.297 32.591 L 512.826 13.308 L 515.973 13.308 L 520.227 24.769 L 520.227 24.769 Q 520.227 24.769 521.984 29.655 L 521.984 29.655 L 521.984 29.655 Q 522.582 27.774 523.637 24.804 L 523.637 24.804 L 523.637 24.804 Q 524.973 21.06 527.785 13.308 L 527.785 13.308 L 530.914 13.308 L 523.496 32.591 L 523.496 32.591 L 523.496 32.591 L 523.496 32.591 Z  M 535.625 22.993 L 535.625 22.993 L 535.625 22.993 Q 535.625 26.421 537.146 28.486 L 537.146 28.486 L 537.146 28.486 Q 538.666 30.552 541.584 30.552 L 541.584 30.552 L 541.584 30.552 Q 544.467 30.552 545.935 28.495 L 545.935 28.495 L 545.935 28.495 Q 547.402 26.438 547.402 22.958 L 547.402 22.958 L 547.402 22.958 Q 547.402 19.425 545.952 17.395 L 545.952 17.395 L 545.952 17.395 Q 544.502 15.364 541.531 15.364 L 541.531 15.364 L 541.531 15.364 Q 538.649 15.364 537.137 17.438 L 537.137 17.438 L 537.137 17.438 Q 535.625 19.513 535.625 22.993 Z  M 550.443 22.94 L 550.443 22.94 L 550.443 22.94 Q 550.443 27.423 548.053 30.209 L 548.053 30.209 L 548.053 30.209 Q 545.662 32.995 541.443 32.995 L 541.443 32.995 L 541.443 32.995 Q 537.383 32.995 534.983 30.183 L 534.983 30.183 L 534.983 30.183 Q 532.584 27.37 532.584 22.958 L 532.584 22.958 L 532.584 22.958 Q 532.584 18.458 534.992 15.681 L 534.992 15.681 L 534.992 15.681 Q 537.4 12.903 541.602 12.903 L 541.602 12.903 L 541.602 12.903 Q 545.733 12.903 548.088 15.689 L 548.088 15.689 L 548.088 15.689 Q 550.443 18.476 550.443 22.94 Z  M 563.24 13.132 L 563.24 13.132 L 563.24 13.132 Q 564.031 13.132 564.682 13.237 L 564.682 13.237 L 564.576 15.944 L 564.576 15.944 Q 563.768 15.804 563.17 15.804 L 563.17 15.804 L 563.17 15.804 Q 560.709 15.804 559.171 17.518 L 559.171 17.518 L 559.171 17.518 Q 557.633 19.231 557.633 21.763 L 557.633 21.763 L 557.633 32.591 L 554.697 32.591 L 554.697 32.591 Q 554.68 14.837 554.68 13.308 L 554.68 13.308 L 557.123 13.308 L 557.404 16.77 L 557.404 16.77 Q 558.406 15.136 559.953 14.134 L 559.953 14.134 L 559.953 14.134 Q 561.5 13.132 563.24 13.132 Z  M 568.215 13.308 L 571.168 13.308 L 571.168 32.591 L 568.215 32.591 L 568.215 13.308 L 568.215 13.308 L 568.215 13.308 L 568.215 13.308 Z  M 568.215 6.294 L 571.168 6.294 L 571.168 9.774 L 568.215 9.774 L 568.215 6.294 L 568.215 6.294 L 568.215 6.294 L 568.215 6.294 Z  M 582.84 32.942 L 582.84 32.942 L 582.84 32.942 Q 579.992 32.942 578.797 31.554 L 578.797 31.554 L 578.797 31.554 Q 577.602 30.165 577.531 27.071 L 577.531 27.071 L 577.531 15.487 L 574.666 15.487 L 574.789 13.554 L 577.514 13.308 L 578.516 8.895 L 580.449 8.825 L 580.449 13.308 L 585.811 13.308 L 585.811 15.487 L 580.449 15.487 L 580.449 26.544 L 580.449 26.544 Q 580.449 28.741 581.117 29.638 L 581.117 29.638 L 581.117 29.638 Q 581.785 30.534 583.402 30.534 L 583.402 30.534 L 583.402 30.534 Q 583.983 30.534 585.916 30.253 L 585.916 30.253 L 586.039 32.573 L 586.039 32.573 Q 583.947 32.942 582.84 32.942 Z  M 600.286 16.867 L 600.286 16.867 L 600.286 16.867 Q 598.994 15.329 596.744 15.329 L 596.744 15.329 L 596.744 15.329 Q 594.494 15.329 593.07 16.92 L 593.07 16.92 L 593.07 16.92 Q 591.647 18.511 591.4 21.27 L 591.4 21.27 L 601.578 21.27 L 601.578 21.27 Q 601.578 18.405 600.286 16.867 Z  M 597.324 32.995 L 597.324 32.995 L 597.324 32.995 Q 593.123 32.995 590.706 30.323 L 590.706 30.323 L 590.706 30.323 Q 588.289 27.651 588.289 23.011 L 588.289 23.011 L 588.289 23.011 Q 588.289 18.528 590.627 15.742 L 590.627 15.742 L 590.627 15.742 Q 592.965 12.956 596.779 12.903 L 596.779 12.903 L 596.779 12.903 Q 600.365 12.903 602.466 15.355 L 602.466 15.355 L 602.466 15.355 Q 604.566 17.808 604.566 21.903 L 604.566 21.903 L 604.566 21.903 Q 604.566 22.114 604.558 22.677 L 604.558 22.677 L 604.558 22.677 Q 604.549 23.239 604.549 23.485 L 604.549 23.485 L 591.313 23.485 L 591.313 23.485 Q 591.365 26.772 593.009 28.609 L 593.009 28.609 L 593.009 28.609 Q 594.652 30.446 597.43 30.446 L 597.43 30.446 L 597.43 30.446 Q 600.488 30.446 603.565 28.829 L 603.565 28.829 L 604.022 31.202 L 604.022 31.202 Q 601.086 32.995 597.324 32.995 Z  M 419.109 19.7 C 419.109 8.827 427.936 0 438.809 0 C 449.682 0 458.509 8.827 458.509 19.7 C 458.509 30.573 449.682 39.4 438.809 39.4 C 427.936 39.4 419.109 30.573 419.109 19.7 Z  M 427.462 8.353 L 450.16 8.353 L 450.16 31.051 L 427.462 31.051 L 427.462 8.353 L 427.462 8.353 L 427.462 8.353 L 427.462 8.353 Z  M 430.84 11.731 L 446.782 11.731 L 446.782 27.673 L 430.84 27.673 L 430.84 11.731 L 430.84 11.731 L 430.84 11.731 L 430.84 11.731 Z " fill-rule="evenodd" fill="rgb(255,255,255)"/></g></g></svg>