<?xml version="1.0" standalone="no"?><!-- Generator: Gravit.io --><svg xmlns="http://www.w3.org/2000/svg" xmlns:xlink="http://www.w3.org/1999/xlink" style="isolation:isolate" viewBox="0 0 1065.2 41.1" width="1065.2" height="41.1"><defs><clipPath id="_clipPath_3JSLH25FGE9aJdYcDRQcWGM0VszaUBh9"><rect width="1065.2" height="41.1"/></clipPath></defs><g clip-path="url(#_clipPath_3JSLH25FGE9aJdYcDRQcWGM0VszaUBh9)"><g><path d=" M 908.221 19.7 C 908.221 8.827 917.049 0 927.921 0 C 938.794 0 947.621 8.827 947.621 19.7 C 947.621 30.573 938.794 39.4 927.921 39.4 C 917.049 39.4 908.221 30.573 908.221 19.7 Z  M 917.616 10.709 L 919.987 8.337 L 939.525 27.875 L 937.154 30.247 L 917.616 10.709 L 917.616 10.709 Z  M 937.348 8.143 L 939.719 10.514 L 930.942 19.292 L 928.57 16.921 L 937.348 8.143 L 937.348 8.143 Z  M 926.215 19.309 L 928.586 21.68 L 919.653 30.613 L 917.282 28.242 L 926.215 19.309 L 926.215 19.309 Z " fill-rule="evenodd" fill="rgb(255,255,255)"/><path d=" M 191.736 20.624 L 216.847 20.624 C 218.61 20.624 220.042 22.056 220.042 23.819 L 220.042 28.68 C 220.042 30.443 218.61 31.874 216.847 31.874 L 191.736 31.874 C 189.973 31.874 188.542 30.443 188.542 28.68 L 188.542 23.819 C 188.542 22.056 189.973 20.624 191.736 20.624 Z  M 188 15.923 L 188.304 15.079 L 188.304 15.079 Q 189.658 15.747 191.205 15.747 L 191.205 15.747 L 191.205 15.747 Q 193.109 15.747 193.109 14.013 L 193.109 14.013 L 193.109 14.013 Q 193.109 13.449 192.807 13.102 L 192.807 13.102 L 192.807 13.102 Q 192.506 12.753 191.709 12.554 L 191.709 12.554 L 189.986 12.119 L 189.986 12.119 Q 188.011 11.622 188.011 10.01 L 188.011 10.01 L 188.011 10.01 Q 188.011 8.775 188.861 8.174 L 188.861 8.174 L 188.861 8.174 Q 189.711 7.573 191.211 7.573 L 191.211 7.573 L 191.211 7.573 Q 191.996 7.573 192.681 7.743 L 192.681 7.743 L 192.681 7.743 Q 193.367 7.913 193.83 8.2 L 193.83 8.2 L 193.537 9.026 L 193.537 9.026 Q 193.144 8.81 192.497 8.639 L 192.497 8.639 L 192.497 8.639 Q 191.849 8.47 191.187 8.47 L 191.187 8.47 L 191.187 8.47 Q 189.066 8.47 189.066 9.941 L 189.066 9.941 L 189.066 9.941 Q 189.066 10.439 189.391 10.74 L 189.391 10.74 L 189.391 10.74 Q 189.717 11.042 190.367 11.199 L 190.367 11.199 L 192.013 11.599 L 192.013 11.599 Q 193.068 11.851 193.613 12.404 L 193.613 12.404 L 193.613 12.404 Q 194.158 12.958 194.158 13.978 L 194.158 13.978 L 194.158 13.978 Q 194.158 15.301 193.346 15.973 L 193.346 15.973 L 193.346 15.973 Q 192.535 16.644 191.14 16.644 L 191.14 16.644 L 191.14 16.644 Q 190.097 16.644 189.286 16.429 L 189.286 16.429 L 189.286 16.429 Q 188.474 16.215 188 15.923 L 188 15.923 L 188 15.923 L 188 15.923 Z  M 199.182 11.268 L 199.182 11.268 L 199.182 11.268 Q 198.752 10.755 198.002 10.755 L 198.002 10.755 L 198.002 10.755 Q 197.252 10.755 196.777 11.285 L 196.777 11.285 L 196.777 11.285 Q 196.302 11.816 196.22 12.736 L 196.22 12.736 L 199.613 12.736 L 199.613 12.736 Q 199.613 11.779 199.182 11.268 Z  M 198.195 16.644 L 198.195 16.644 L 198.195 16.644 Q 196.795 16.644 195.989 15.753 L 195.989 15.753 L 195.989 15.753 Q 195.183 14.862 195.183 13.316 L 195.183 13.316 L 195.183 13.316 Q 195.183 11.821 195.963 10.893 L 195.963 10.893 L 195.963 10.893 Q 196.742 9.964 198.013 9.946 L 198.013 9.946 L 198.013 9.946 Q 199.209 9.946 199.909 10.763 L 199.909 10.763 L 199.909 10.763 Q 200.609 11.58 200.609 12.946 L 200.609 12.946 L 200.609 12.946 Q 200.609 13.016 200.606 13.204 L 200.606 13.204 L 200.606 13.204 Q 200.603 13.391 200.603 13.474 L 200.603 13.474 L 196.191 13.474 L 196.191 13.474 Q 196.209 14.57 196.757 15.182 L 196.757 15.182 L 196.757 15.182 Q 197.304 15.794 198.23 15.794 L 198.23 15.794 L 198.23 15.794 Q 199.25 15.794 200.275 15.255 L 200.275 15.255 L 200.427 16.045 L 200.427 16.045 Q 199.449 16.644 198.195 16.644 Z  M 203.697 16.626 L 203.697 16.626 L 203.697 16.626 Q 202.76 16.626 202.37 16.121 L 202.37 16.121 L 202.37 16.121 Q 201.98 15.618 201.98 14.369 L 201.98 14.369 L 201.98 7.584 L 202.953 7.526 L 202.953 13.984 L 202.953 13.984 Q 202.953 14.381 202.962 14.622 L 202.962 14.622 L 202.962 14.622 Q 202.97 14.862 203.006 15.093 L 203.006 15.093 L 203.006 15.093 Q 203.041 15.324 203.099 15.442 L 203.099 15.442 L 203.099 15.442 Q 203.158 15.56 203.269 15.656 L 203.269 15.656 L 203.269 15.656 Q 203.381 15.753 203.536 15.785 L 203.536 15.785 L 203.536 15.785 Q 203.691 15.817 203.92 15.817 L 203.92 15.817 L 203.92 15.817 Q 204.107 15.817 204.658 15.747 L 204.658 15.747 L 204.711 16.527 L 204.711 16.527 Q 204.107 16.626 203.697 16.626 Z  M 209.009 11.268 L 209.009 11.268 L 209.009 11.268 Q 208.578 10.755 207.828 10.755 L 207.828 10.755 L 207.828 10.755 Q 207.078 10.755 206.603 11.285 L 206.603 11.285 L 206.603 11.285 Q 206.129 11.816 206.047 12.736 L 206.047 12.736 L 209.439 12.736 L 209.439 12.736 Q 209.439 11.779 209.009 11.268 Z  M 208.021 16.644 L 208.021 16.644 L 208.021 16.644 Q 206.621 16.644 205.815 15.753 L 205.815 15.753 L 205.815 15.753 Q 205.01 14.862 205.01 13.316 L 205.01 13.316 L 205.01 13.316 Q 205.01 11.821 205.789 10.893 L 205.789 10.893 L 205.789 10.893 Q 206.568 9.964 207.84 9.946 L 207.84 9.946 L 207.84 9.946 Q 209.035 9.946 209.735 10.763 L 209.735 10.763 L 209.735 10.763 Q 210.435 11.58 210.435 12.946 L 210.435 12.946 L 210.435 12.946 Q 210.435 13.016 210.432 13.204 L 210.432 13.204 L 210.432 13.204 Q 210.429 13.391 210.429 13.474 L 210.429 13.474 L 206.017 13.474 L 206.017 13.474 Q 206.035 14.57 206.583 15.182 L 206.583 15.182 L 206.583 15.182 Q 207.131 15.794 208.056 15.794 L 208.056 15.794 L 208.056 15.794 Q 209.076 15.794 210.101 15.255 L 210.101 15.255 L 210.254 16.045 L 210.254 16.045 Q 209.275 16.644 208.021 16.644 Z  M 214.513 16.644 L 214.513 16.644 L 214.513 16.644 Q 213.095 16.644 212.296 15.724 L 212.296 15.724 L 212.296 15.724 Q 211.496 14.804 211.496 13.316 L 211.496 13.316 L 211.496 13.316 Q 211.502 11.816 212.313 10.881 L 212.313 10.881 L 212.313 10.881 Q 213.125 9.946 214.537 9.946 L 214.537 9.946 L 214.537 9.946 Q 215.035 9.946 215.501 10.07 L 215.501 10.07 L 215.501 10.07 Q 215.967 10.192 216.236 10.391 L 216.236 10.391 L 215.967 11.153 L 215.967 11.153 Q 215.281 10.784 214.519 10.784 L 214.519 10.784 L 214.519 10.784 Q 213.588 10.784 213.046 11.464 L 213.046 11.464 L 213.046 11.464 Q 212.504 12.144 212.504 13.321 L 212.504 13.321 L 212.504 13.321 Q 212.504 14.47 213.04 15.141 L 213.04 15.141 L 213.04 15.141 Q 213.576 15.811 214.525 15.811 L 214.525 15.811 L 214.525 15.811 Q 215.281 15.811 216.072 15.401 L 216.072 15.401 L 216.195 16.181 L 216.195 16.181 Q 215.556 16.644 214.513 16.644 Z  M 219.517 16.626 L 219.517 16.626 L 219.517 16.626 Q 218.568 16.626 218.17 16.163 L 218.17 16.163 L 218.17 16.163 Q 217.771 15.699 217.748 14.669 L 217.748 14.669 L 217.748 10.808 L 216.793 10.808 L 216.834 10.163 L 217.742 10.08 L 218.076 8.61 L 218.72 8.587 L 218.72 10.08 L 220.508 10.08 L 220.508 10.808 L 218.72 10.808 L 218.72 14.493 L 218.72 14.493 Q 218.72 15.226 218.943 15.525 L 218.943 15.525 L 218.943 15.525 Q 219.166 15.823 219.705 15.823 L 219.705 15.823 L 219.705 15.823 Q 219.898 15.823 220.543 15.73 L 220.543 15.73 L 220.584 16.502 L 220.584 16.502 Q 219.886 16.626 219.517 16.626 Z  M 234.808 31.144 L 235.722 28.612 L 235.722 28.612 Q 239.783 30.616 244.424 30.616 L 244.424 30.616 L 244.424 30.616 Q 250.136 30.616 250.136 25.412 L 250.136 25.412 L 250.136 25.412 Q 250.136 23.726 249.231 22.68 L 249.231 22.68 L 249.231 22.68 Q 248.326 21.633 245.935 21.036 L 245.935 21.036 L 240.767 19.736 L 240.767 19.736 Q 234.843 18.241 234.843 13.407 L 234.843 13.407 L 234.843 13.407 Q 234.843 9.698 237.392 7.897 L 237.392 7.897 L 237.392 7.897 Q 239.941 6.094 244.441 6.094 L 244.441 6.094 L 244.441 6.094 Q 246.797 6.094 248.853 6.605 L 248.853 6.605 L 248.853 6.605 Q 250.91 7.113 252.299 7.975 L 252.299 7.975 L 251.42 10.454 L 251.42 10.454 Q 250.242 9.804 248.3 9.294 L 248.3 9.294 L 248.3 9.294 Q 246.357 8.784 244.371 8.784 L 244.371 8.784 L 244.371 8.784 Q 238.008 8.784 238.008 13.196 L 238.008 13.196 L 238.008 13.196 Q 238.008 14.691 238.983 15.596 L 238.983 15.596 L 238.983 15.596 Q 239.959 16.501 241.91 16.976 L 241.91 16.976 L 246.849 18.171 L 246.849 18.171 Q 250.013 18.927 251.648 20.588 L 251.648 20.588 L 251.648 20.588 Q 253.283 22.249 253.283 25.308 L 253.283 25.308 L 253.283 25.308 Q 253.283 29.28 250.848 31.293 L 250.848 31.293 L 250.848 31.293 Q 248.414 33.305 244.23 33.305 L 244.23 33.305 L 244.23 33.305 Q 241.101 33.305 238.667 32.664 L 238.667 32.664 L 238.667 32.664 Q 236.232 32.023 234.808 31.144 L 234.808 31.144 L 234.808 31.144 L 234.808 31.144 Z  M 265.394 33.305 L 265.394 33.305 L 265.394 33.305 Q 261.14 33.305 258.741 30.546 L 258.741 30.546 L 258.741 30.546 Q 256.342 27.786 256.342 23.321 L 256.342 23.321 L 256.342 23.321 Q 256.359 18.821 258.794 16.017 L 258.794 16.017 L 258.794 16.017 Q 261.228 13.214 265.465 13.214 L 265.465 13.214 L 265.465 13.214 Q 266.959 13.214 268.356 13.583 L 268.356 13.583 L 268.356 13.583 Q 269.754 13.952 270.562 14.55 L 270.562 14.55 L 269.754 16.835 L 269.754 16.835 Q 267.697 15.728 265.412 15.728 L 265.412 15.728 L 265.412 15.728 Q 262.617 15.728 260.991 17.767 L 260.991 17.767 L 260.991 17.767 Q 259.365 19.806 259.365 23.339 L 259.365 23.339 L 259.365 23.339 Q 259.365 26.784 260.973 28.797 L 260.973 28.797 L 260.973 28.797 Q 262.582 30.81 265.429 30.81 L 265.429 30.81 L 265.429 30.81 Q 267.697 30.81 270.07 29.579 L 270.07 29.579 L 270.439 31.917 L 270.439 31.917 Q 268.523 33.305 265.394 33.305 Z  M 282.902 13.442 L 282.902 13.442 L 282.902 13.442 Q 283.693 13.442 284.343 13.548 L 284.343 13.548 L 284.238 16.255 L 284.238 16.255 Q 283.429 16.114 282.832 16.114 L 282.832 16.114 L 282.832 16.114 Q 280.371 16.114 278.833 17.828 L 278.833 17.828 L 278.833 17.828 Q 277.295 19.542 277.295 22.072 L 277.295 22.072 L 277.295 32.902 L 274.359 32.902 L 274.359 32.902 Q 274.342 15.147 274.342 13.618 L 274.342 13.618 L 276.785 13.618 L 277.066 17.081 L 277.066 17.081 Q 278.068 15.446 279.615 14.444 L 279.615 14.444 L 279.615 14.444 Q 281.162 13.442 282.902 13.442 Z  M 298.485 17.178 L 298.485 17.178 L 298.485 17.178 Q 297.193 15.64 294.943 15.64 L 294.943 15.64 L 294.943 15.64 Q 292.693 15.64 291.269 17.231 L 291.269 17.231 L 291.269 17.231 Q 289.845 18.821 289.599 21.581 L 289.599 21.581 L 299.777 21.581 L 299.777 21.581 Q 299.777 18.716 298.485 17.178 Z  M 295.523 33.305 L 295.523 33.305 L 295.523 33.305 Q 291.322 33.305 288.905 30.633 L 288.905 30.633 L 288.905 30.633 Q 286.488 27.962 286.488 23.321 L 286.488 23.321 L 286.488 23.321 Q 286.488 18.839 288.826 16.053 L 288.826 16.053 L 288.826 16.053 Q 291.164 13.266 294.978 13.214 L 294.978 13.214 L 294.978 13.214 Q 298.564 13.214 300.665 15.666 L 300.665 15.666 L 300.665 15.666 Q 302.765 18.118 302.765 22.214 L 302.765 22.214 L 302.765 22.214 Q 302.765 22.425 302.757 22.987 L 302.757 22.987 L 302.757 22.987 Q 302.748 23.55 302.748 23.796 L 302.748 23.796 L 289.511 23.796 L 289.511 23.796 Q 289.564 27.083 291.208 28.92 L 291.208 28.92 L 291.208 28.92 Q 292.851 30.757 295.629 30.757 L 295.629 30.757 L 295.629 30.757 Q 298.687 30.757 301.763 29.14 L 301.763 29.14 L 302.22 31.513 L 302.22 31.513 Q 299.285 33.305 295.523 33.305 Z  M 317.962 17.178 L 317.962 17.178 L 317.962 17.178 Q 316.67 15.64 314.42 15.64 L 314.42 15.64 L 314.42 15.64 Q 312.17 15.64 310.746 17.231 L 310.746 17.231 L 310.746 17.231 Q 309.322 18.821 309.076 21.581 L 309.076 21.581 L 319.254 21.581 L 319.254 21.581 Q 319.254 18.716 317.962 17.178 Z  M 315 33.305 L 315 33.305 L 315 33.305 Q 310.799 33.305 308.382 30.633 L 308.382 30.633 L 308.382 30.633 Q 305.965 27.962 305.965 23.321 L 305.965 23.321 L 305.965 23.321 Q 305.965 18.839 308.302 16.053 L 308.302 16.053 L 308.302 16.053 Q 310.64 13.266 314.455 13.214 L 314.455 13.214 L 314.455 13.214 Q 318.041 13.214 320.141 15.666 L 320.141 15.666 L 320.141 15.666 Q 322.242 18.118 322.242 22.214 L 322.242 22.214 L 322.242 22.214 Q 322.242 22.425 322.233 22.987 L 322.233 22.987 L 322.233 22.987 Q 322.224 23.55 322.224 23.796 L 322.224 23.796 L 308.988 23.796 L 308.988 23.796 Q 309.041 27.083 310.684 28.92 L 310.684 28.92 L 310.684 28.92 Q 312.328 30.757 315.105 30.757 L 315.105 30.757 L 315.105 30.757 Q 318.164 30.757 321.24 29.14 L 321.24 29.14 L 321.697 31.513 L 321.697 31.513 Q 318.761 33.305 315 33.305 Z  M 329.291 32.902 L 326.32 32.902 L 326.32 13.618 L 328.781 13.618 L 329.15 16.377 L 329.15 16.377 Q 330.293 14.954 332.007 14.083 L 332.007 14.083 L 332.007 14.083 Q 333.72 13.214 335.707 13.214 L 335.707 13.214 L 335.707 13.214 Q 339.047 13.214 340.646 15.086 L 340.646 15.086 L 340.646 15.086 Q 342.246 16.958 342.246 20.843 L 342.246 20.843 L 342.246 32.902 L 339.31 32.902 L 339.31 32.902 Q 339.31 21.3 339.293 20.473 L 339.293 20.473 L 339.293 20.473 Q 339.222 18.013 338.3 16.87 L 338.3 16.87 L 338.3 16.87 Q 337.377 15.728 335.215 15.728 L 335.215 15.728 L 335.215 15.728 Q 332.947 15.728 331.435 16.818 L 331.435 16.818 L 331.435 16.818 Q 329.924 17.907 329.467 19.648 L 329.467 19.648 L 329.467 19.648 Q 329.291 20.825 329.291 22.354 L 329.291 22.354 L 329.291 32.902 L 329.291 32.902 L 329.291 32.902 Z  M 352.881 33.305 L 352.881 33.305 L 352.881 33.305 Q 350.912 33.305 349.251 32.884 L 349.251 32.884 L 349.251 32.884 Q 347.59 32.462 346.552 31.793 L 346.552 31.793 L 346.922 29.316 L 346.922 29.316 Q 349.857 30.88 352.687 30.88 L 352.687 30.88 L 352.687 30.88 Q 356.976 30.88 357.099 27.857 L 357.099 27.857 L 357.099 27.857 Q 357.099 26.572 356.185 25.835 L 356.185 25.835 L 356.185 25.835 Q 355.271 25.097 352.599 24.183 L 352.599 24.183 L 351.14 23.673 L 351.14 23.673 Q 348.609 22.829 347.528 21.581 L 347.528 21.581 L 347.528 21.581 Q 346.447 20.333 346.429 18.47 L 346.429 18.47 L 346.429 18.47 Q 346.429 16.202 348.249 14.708 L 348.249 14.708 L 348.249 14.708 Q 350.068 13.214 353.232 13.214 L 353.232 13.214 L 353.232 13.214 Q 356.502 13.214 359.191 14.48 L 359.191 14.48 L 358.33 16.73 L 358.33 16.73 Q 355.605 15.605 353.232 15.605 L 353.232 15.605 L 353.232 15.605 Q 351.386 15.605 350.341 16.334 L 350.341 16.334 L 350.341 16.334 Q 349.295 17.064 349.295 18.382 L 349.295 18.382 L 349.295 18.382 Q 349.295 19.507 350.051 20.104 L 350.051 20.104 L 350.051 20.104 Q 350.806 20.702 353.074 21.476 L 353.074 21.476 L 353.074 21.476 Q 353.654 21.687 354.533 21.968 L 354.533 21.968 L 354.533 21.968 Q 357.451 22.917 358.664 24.209 L 358.664 24.209 L 358.664 24.209 Q 359.877 25.501 359.877 27.697 L 359.877 27.697 L 359.877 27.697 Q 359.842 30.37 357.961 31.838 L 357.961 31.838 L 357.961 31.838 Q 356.08 33.305 352.881 33.305 Z  M 369.457 30.933 L 369.457 30.933 L 369.457 30.933 Q 371.549 30.933 373.139 29.781 L 373.139 29.781 L 373.139 29.781 Q 374.73 28.63 375.187 26.679 L 375.187 26.679 L 375.187 23.427 L 375.187 23.427 Q 375.099 23.427 374.124 23.515 L 374.124 23.515 L 374.124 23.515 Q 373.148 23.603 372.849 23.62 L 372.849 23.62 L 372.849 23.62 Q 369.035 23.954 367.532 24.868 L 367.532 24.868 L 367.532 24.868 Q 366.029 25.782 366.029 27.804 L 366.029 27.804 L 366.029 27.804 Q 366.029 29.351 366.943 30.142 L 366.943 30.142 L 366.943 30.142 Q 367.857 30.933 369.457 30.933 Z  M 378.123 32.902 L 375.838 32.902 L 375.838 32.902 Q 375.574 31.777 375.328 30.476 L 375.328 30.476 L 375.328 30.476 Q 373.728 32.075 372.322 32.691 L 372.322 32.691 L 372.322 32.691 Q 370.916 33.305 369.017 33.305 L 369.017 33.305 L 369.017 33.305 Q 366.31 33.305 364.667 31.891 L 364.667 31.891 L 364.667 31.891 Q 363.023 30.476 363.023 27.821 L 363.023 27.821 L 363.023 27.821 Q 363.023 24.868 365.264 23.444 L 365.264 23.444 L 365.264 23.444 Q 367.506 22.021 371.724 21.668 L 371.724 21.668 L 371.724 21.668 Q 372.304 21.616 373.473 21.52 L 373.473 21.52 L 373.473 21.52 Q 374.642 21.423 375.222 21.37 L 375.222 21.37 L 375.222 19.665 L 375.222 19.665 Q 375.222 17.626 374.273 16.642 L 374.273 16.642 L 374.273 16.642 Q 373.324 15.657 371.285 15.657 L 371.285 15.657 L 371.285 15.657 Q 368.437 15.657 365.537 17.064 L 365.537 17.064 L 365.537 17.064 Q 365.449 16.853 365.08 15.842 L 365.08 15.842 L 365.08 15.842 Q 364.711 14.83 364.693 14.795 L 364.693 14.795 L 364.693 14.795 Q 365.976 14.074 367.743 13.644 L 367.743 13.644 L 367.743 13.644 Q 369.51 13.214 371.338 13.214 L 371.338 13.214 L 371.338 13.214 Q 374.941 13.214 376.532 14.787 L 376.532 14.787 L 376.532 14.787 Q 378.123 16.361 378.123 20.14 L 378.123 20.14 L 378.123 32.902 L 378.123 32.902 L 378.123 32.902 Z  M 391.324 32.902 L 388.125 32.902 L 380.654 13.618 L 383.801 13.618 L 388.054 25.079 L 388.054 25.079 Q 388.054 25.079 389.812 29.966 L 389.812 29.966 L 389.812 29.966 Q 390.41 28.085 391.465 25.114 L 391.465 25.114 L 391.465 25.114 Q 392.801 21.37 395.613 13.618 L 395.613 13.618 L 398.742 13.618 L 391.324 32.902 L 391.324 32.902 L 391.324 32.902 Z  M 412.426 17.178 L 412.426 17.178 L 412.426 17.178 Q 411.134 15.64 408.884 15.64 L 408.884 15.64 L 408.884 15.64 Q 406.634 15.64 405.211 17.231 L 405.211 17.231 L 405.211 17.231 Q 403.787 18.821 403.541 21.581 L 403.541 21.581 L 413.718 21.581 L 413.718 21.581 Q 413.718 18.716 412.426 17.178 Z  M 409.465 33.305 L 409.465 33.305 L 409.465 33.305 Q 405.263 33.305 402.846 30.633 L 402.846 30.633 L 402.846 30.633 Q 400.429 27.962 400.429 23.321 L 400.429 23.321 L 400.429 23.321 Q 400.429 18.839 402.767 16.053 L 402.767 16.053 L 402.767 16.053 Q 405.105 13.266 408.92 13.214 L 408.92 13.214 L 408.92 13.214 Q 412.506 13.214 414.606 15.666 L 414.606 15.666 L 414.606 15.666 Q 416.707 18.118 416.707 22.214 L 416.707 22.214 L 416.707 22.214 Q 416.707 22.425 416.698 22.987 L 416.698 22.987 L 416.698 22.987 Q 416.689 23.55 416.689 23.796 L 416.689 23.796 L 403.453 23.796 L 403.453 23.796 Q 403.506 27.083 405.149 28.92 L 405.149 28.92 L 405.149 28.92 Q 406.793 30.757 409.57 30.757 L 409.57 30.757 L 409.57 30.757 Q 412.629 30.757 415.705 29.14 L 415.705 29.14 L 416.162 31.513 L 416.162 31.513 Q 413.226 33.305 409.465 33.305 Z  M 429.433 13.442 L 429.433 13.442 L 429.433 13.442 Q 430.224 13.442 430.875 13.548 L 430.875 13.548 L 430.769 16.255 L 430.769 16.255 Q 429.961 16.114 429.363 16.114 L 429.363 16.114 L 429.363 16.114 Q 426.902 16.114 425.364 17.828 L 425.364 17.828 L 425.364 17.828 Q 423.826 19.542 423.826 22.072 L 423.826 22.072 L 423.826 32.902 L 420.89 32.902 L 420.89 32.902 Q 420.873 15.147 420.873 13.618 L 420.873 13.618 L 423.316 13.618 L 423.597 17.081 L 423.597 17.081 Q 424.599 15.446 426.146 14.444 L 426.146 14.444 L 426.146 14.444 Q 427.693 13.442 429.433 13.442 Z " fill-rule="evenodd" fill="rgb(255,255,255)"/><path d=" M 531.656 30.88 L 528.686 30.88 L 520.705 12.317 L 520.037 10.542 L 520.16 16.905 L 520.16 32.48 L 517.313 32.48 L 517.313 6.482 L 521.25 6.482 L 530.303 27.189 L 539.268 6.482 L 543.1 6.482 L 543.1 32.48 L 540.147 32.48 L 540.147 16.835 L 540.27 10.612 L 539.619 12.388 L 531.656 30.88 L 531.656 30.88 L 531.656 30.88 Z  M 559.808 16.755 L 559.808 16.755 L 559.808 16.755 Q 558.516 15.218 556.266 15.218 L 556.266 15.218 L 556.266 15.218 Q 554.016 15.218 552.592 16.809 L 552.592 16.809 L 552.592 16.809 Q 551.168 18.4 550.922 21.159 L 550.922 21.159 L 561.1 21.159 L 561.1 21.159 Q 561.1 18.293 559.808 16.755 Z  M 556.846 32.884 L 556.846 32.884 L 556.846 32.884 Q 552.645 32.884 550.228 30.212 L 550.228 30.212 L 550.228 30.212 Q 547.811 27.54 547.811 22.9 L 547.811 22.9 L 547.811 22.9 Q 547.811 18.417 550.149 15.631 L 550.149 15.631 L 550.149 15.631 Q 552.486 12.845 556.301 12.792 L 556.301 12.792 L 556.301 12.792 Q 559.887 12.792 561.987 15.244 L 561.987 15.244 L 561.987 15.244 Q 564.088 17.696 564.088 21.792 L 564.088 21.792 L 564.088 21.792 Q 564.088 22.002 564.079 22.566 L 564.079 22.566 L 564.079 22.566 Q 564.07 23.127 564.07 23.374 L 564.07 23.374 L 550.834 23.374 L 550.834 23.374 Q 550.887 26.661 552.53 28.498 L 552.53 28.498 L 552.53 28.498 Q 554.174 30.335 556.951 30.335 L 556.951 30.335 L 556.951 30.335 Q 560.01 30.335 563.086 28.718 L 563.086 28.718 L 563.543 31.091 L 563.543 31.091 Q 560.607 32.884 556.846 32.884 Z  M 571.137 32.48 L 568.166 32.48 L 568.166 13.196 L 570.627 13.196 L 570.996 15.955 L 570.996 15.955 Q 572.139 14.532 573.853 13.662 L 573.853 13.662 L 573.853 13.662 Q 575.566 12.792 577.553 12.792 L 577.553 12.792 L 577.553 12.792 Q 580.893 12.792 582.492 14.664 L 582.492 14.664 L 582.492 14.664 Q 584.092 16.536 584.092 20.421 L 584.092 20.421 L 584.092 32.48 L 581.156 32.48 L 581.156 32.48 Q 581.156 20.877 581.139 20.052 L 581.139 20.052 L 581.139 20.052 Q 581.068 17.591 580.146 16.447 L 580.146 16.447 L 580.146 16.447 Q 579.223 15.306 577.061 15.306 L 577.061 15.306 L 577.061 15.306 Q 574.793 15.306 573.281 16.396 L 573.281 16.396 L 573.281 16.396 Q 571.77 17.486 571.313 19.226 L 571.313 19.226 L 571.313 19.226 Q 571.137 20.403 571.137 21.933 L 571.137 21.933 L 571.137 32.48 L 571.137 32.48 L 571.137 32.48 Z  M 588.311 26.046 L 588.311 26.046 L 588.311 13.196 L 591.264 13.196 L 591.264 26.081 L 591.264 26.081 Q 591.264 27.347 591.624 28.226 L 591.624 28.226 L 591.624 28.226 Q 591.984 29.104 592.661 29.588 L 592.661 29.588 L 592.661 29.588 Q 593.338 30.071 594.19 30.282 L 594.19 30.282 L 594.19 30.282 Q 595.043 30.493 596.15 30.493 L 596.15 30.493 L 596.15 30.493 Q 598.436 30.493 599.71 29.491 L 599.71 29.491 L 599.71 29.491 Q 600.984 28.489 600.984 26.081 L 600.984 26.081 L 600.984 13.196 L 603.938 13.196 L 603.938 26.046 L 603.938 26.046 Q 603.938 27.523 603.516 28.7 L 603.516 28.7 L 603.516 28.7 Q 603.094 29.877 602.382 30.659 L 602.382 30.659 L 602.382 30.659 Q 601.67 31.443 600.668 31.952 L 600.668 31.952 L 600.668 31.952 Q 599.666 32.462 598.55 32.691 L 598.55 32.691 L 598.55 32.691 Q 597.434 32.918 596.15 32.918 L 596.15 32.918 L 596.15 32.918 Q 594.885 32.918 593.76 32.691 L 593.76 32.691 L 593.76 32.691 Q 592.635 32.462 591.624 31.944 L 591.624 31.944 L 591.624 31.944 Q 590.613 31.425 589.884 30.643 L 589.884 30.643 L 589.884 30.643 Q 589.154 29.861 588.732 28.683 L 588.732 28.683 L 588.732 28.683 Q 588.311 27.505 588.311 26.046 Z  M 472.9 15.087 L 473.205 14.243 L 473.205 14.243 Q 474.558 14.91 476.105 14.91 L 476.105 14.91 L 476.105 14.91 Q 478.009 14.91 478.009 13.176 L 478.009 13.176 L 478.009 13.176 Q 478.009 12.614 477.708 12.265 L 477.708 12.265 L 477.708 12.265 Q 477.406 11.917 476.609 11.717 L 476.609 11.717 L 474.886 11.284 L 474.886 11.284 Q 472.912 10.785 472.912 9.173 L 472.912 9.173 L 472.912 9.173 Q 472.912 7.937 473.761 7.336 L 473.761 7.336 L 473.761 7.336 Q 474.611 6.736 476.111 6.736 L 476.111 6.736 L 476.111 6.736 Q 476.896 6.736 477.582 6.906 L 477.582 6.906 L 477.582 6.906 Q 478.267 7.076 478.73 7.363 L 478.73 7.363 L 478.437 8.189 L 478.437 8.189 Q 478.044 7.972 477.397 7.802 L 477.397 7.802 L 477.397 7.802 Q 476.75 7.632 476.087 7.632 L 476.087 7.632 L 476.087 7.632 Q 473.966 7.632 473.966 9.103 L 473.966 9.103 L 473.966 9.103 Q 473.966 9.602 474.292 9.904 L 474.292 9.904 L 474.292 9.904 Q 474.617 10.205 475.267 10.364 L 475.267 10.364 L 476.914 10.762 L 476.914 10.762 Q 477.968 11.013 478.513 11.567 L 478.513 11.567 L 478.513 11.567 Q 479.058 12.122 479.058 13.141 L 479.058 13.141 L 479.058 13.141 Q 479.058 14.465 478.247 15.135 L 478.247 15.135 L 478.247 15.135 Q 477.435 15.807 476.041 15.807 L 476.041 15.807 L 476.041 15.807 Q 474.998 15.807 474.186 15.593 L 474.186 15.593 L 474.186 15.593 Q 473.375 15.378 472.9 15.087 L 472.9 15.087 L 472.9 15.087 L 472.9 15.087 Z  M 482.427 15.79 L 482.427 15.79 L 482.427 15.79 Q 481.478 15.79 481.08 15.327 L 481.08 15.327 L 481.08 15.327 Q 480.681 14.864 480.658 13.833 L 480.658 13.833 L 480.658 9.971 L 479.703 9.971 L 479.744 9.327 L 480.652 9.244 L 480.986 7.773 L 481.63 7.751 L 481.63 9.244 L 483.417 9.244 L 483.417 9.971 L 481.63 9.971 L 481.63 13.657 L 481.63 13.657 Q 481.63 14.388 481.853 14.688 L 481.853 14.688 L 481.853 14.688 Q 482.076 14.987 482.615 14.987 L 482.615 14.987 L 482.615 14.987 Q 482.808 14.987 483.453 14.893 L 483.453 14.893 L 483.494 15.667 L 483.494 15.667 Q 482.796 15.79 482.427 15.79 Z  M 486.394 15.016 L 486.394 15.016 L 486.394 15.016 Q 487.091 15.016 487.622 14.631 L 487.622 14.631 L 487.622 14.631 Q 488.152 14.249 488.304 13.598 L 488.304 13.598 L 488.304 12.513 L 488.304 12.513 Q 488.275 12.513 487.95 12.544 L 487.95 12.544 L 487.95 12.544 Q 487.625 12.573 487.525 12.579 L 487.525 12.579 L 487.525 12.579 Q 486.253 12.689 485.752 12.994 L 485.752 12.994 L 485.752 12.994 Q 485.251 13.298 485.251 13.973 L 485.251 13.973 L 485.251 13.973 Q 485.251 14.489 485.556 14.753 L 485.556 14.753 L 485.556 14.753 Q 485.861 15.016 486.394 15.016 Z  M 489.283 15.672 L 488.521 15.672 L 488.521 15.672 Q 488.433 15.297 488.351 14.864 L 488.351 14.864 L 488.351 14.864 Q 487.818 15.397 487.349 15.602 L 487.349 15.602 L 487.349 15.602 Q 486.88 15.807 486.248 15.807 L 486.248 15.807 L 486.248 15.807 Q 485.345 15.807 484.797 15.336 L 484.797 15.336 L 484.797 15.336 Q 484.25 14.864 484.25 13.978 L 484.25 13.978 L 484.25 13.978 Q 484.25 12.994 484.997 12.519 L 484.997 12.519 L 484.997 12.519 Q 485.744 12.045 487.15 11.928 L 487.15 11.928 L 487.15 11.928 Q 487.343 11.91 487.733 11.878 L 487.733 11.878 L 487.733 11.878 Q 488.123 11.846 488.316 11.829 L 488.316 11.829 L 488.316 11.26 L 488.316 11.26 Q 488.316 10.58 488 10.253 L 488 10.253 L 488 10.253 Q 487.683 9.923 487.003 9.923 L 487.003 9.923 L 487.003 9.923 Q 486.054 9.923 485.087 10.393 L 485.087 10.393 L 485.087 10.393 Q 485.058 10.323 484.935 9.986 L 484.935 9.986 L 484.935 9.986 Q 484.812 9.649 484.806 9.637 L 484.806 9.637 L 484.806 9.637 Q 485.234 9.397 485.823 9.253 L 485.823 9.253 L 485.823 9.253 Q 486.412 9.109 487.021 9.109 L 487.021 9.109 L 487.021 9.109 Q 488.222 9.109 488.752 9.634 L 488.752 9.634 L 488.752 9.634 Q 489.283 10.159 489.283 11.419 L 489.283 11.419 L 489.283 15.672 L 489.283 15.672 L 489.283 15.672 Z  M 493.853 9.186 L 493.853 9.186 L 493.853 9.186 Q 494.117 9.186 494.334 9.221 L 494.334 9.221 L 494.298 10.124 L 494.298 10.124 Q 494.029 10.077 493.83 10.077 L 493.83 10.077 L 493.83 10.077 Q 493.009 10.077 492.497 10.647 L 492.497 10.647 L 492.497 10.647 Q 491.984 11.218 491.984 12.063 L 491.984 12.063 L 491.984 15.672 L 491.005 15.672 L 491.005 15.672 Q 491 9.753 491 9.244 L 491 9.244 L 491.814 9.244 L 491.908 10.399 L 491.908 10.399 Q 492.242 9.853 492.757 9.519 L 492.757 9.519 L 492.757 9.519 Q 493.273 9.186 493.853 9.186 Z  M 497.392 15.79 L 497.392 15.79 L 497.392 15.79 Q 496.443 15.79 496.044 15.327 L 496.044 15.327 L 496.044 15.327 Q 495.646 14.864 495.623 13.833 L 495.623 13.833 L 495.623 9.971 L 494.667 9.971 L 494.709 9.327 L 495.617 9.244 L 495.951 7.773 L 496.595 7.751 L 496.595 9.244 L 498.382 9.244 L 498.382 9.971 L 496.595 9.971 L 496.595 13.657 L 496.595 13.657 Q 496.595 14.388 496.818 14.688 L 496.818 14.688 L 496.818 14.688 Q 497.041 14.987 497.58 14.987 L 497.58 14.987 L 497.58 14.987 Q 497.773 14.987 498.417 14.893 L 498.417 14.893 L 498.459 15.667 L 498.459 15.667 Q 497.761 15.79 497.392 15.79 Z  M 474.57 31.787 L 474.57 25.787 L 474.57 19.787 L 485.679 22.787 L 496.788 25.787 L 485.679 28.787 L 474.57 31.787 L 474.57 31.787 L 474.57 31.787 Z " fill-rule="evenodd" fill="rgb(255,255,255)"/><path d=" M 967.148 31.213 L 968.062 28.682 L 968.062 28.682 Q 972.123 30.686 976.763 30.686 L 976.763 30.686 L 976.763 30.686 Q 982.476 30.686 982.476 25.483 L 982.476 25.483 L 982.476 25.483 Q 982.476 23.795 981.571 22.75 L 981.571 22.75 L 981.571 22.75 Q 980.666 21.704 978.275 21.106 L 978.275 21.106 L 973.107 19.805 L 973.107 19.805 Q 967.183 18.311 967.183 13.477 L 967.183 13.477 L 967.183 13.477 Q 967.183 9.768 969.732 7.966 L 969.732 7.966 L 969.732 7.966 Q 972.281 6.165 976.781 6.165 L 976.781 6.165 L 976.781 6.165 Q 979.136 6.165 981.193 6.674 L 981.193 6.674 L 981.193 6.674 Q 983.25 7.184 984.638 8.045 L 984.638 8.045 L 983.759 10.524 L 983.759 10.524 Q 982.582 9.874 980.639 9.364 L 980.639 9.364 L 980.639 9.364 Q 978.697 8.854 976.71 8.854 L 976.71 8.854 L 976.71 8.854 Q 970.347 8.854 970.347 13.266 L 970.347 13.266 L 970.347 13.266 Q 970.347 14.76 971.323 15.666 L 971.323 15.666 L 971.323 15.666 Q 972.298 16.571 974.25 17.045 L 974.25 17.045 L 979.189 18.241 L 979.189 18.241 Q 982.353 18.997 983.988 20.658 L 983.988 20.658 L 983.988 20.658 Q 985.623 22.319 985.623 25.378 L 985.623 25.378 L 985.623 25.378 Q 985.623 29.35 983.188 31.363 L 983.188 31.363 L 983.188 31.363 Q 980.753 33.376 976.57 33.376 L 976.57 33.376 L 976.57 33.376 Q 973.441 33.376 971.006 32.734 L 971.006 32.734 L 971.006 32.734 Q 968.572 32.092 967.148 31.213 L 967.148 31.213 L 967.148 31.213 Z  M 1000.696 17.248 L 1000.696 17.248 L 1000.696 17.248 Q 999.404 15.71 997.154 15.71 L 997.154 15.71 L 997.154 15.71 Q 994.904 15.71 993.48 17.3 L 993.48 17.3 L 993.48 17.3 Q 992.056 18.891 991.81 21.651 L 991.81 21.651 L 1001.988 21.651 L 1001.988 21.651 Q 1001.988 18.786 1000.696 17.248 Z  M 997.734 33.376 L 997.734 33.376 L 997.734 33.376 Q 993.533 33.376 991.116 30.704 L 991.116 30.704 L 991.116 30.704 Q 988.699 28.032 988.699 23.391 L 988.699 23.391 L 988.699 23.391 Q 988.699 18.909 991.037 16.123 L 991.037 16.123 L 991.037 16.123 Q 993.375 13.337 997.189 13.284 L 997.189 13.284 L 997.189 13.284 Q 1000.775 13.284 1002.876 15.736 L 1002.876 15.736 L 1002.876 15.736 Q 1004.976 18.188 1004.976 22.284 L 1004.976 22.284 L 1004.976 22.284 Q 1004.976 22.495 1004.967 23.057 L 1004.967 23.057 L 1004.967 23.057 Q 1004.959 23.62 1004.959 23.866 L 1004.959 23.866 L 991.722 23.866 L 991.722 23.866 Q 991.775 27.153 993.418 28.99 L 993.418 28.99 L 993.418 28.99 Q 995.062 30.827 997.839 30.827 L 997.839 30.827 L 997.839 30.827 Q 1000.898 30.827 1003.974 29.21 L 1003.974 29.21 L 1004.431 31.583 L 1004.431 31.583 Q 1001.496 33.376 997.734 33.376 Z  M 1014.24 33.323 L 1014.24 33.323 L 1014.24 33.323 Q 1011.427 33.323 1010.258 31.811 L 1010.258 31.811 L 1010.258 31.811 Q 1009.089 30.299 1009.089 26.555 L 1009.089 26.555 L 1009.089 6.2 L 1012.007 6.024 L 1012.007 25.395 L 1012.007 25.395 Q 1012.007 26.59 1012.034 27.311 L 1012.034 27.311 L 1012.034 27.311 Q 1012.06 28.032 1012.166 28.726 L 1012.166 28.726 L 1012.166 28.726 Q 1012.271 29.42 1012.447 29.772 L 1012.447 29.772 L 1012.447 29.772 Q 1012.623 30.124 1012.957 30.414 L 1012.957 30.414 L 1012.957 30.414 Q 1013.291 30.704 1013.756 30.8 L 1013.756 30.8 L 1013.756 30.8 Q 1014.222 30.897 1014.908 30.897 L 1014.908 30.897 L 1014.908 30.897 Q 1015.47 30.897 1017.123 30.686 L 1017.123 30.686 L 1017.281 33.024 L 1017.281 33.024 Q 1015.47 33.323 1014.24 33.323 Z  M 1030.174 17.248 L 1030.174 17.248 L 1030.174 17.248 Q 1028.882 15.71 1026.632 15.71 L 1026.632 15.71 L 1026.632 15.71 Q 1024.382 15.71 1022.959 17.3 L 1022.959 17.3 L 1022.959 17.3 Q 1021.535 18.891 1021.289 21.651 L 1021.289 21.651 L 1031.466 21.651 L 1031.466 21.651 Q 1031.466 18.786 1030.174 17.248 Z  M 1027.212 33.376 L 1027.212 33.376 L 1027.212 33.376 Q 1023.011 33.376 1020.594 30.704 L 1020.594 30.704 L 1020.594 30.704 Q 1018.177 28.032 1018.177 23.391 L 1018.177 23.391 L 1018.177 23.391 Q 1018.177 18.909 1020.515 16.123 L 1020.515 16.123 L 1020.515 16.123 Q 1022.853 13.337 1026.668 13.284 L 1026.668 13.284 L 1026.668 13.284 Q 1030.253 13.284 1032.354 15.736 L 1032.354 15.736 L 1032.354 15.736 Q 1034.455 18.188 1034.455 22.284 L 1034.455 22.284 L 1034.455 22.284 Q 1034.455 22.495 1034.446 23.057 L 1034.446 23.057 L 1034.446 23.057 Q 1034.437 23.62 1034.437 23.866 L 1034.437 23.866 L 1021.201 23.866 L 1021.201 23.866 Q 1021.253 27.153 1022.897 28.99 L 1022.897 28.99 L 1022.897 28.99 Q 1024.541 30.827 1027.318 30.827 L 1027.318 30.827 L 1027.318 30.827 Q 1030.376 30.827 1033.453 29.21 L 1033.453 29.21 L 1033.91 31.583 L 1033.91 31.583 Q 1030.974 33.376 1027.212 33.376 Z  M 1046.689 33.376 L 1046.689 33.376 L 1046.689 33.376 Q 1042.435 33.376 1040.036 30.616 L 1040.036 30.616 L 1040.036 30.616 Q 1037.636 27.856 1037.636 23.391 L 1037.636 23.391 L 1037.636 23.391 Q 1037.654 18.891 1040.088 16.087 L 1040.088 16.087 L 1040.088 16.087 Q 1042.523 13.284 1046.759 13.284 L 1046.759 13.284 L 1046.759 13.284 Q 1048.253 13.284 1049.651 13.653 L 1049.651 13.653 L 1049.651 13.653 Q 1051.048 14.022 1051.857 14.62 L 1051.857 14.62 L 1051.048 16.905 L 1051.048 16.905 Q 1048.992 15.797 1046.707 15.797 L 1046.707 15.797 L 1046.707 15.797 Q 1043.912 15.797 1042.286 17.837 L 1042.286 17.837 L 1042.286 17.837 Q 1040.66 19.876 1040.66 23.409 L 1040.66 23.409 L 1040.66 23.409 Q 1040.66 26.854 1042.268 28.867 L 1042.268 28.867 L 1042.268 28.867 Q 1043.876 30.879 1046.724 30.879 L 1046.724 30.879 L 1046.724 30.879 Q 1048.992 30.879 1051.365 29.649 L 1051.365 29.649 L 1051.734 31.987 L 1051.734 31.987 Q 1049.818 33.376 1046.689 33.376 Z  M 1061.701 33.323 L 1061.701 33.323 L 1061.701 33.323 Q 1058.853 33.323 1057.658 31.934 L 1057.658 31.934 L 1057.658 31.934 Q 1056.462 30.545 1056.392 27.452 L 1056.392 27.452 L 1056.392 15.868 L 1053.527 15.868 L 1053.65 13.934 L 1056.375 13.688 L 1057.376 9.276 L 1059.31 9.206 L 1059.31 13.688 L 1064.671 13.688 L 1064.671 15.868 L 1059.31 15.868 L 1059.31 26.924 L 1059.31 26.924 Q 1059.31 29.122 1059.978 30.018 L 1059.978 30.018 L 1059.978 30.018 Q 1060.646 30.915 1062.263 30.915 L 1062.263 30.915 L 1062.263 30.915 Q 1062.843 30.915 1064.777 30.633 L 1064.777 30.633 L 1064.9 32.954 L 1064.9 32.954 Q 1062.808 33.323 1061.701 33.323 Z " fill-rule="evenodd" fill="rgb(255,255,255)"/><path d=" M 729.355 9.399 L 722.394 9.399 L 722.394 18.188 L 722.394 18.188 Q 723.114 18.188 725.373 18.223 L 725.373 18.223 L 725.373 18.223 Q 727.632 18.258 728.862 18.258 L 728.862 18.258 L 728.862 18.258 Q 732.22 18.258 733.538 17.142 L 733.538 17.142 L 733.538 17.142 Q 734.857 16.026 734.857 13.6 L 734.857 13.6 L 734.857 13.6 Q 734.857 11.473 733.591 10.436 L 733.591 10.436 L 733.591 10.436 Q 732.325 9.399 729.355 9.399 L 729.355 9.399 L 729.355 9.399 Z  M 734.804 23.795 L 739.058 32.971 L 735.542 32.971 L 731.956 24.815 L 731.956 24.815 Q 730.497 21.528 730.093 20.86 L 730.093 20.86 L 730.093 20.86 Q 728.81 20.948 727.052 20.948 L 727.052 20.948 L 722.394 20.807 L 722.394 32.971 L 719.282 32.971 L 719.282 6.674 L 727.597 6.674 L 727.597 6.674 Q 729.038 6.674 730.146 6.745 L 730.146 6.745 L 730.146 6.745 Q 731.253 6.815 732.352 7 L 732.352 7 L 732.352 7 Q 733.45 7.184 734.259 7.509 L 734.259 7.509 L 734.259 7.509 Q 735.068 7.835 735.771 8.353 L 735.771 8.353 L 735.771 8.353 Q 736.474 8.872 736.904 9.592 L 736.904 9.592 L 736.904 9.592 Q 737.335 10.313 737.581 11.306 L 737.581 11.306 L 737.581 11.306 Q 737.827 12.299 737.827 13.547 L 737.827 13.547 L 737.827 13.547 Q 737.827 16.008 736.535 17.784 L 736.535 17.784 L 736.535 17.784 Q 735.243 19.559 732.87 20.245 L 732.87 20.245 L 732.87 20.245 Q 732.87 20.28 733.222 20.878 L 733.222 20.878 L 733.222 20.878 Q 733.573 21.475 734.057 22.345 L 734.057 22.345 L 734.057 22.345 Q 734.54 23.215 734.804 23.795 L 734.804 23.795 L 734.804 23.795 Z  M 748.321 31.003 L 748.321 31.003 L 748.321 31.003 Q 750.413 31.003 752.004 29.851 L 752.004 29.851 L 752.004 29.851 Q 753.595 28.7 754.052 26.749 L 754.052 26.749 L 754.052 23.497 L 754.052 23.497 Q 753.964 23.497 752.988 23.585 L 752.988 23.585 L 752.988 23.585 Q 752.013 23.672 751.714 23.69 L 751.714 23.69 L 751.714 23.69 Q 747.9 24.024 746.397 24.938 L 746.397 24.938 L 746.397 24.938 Q 744.894 25.852 744.894 27.874 L 744.894 27.874 L 744.894 27.874 Q 744.894 29.42 745.808 30.212 L 745.808 30.212 L 745.808 30.212 Q 746.722 31.003 748.321 31.003 Z  M 756.987 32.971 L 754.702 32.971 L 754.702 32.971 Q 754.439 31.846 754.193 30.545 L 754.193 30.545 L 754.193 30.545 Q 752.593 32.145 751.187 32.76 L 751.187 32.76 L 751.187 32.76 Q 749.78 33.376 747.882 33.376 L 747.882 33.376 L 747.882 33.376 Q 745.175 33.376 743.531 31.961 L 743.531 31.961 L 743.531 31.961 Q 741.888 30.545 741.888 27.891 L 741.888 27.891 L 741.888 27.891 Q 741.888 24.938 744.129 23.514 L 744.129 23.514 L 744.129 23.514 Q 746.37 22.09 750.589 21.739 L 750.589 21.739 L 750.589 21.739 Q 751.169 21.686 752.338 21.589 L 752.338 21.589 L 752.338 21.589 Q 753.507 21.493 754.087 21.44 L 754.087 21.44 L 754.087 19.735 L 754.087 19.735 Q 754.087 17.696 753.138 16.712 L 753.138 16.712 L 753.138 16.712 Q 752.189 15.727 750.15 15.727 L 750.15 15.727 L 750.15 15.727 Q 747.302 15.727 744.402 17.133 L 744.402 17.133 L 744.402 17.133 Q 744.314 16.922 743.945 15.912 L 743.945 15.912 L 743.945 15.912 Q 743.575 14.901 743.558 14.866 L 743.558 14.866 L 743.558 14.866 Q 744.841 14.145 746.608 13.714 L 746.608 13.714 L 746.608 13.714 Q 748.374 13.284 750.202 13.284 L 750.202 13.284 L 750.202 13.284 Q 753.806 13.284 755.397 14.857 L 755.397 14.857 L 755.397 14.857 Q 756.987 16.43 756.987 20.21 L 756.987 20.21 L 756.987 32.971 L 756.987 32.971 Z  M 765.021 32.971 L 762.05 32.971 L 762.05 13.688 L 764.511 13.688 L 764.88 16.448 L 764.88 16.448 Q 766.023 15.024 767.737 14.154 L 767.737 14.154 L 767.737 14.154 Q 769.45 13.284 771.437 13.284 L 771.437 13.284 L 771.437 13.284 Q 774.777 13.284 776.376 15.156 L 776.376 15.156 L 776.376 15.156 Q 777.976 17.028 777.976 20.913 L 777.976 20.913 L 777.976 32.971 L 775.04 32.971 L 775.04 32.971 Q 775.04 21.37 775.023 20.544 L 775.023 20.544 L 775.023 20.544 Q 774.952 18.083 774.029 16.94 L 774.029 16.94 L 774.029 16.94 Q 773.107 15.797 770.945 15.797 L 770.945 15.797 L 770.945 15.797 Q 768.677 15.797 767.165 16.887 L 767.165 16.887 L 767.165 16.887 Q 765.654 17.977 765.196 19.717 L 765.196 19.717 L 765.196 19.717 Q 765.021 20.895 765.021 22.424 L 765.021 22.424 L 765.021 32.971 L 765.021 32.971 Z  M 790.386 30.844 L 790.386 30.844 L 790.386 30.844 Q 793.286 30.844 794.701 28.981 L 794.701 28.981 L 794.701 28.981 Q 796.116 27.118 796.116 23.655 L 796.116 23.655 L 796.116 23.655 Q 796.116 19.753 794.754 17.775 L 794.754 17.775 L 794.754 17.775 Q 793.392 15.797 790.351 15.797 L 790.351 15.797 L 790.351 15.797 Q 788.997 15.797 787.96 16.378 L 787.96 16.378 L 787.96 16.378 Q 786.923 16.958 786.29 17.995 L 786.29 17.995 L 786.29 17.995 Q 785.657 19.032 785.332 20.377 L 785.332 20.377 L 785.332 20.377 Q 785.007 21.721 785.007 23.321 L 785.007 23.321 L 785.007 23.321 Q 785.007 25.571 785.561 27.223 L 785.561 27.223 L 785.561 27.223 Q 786.114 28.876 787.345 29.86 L 787.345 29.86 L 787.345 29.86 Q 788.575 30.844 790.386 30.844 Z  M 796.556 32.971 L 796.169 30.176 L 796.169 30.176 Q 795.22 31.635 793.638 32.497 L 793.638 32.497 L 793.638 32.497 Q 792.056 33.358 790.105 33.358 L 790.105 33.358 L 790.105 33.358 Q 786.29 33.358 784.128 30.642 L 784.128 30.642 L 784.128 30.642 Q 781.966 27.926 781.966 23.251 L 781.966 23.251 L 781.966 23.251 Q 781.966 18.786 784.163 16.035 L 784.163 16.035 L 784.163 16.035 Q 786.361 13.284 790.052 13.284 L 790.052 13.284 L 790.052 13.284 Q 791.968 13.284 793.664 14.119 L 793.664 14.119 L 793.664 14.119 Q 795.361 14.954 796.204 16.36 L 796.204 16.36 L 796.152 14.69 L 796.152 6.2 L 799.052 6.024 L 799.052 32.971 L 796.556 32.971 L 796.556 32.971 Z  M 806.294 23.374 L 806.294 23.374 L 806.294 23.374 Q 806.294 26.801 807.815 28.867 L 807.815 28.867 L 807.815 28.867 Q 809.335 30.932 812.253 30.932 L 812.253 30.932 L 812.253 30.932 Q 815.136 30.932 816.604 28.876 L 816.604 28.876 L 816.604 28.876 Q 818.071 26.819 818.071 23.338 L 818.071 23.338 L 818.071 23.338 Q 818.071 19.805 816.621 17.775 L 816.621 17.775 L 816.621 17.775 Q 815.171 15.745 812.2 15.745 L 812.2 15.745 L 812.2 15.745 Q 809.318 15.745 807.806 17.819 L 807.806 17.819 L 807.806 17.819 Q 806.294 19.893 806.294 23.374 Z  M 821.112 23.321 L 821.112 23.321 L 821.112 23.321 Q 821.112 27.803 818.722 30.589 L 818.722 30.589 L 818.722 30.589 Q 816.331 33.376 812.112 33.376 L 812.112 33.376 L 812.112 33.376 Q 808.052 33.376 805.653 30.563 L 805.653 30.563 L 805.653 30.563 Q 803.253 27.751 803.253 23.338 L 803.253 23.338 L 803.253 23.338 Q 803.253 18.838 805.661 16.061 L 805.661 16.061 L 805.661 16.061 Q 808.07 13.284 812.271 13.284 L 812.271 13.284 L 812.271 13.284 Q 816.402 13.284 818.757 16.07 L 818.757 16.07 L 818.757 16.07 Q 821.112 18.856 821.112 23.321 Z  M 852.683 32.971 L 849.747 32.971 L 849.747 22.934 L 849.747 22.934 Q 849.747 21.528 849.686 20.579 L 849.686 20.579 L 849.686 20.579 Q 849.624 19.629 849.404 18.645 L 849.404 18.645 L 849.404 18.645 Q 849.185 17.661 848.789 17.089 L 848.789 17.089 L 848.789 17.089 Q 848.394 16.518 847.691 16.158 L 847.691 16.158 L 847.691 16.158 Q 846.987 15.797 846.003 15.797 L 846.003 15.797 L 846.003 15.797 Q 844.07 15.797 842.707 16.835 L 842.707 16.835 L 842.707 16.835 Q 841.345 17.872 840.765 19.753 L 840.765 19.753 L 840.765 19.753 Q 840.607 21.018 840.607 22.46 L 840.607 22.46 L 840.607 32.971 L 837.671 32.971 L 837.671 22.618 L 837.671 22.618 Q 837.671 21.317 837.583 20.359 L 837.583 20.359 L 837.583 20.359 Q 837.495 19.401 837.249 18.496 L 837.249 18.496 L 837.249 18.496 Q 837.003 17.59 836.59 17.028 L 836.59 17.028 L 836.59 17.028 Q 836.177 16.465 835.491 16.131 L 835.491 16.131 L 835.491 16.131 Q 834.806 15.797 833.857 15.797 L 833.857 15.797 L 833.857 15.797 Q 831.747 15.797 830.315 16.87 L 830.315 16.87 L 830.315 16.87 Q 828.882 17.942 828.39 19.717 L 828.39 19.717 L 828.39 19.717 Q 828.232 21.071 828.232 22.653 L 828.232 22.653 L 828.232 32.971 L 825.296 32.971 L 825.296 32.971 Q 825.261 14.883 825.261 13.688 L 825.261 13.688 L 827.722 13.688 L 828.091 16.448 L 828.091 16.448 Q 828.97 15.112 830.587 14.198 L 830.587 14.198 L 830.587 14.198 Q 832.204 13.284 834.261 13.284 L 834.261 13.284 L 834.261 13.284 Q 835.333 13.284 836.238 13.503 L 836.238 13.503 L 836.238 13.503 Q 837.144 13.723 837.75 14.057 L 837.75 14.057 L 837.75 14.057 Q 838.357 14.391 838.831 14.857 L 838.831 14.857 L 838.831 14.857 Q 839.306 15.323 839.57 15.771 L 839.57 15.771 L 839.57 15.771 Q 839.833 16.219 840.009 16.712 L 840.009 16.712 L 840.009 16.712 Q 842.118 13.284 846.46 13.284 L 846.46 13.284 L 846.46 13.284 Q 849.677 13.284 851.18 15.121 L 851.18 15.121 L 851.18 15.121 Q 852.683 16.958 852.683 20.561 L 852.683 20.561 L 852.683 32.971 L 852.683 32.971 Z  M 660 19.7 C 660 8.827 668.827 0 679.7 0 C 690.573 0 699.4 8.827 699.4 19.7 C 699.4 30.573 690.573 39.4 679.7 39.4 C 668.827 39.4 660 30.573 660 19.7 Z  M 692.837 29.255 L 679.977 29.255 L 667.122 29.255 L 673.552 18.123 L 679.977 6.986 L 686.407 18.123 L 692.837 29.255 Z  M 687.032 25.902 L 679.977 25.902 L 672.927 25.902 L 676.452 19.799 L 679.977 13.692 L 683.507 19.799 L 687.032 25.902 Z " fill-rule="evenodd" fill="rgb(255,255,255)"/></g></g></svg>