<?xml version="1.0" standalone="no"?><!-- Generator: Gravit.io --><svg xmlns="http://www.w3.org/2000/svg" xmlns:xlink="http://www.w3.org/1999/xlink" style="isolation:isolate" viewBox="0 0 1065.2 41.1" width="1065.2" height="41.1"><defs><clipPath id="_clipPath_jLNEM8399gcqkDsuSo77pGeLNBJukqfA"><rect width="1065.2" height="41.1"/></clipPath></defs><g clip-path="url(#_clipPath_jLNEM8399gcqkDsuSo77pGeLNBJukqfA)"><g><path d=" M 669.744 20.55 C 669.744 9.677 678.571 0.85 689.444 0.85 C 700.317 0.85 709.144 9.677 709.144 20.55 C 709.144 31.423 700.317 40.25 689.444 40.25 C 678.571 40.25 669.744 31.423 669.744 20.55 Z  M 684.753 29.545 L 681.106 29.545 L 687.406 20.335 L 681.573 11.555 L 685.318 11.555 L 689.555 18.26 L 693.914 11.555 L 697.463 11.555 L 691.507 20.384 L 697.782 29.545 L 693.939 29.545 L 689.395 22.546 L 684.753 29.545 L 684.753 29.545 L 684.753 29.545 Z  M 739.083 10.525 L 732.122 10.525 L 732.122 19.314 L 732.122 19.314 Q 732.843 19.314 735.102 19.349 L 735.102 19.349 L 735.102 19.349 Q 737.36 19.384 738.591 19.384 L 738.591 19.384 L 738.591 19.384 Q 741.948 19.384 743.267 18.268 L 743.267 18.268 L 743.267 18.268 Q 744.585 17.152 744.585 14.726 L 744.585 14.726 L 744.585 14.726 Q 744.585 12.599 743.319 11.562 L 743.319 11.562 L 743.319 11.562 Q 742.054 10.525 739.083 10.525 L 739.083 10.525 L 739.083 10.525 L 739.083 10.525 Z  M 744.532 24.921 L 748.786 34.097 L 745.271 34.097 L 741.685 25.941 L 741.685 25.941 Q 740.226 22.654 739.821 21.986 L 739.821 21.986 L 739.821 21.986 Q 738.538 22.074 736.78 22.074 L 736.78 22.074 L 732.122 21.933 L 732.122 34.097 L 729.011 34.097 L 729.011 7.8 L 737.325 7.8 L 737.325 7.8 Q 738.767 7.8 739.874 7.871 L 739.874 7.871 L 739.874 7.871 Q 740.982 7.941 742.08 8.126 L 742.08 8.126 L 742.08 8.126 Q 743.179 8.31 743.987 8.635 L 743.987 8.635 L 743.987 8.635 Q 744.796 8.961 745.499 9.479 L 745.499 9.479 L 745.499 9.479 Q 746.202 9.998 746.633 10.718 L 746.633 10.718 L 746.633 10.718 Q 747.064 11.439 747.31 12.432 L 747.31 12.432 L 747.31 12.432 Q 747.556 13.425 747.556 14.673 L 747.556 14.673 L 747.556 14.673 Q 747.556 17.134 746.264 18.91 L 746.264 18.91 L 746.264 18.91 Q 744.972 20.685 742.599 21.371 L 742.599 21.371 L 742.599 21.371 Q 742.599 21.406 742.95 22.004 L 742.95 22.004 L 742.95 22.004 Q 743.302 22.601 743.785 23.471 L 743.785 23.471 L 743.785 23.471 Q 744.269 24.341 744.532 24.921 L 744.532 24.921 L 744.532 24.921 L 744.532 24.921 Z  M 758.05 32.129 L 758.05 32.129 L 758.05 32.129 Q 760.142 32.129 761.733 30.977 L 761.733 30.977 L 761.733 30.977 Q 763.323 29.826 763.78 27.875 L 763.78 27.875 L 763.78 24.623 L 763.78 24.623 Q 763.692 24.623 762.717 24.711 L 762.717 24.711 L 762.717 24.711 Q 761.741 24.798 761.442 24.816 L 761.442 24.816 L 761.442 24.816 Q 757.628 25.15 756.125 26.064 L 756.125 26.064 L 756.125 26.064 Q 754.622 26.978 754.622 29 L 754.622 29 L 754.622 29 Q 754.622 30.546 755.536 31.338 L 755.536 31.338 L 755.536 31.338 Q 756.45 32.129 758.05 32.129 Z  M 766.716 34.097 L 764.431 34.097 L 764.431 34.097 Q 764.167 32.972 763.921 31.671 L 763.921 31.671 L 763.921 31.671 Q 762.321 33.271 760.915 33.886 L 760.915 33.886 L 760.915 33.886 Q 759.509 34.502 757.61 34.502 L 757.61 34.502 L 757.61 34.502 Q 754.903 34.502 753.26 33.087 L 753.26 33.087 L 753.26 33.087 Q 751.616 31.671 751.616 29.017 L 751.616 29.017 L 751.616 29.017 Q 751.616 26.064 753.858 24.64 L 753.858 24.64 L 753.858 24.64 Q 756.099 23.216 760.317 22.865 L 760.317 22.865 L 760.317 22.865 Q 760.898 22.812 762.067 22.715 L 762.067 22.715 L 762.067 22.715 Q 763.235 22.619 763.816 22.566 L 763.816 22.566 L 763.816 20.861 L 763.816 20.861 Q 763.816 18.822 762.866 17.838 L 762.866 17.838 L 762.866 17.838 Q 761.917 16.853 759.878 16.853 L 759.878 16.853 L 759.878 16.853 Q 757.03 16.853 754.13 18.259 L 754.13 18.259 L 754.13 18.259 Q 754.042 18.048 753.673 17.038 L 753.673 17.038 L 753.673 17.038 Q 753.304 16.027 753.286 15.992 L 753.286 15.992 L 753.286 15.992 Q 754.569 15.271 756.336 14.84 L 756.336 14.84 L 756.336 14.84 Q 758.103 14.41 759.931 14.41 L 759.931 14.41 L 759.931 14.41 Q 763.534 14.41 765.125 15.983 L 765.125 15.983 L 765.125 15.983 Q 766.716 17.556 766.716 21.336 L 766.716 21.336 L 766.716 34.097 L 766.716 34.097 L 766.716 34.097 Z  M 774.749 34.097 L 771.778 34.097 L 771.778 14.814 L 774.239 14.814 L 774.609 17.574 L 774.609 17.574 Q 775.751 16.15 777.465 15.28 L 777.465 15.28 L 777.465 15.28 Q 779.179 14.41 781.165 14.41 L 781.165 14.41 L 781.165 14.41 Q 784.505 14.41 786.105 16.282 L 786.105 16.282 L 786.105 16.282 Q 787.704 18.154 787.704 22.039 L 787.704 22.039 L 787.704 34.097 L 784.769 34.097 L 784.769 34.097 Q 784.769 22.496 784.751 21.67 L 784.751 21.67 L 784.751 21.67 Q 784.681 19.209 783.758 18.066 L 783.758 18.066 L 783.758 18.066 Q 782.835 16.923 780.673 16.923 L 780.673 16.923 L 780.673 16.923 Q 778.405 16.923 776.894 18.013 L 776.894 18.013 L 776.894 18.013 Q 775.382 19.103 774.925 20.843 L 774.925 20.843 L 774.925 20.843 Q 774.749 22.021 774.749 23.55 L 774.749 23.55 L 774.749 34.097 L 774.749 34.097 L 774.749 34.097 Z  M 800.114 31.97 L 800.114 31.97 L 800.114 31.97 Q 803.015 31.97 804.43 30.107 L 804.43 30.107 L 804.43 30.107 Q 805.845 28.244 805.845 24.781 L 805.845 24.781 L 805.845 24.781 Q 805.845 20.879 804.483 18.901 L 804.483 18.901 L 804.483 18.901 Q 803.12 16.923 800.079 16.923 L 800.079 16.923 L 800.079 16.923 Q 798.726 16.923 797.689 17.504 L 797.689 17.504 L 797.689 17.504 Q 796.651 18.084 796.019 19.121 L 796.019 19.121 L 796.019 19.121 Q 795.386 20.158 795.061 21.503 L 795.061 21.503 L 795.061 21.503 Q 794.735 22.847 794.735 24.447 L 794.735 24.447 L 794.735 24.447 Q 794.735 26.697 795.289 28.349 L 795.289 28.349 L 795.289 28.349 Q 795.843 30.002 797.073 30.986 L 797.073 30.986 L 797.073 30.986 Q 798.304 31.97 800.114 31.97 Z  M 806.284 34.097 L 805.898 31.302 L 805.898 31.302 Q 804.948 32.761 803.366 33.623 L 803.366 33.623 L 803.366 33.623 Q 801.784 34.484 799.833 34.484 L 799.833 34.484 L 799.833 34.484 Q 796.019 34.484 793.857 31.768 L 793.857 31.768 L 793.857 31.768 Q 791.694 29.052 791.694 24.377 L 791.694 24.377 L 791.694 24.377 Q 791.694 19.912 793.892 17.161 L 793.892 17.161 L 793.892 17.161 Q 796.089 14.41 799.78 14.41 L 799.78 14.41 L 799.78 14.41 Q 801.696 14.41 803.393 15.245 L 803.393 15.245 L 803.393 15.245 Q 805.089 16.08 805.933 17.486 L 805.933 17.486 L 805.88 15.816 L 805.88 7.326 L 808.78 7.15 L 808.78 34.097 L 806.284 34.097 L 806.284 34.097 L 806.284 34.097 Z  M 816.023 24.5 L 816.023 24.5 L 816.023 24.5 Q 816.023 27.927 817.543 29.993 L 817.543 29.993 L 817.543 29.993 Q 819.064 32.058 821.982 32.058 L 821.982 32.058 L 821.982 32.058 Q 824.864 32.058 826.332 30.002 L 826.332 30.002 L 826.332 30.002 Q 827.8 27.945 827.8 24.464 L 827.8 24.464 L 827.8 24.464 Q 827.8 20.931 826.35 18.901 L 826.35 18.901 L 826.35 18.901 Q 824.9 16.871 821.929 16.871 L 821.929 16.871 L 821.929 16.871 Q 819.046 16.871 817.534 18.945 L 817.534 18.945 L 817.534 18.945 Q 816.023 21.019 816.023 24.5 Z  M 830.841 24.447 L 830.841 24.447 L 830.841 24.447 Q 830.841 28.929 828.45 31.715 L 828.45 31.715 L 828.45 31.715 Q 826.06 34.502 821.841 34.502 L 821.841 34.502 L 821.841 34.502 Q 817.78 34.502 815.381 31.689 L 815.381 31.689 L 815.381 31.689 Q 812.982 28.877 812.982 24.464 L 812.982 24.464 L 812.982 24.464 Q 812.982 19.964 815.39 17.187 L 815.39 17.187 L 815.39 17.187 Q 817.798 14.41 821.999 14.41 L 821.999 14.41 L 821.999 14.41 Q 826.13 14.41 828.485 17.196 L 828.485 17.196 L 828.485 17.196 Q 830.841 19.982 830.841 24.447 Z  M 862.411 34.097 L 859.476 34.097 L 859.476 24.06 L 859.476 24.06 Q 859.476 22.654 859.414 21.705 L 859.414 21.705 L 859.414 21.705 Q 859.353 20.755 859.133 19.771 L 859.133 19.771 L 859.133 19.771 Q 858.913 18.787 858.518 18.215 L 858.518 18.215 L 858.518 18.215 Q 858.122 17.644 857.419 17.284 L 857.419 17.284 L 857.419 17.284 Q 856.716 16.923 855.732 16.923 L 855.732 16.923 L 855.732 16.923 Q 853.798 16.923 852.436 17.961 L 852.436 17.961 L 852.436 17.961 Q 851.073 18.998 850.493 20.879 L 850.493 20.879 L 850.493 20.879 Q 850.335 22.144 850.335 23.586 L 850.335 23.586 L 850.335 34.097 L 847.4 34.097 L 847.4 23.744 L 847.4 23.744 Q 847.4 22.443 847.312 21.485 L 847.312 21.485 L 847.312 21.485 Q 847.224 20.527 846.978 19.622 L 846.978 19.622 L 846.978 19.622 Q 846.732 18.716 846.318 18.154 L 846.318 18.154 L 846.318 18.154 Q 845.905 17.591 845.22 17.257 L 845.22 17.257 L 845.22 17.257 Q 844.534 16.923 843.585 16.923 L 843.585 16.923 L 843.585 16.923 Q 841.476 16.923 840.043 17.996 L 840.043 17.996 L 840.043 17.996 Q 838.61 19.068 838.118 20.843 L 838.118 20.843 L 838.118 20.843 Q 837.96 22.197 837.96 23.779 L 837.96 23.779 L 837.96 34.097 L 835.025 34.097 L 835.025 34.097 Q 834.989 16.009 834.989 14.814 L 834.989 14.814 L 837.45 14.814 L 837.819 17.574 L 837.819 17.574 Q 838.698 16.238 840.316 15.324 L 840.316 15.324 L 840.316 15.324 Q 841.933 14.41 843.989 14.41 L 843.989 14.41 L 843.989 14.41 Q 845.062 14.41 845.967 14.629 L 845.967 14.629 L 845.967 14.629 Q 846.872 14.849 847.479 15.183 L 847.479 15.183 L 847.479 15.183 Q 848.085 15.517 848.56 15.983 L 848.56 15.983 L 848.56 15.983 Q 849.034 16.449 849.298 16.897 L 849.298 16.897 L 849.298 16.897 Q 849.562 17.345 849.737 17.838 L 849.737 17.838 L 849.737 17.838 Q 851.847 14.41 856.189 14.41 L 856.189 14.41 L 856.189 14.41 Q 859.405 14.41 860.908 16.247 L 860.908 16.247 L 860.908 16.247 Q 862.411 18.084 862.411 21.687 L 862.411 21.687 L 862.411 34.097 L 862.411 34.097 L 862.411 34.097 Z " fill-rule="evenodd" fill="rgb(255,255,255)"/><path d=" M 908.448 20.55 C 908.448 9.677 917.275 0.85 928.148 0.85 C 939.021 0.85 947.848 9.677 947.848 20.55 C 947.848 31.423 939.021 40.25 928.148 40.25 C 917.275 40.25 908.448 31.423 908.448 20.55 Z  M 923.242 29.551 L 919.767 29.551 L 926.386 11.549 L 930.008 11.549 L 936.529 29.551 L 933.115 29.551 L 931.335 24.467 L 925.035 24.467 L 923.242 29.551 L 923.242 29.551 L 923.242 29.551 Z  M 928.215 14.668 L 925.87 21.987 L 930.487 21.987 L 930.487 21.987 Q 928.277 14.902 928.215 14.668 L 928.215 14.668 L 928.215 14.668 L 928.215 14.668 Z  M 967.448 32.339 L 968.362 29.808 L 968.362 29.808 Q 972.423 31.812 977.063 31.812 L 977.063 31.812 L 977.063 31.812 Q 982.776 31.812 982.776 26.609 L 982.776 26.609 L 982.776 26.609 Q 982.776 24.921 981.871 23.876 L 981.871 23.876 L 981.871 23.876 Q 980.966 22.83 978.575 22.232 L 978.575 22.232 L 973.407 20.931 L 973.407 20.931 Q 967.483 19.437 967.483 14.603 L 967.483 14.603 L 967.483 14.603 Q 967.483 10.894 970.032 9.092 L 970.032 9.092 L 970.032 9.092 Q 972.581 7.291 977.081 7.291 L 977.081 7.291 L 977.081 7.291 Q 979.436 7.291 981.493 7.8 L 981.493 7.8 L 981.493 7.8 Q 983.55 8.31 984.938 9.171 L 984.938 9.171 L 984.059 11.65 L 984.059 11.65 Q 982.882 11 980.939 10.49 L 980.939 10.49 L 980.939 10.49 Q 978.997 9.98 977.01 9.98 L 977.01 9.98 L 977.01 9.98 Q 970.647 9.98 970.647 14.392 L 970.647 14.392 L 970.647 14.392 Q 970.647 15.886 971.623 16.792 L 971.623 16.792 L 971.623 16.792 Q 972.598 17.697 974.55 18.171 L 974.55 18.171 L 979.489 19.367 L 979.489 19.367 Q 982.653 20.123 984.288 21.784 L 984.288 21.784 L 984.288 21.784 Q 985.923 23.445 985.923 26.504 L 985.923 26.504 L 985.923 26.504 Q 985.923 30.476 983.488 32.489 L 983.488 32.489 L 983.488 32.489 Q 981.053 34.502 976.87 34.502 L 976.87 34.502 L 976.87 34.502 Q 973.741 34.502 971.306 33.86 L 971.306 33.86 L 971.306 33.86 Q 968.872 33.218 967.448 32.339 L 967.448 32.339 L 967.448 32.339 L 967.448 32.339 Z  M 1000.996 18.374 L 1000.996 18.374 L 1000.996 18.374 Q 999.704 16.836 997.454 16.836 L 997.454 16.836 L 997.454 16.836 Q 995.204 16.836 993.78 18.426 L 993.78 18.426 L 993.78 18.426 Q 992.356 20.017 992.11 22.777 L 992.11 22.777 L 1002.288 22.777 L 1002.288 22.777 Q 1002.288 19.912 1000.996 18.374 Z  M 998.034 34.502 L 998.034 34.502 L 998.034 34.502 Q 993.833 34.502 991.416 31.83 L 991.416 31.83 L 991.416 31.83 Q 988.999 29.158 988.999 24.517 L 988.999 24.517 L 988.999 24.517 Q 988.999 20.035 991.337 17.249 L 991.337 17.249 L 991.337 17.249 Q 993.675 14.463 997.489 14.41 L 997.489 14.41 L 997.489 14.41 Q 1001.075 14.41 1003.176 16.862 L 1003.176 16.862 L 1003.176 16.862 Q 1005.276 19.314 1005.276 23.41 L 1005.276 23.41 L 1005.276 23.41 Q 1005.276 23.621 1005.267 24.183 L 1005.267 24.183 L 1005.267 24.183 Q 1005.259 24.746 1005.259 24.992 L 1005.259 24.992 L 992.022 24.992 L 992.022 24.992 Q 992.075 28.279 993.718 30.116 L 993.718 30.116 L 993.718 30.116 Q 995.362 31.953 998.139 31.953 L 998.139 31.953 L 998.139 31.953 Q 1001.198 31.953 1004.274 30.336 L 1004.274 30.336 L 1004.731 32.709 L 1004.731 32.709 Q 1001.796 34.502 998.034 34.502 Z  M 1014.54 34.449 L 1014.54 34.449 L 1014.54 34.449 Q 1011.727 34.449 1010.558 32.937 L 1010.558 32.937 L 1010.558 32.937 Q 1009.389 31.425 1009.389 27.681 L 1009.389 27.681 L 1009.389 7.326 L 1012.307 7.15 L 1012.307 26.521 L 1012.307 26.521 Q 1012.307 27.716 1012.334 28.437 L 1012.334 28.437 L 1012.334 28.437 Q 1012.36 29.158 1012.466 29.852 L 1012.466 29.852 L 1012.466 29.852 Q 1012.571 30.546 1012.747 30.898 L 1012.747 30.898 L 1012.747 30.898 Q 1012.923 31.25 1013.257 31.54 L 1013.257 31.54 L 1013.257 31.54 Q 1013.591 31.83 1014.056 31.926 L 1014.056 31.926 L 1014.056 31.926 Q 1014.522 32.023 1015.208 32.023 L 1015.208 32.023 L 1015.208 32.023 Q 1015.77 32.023 1017.423 31.812 L 1017.423 31.812 L 1017.581 34.15 L 1017.581 34.15 Q 1015.77 34.449 1014.54 34.449 Z  M 1030.474 18.374 L 1030.474 18.374 L 1030.474 18.374 Q 1029.182 16.836 1026.932 16.836 L 1026.932 16.836 L 1026.932 16.836 Q 1024.682 16.836 1023.259 18.426 L 1023.259 18.426 L 1023.259 18.426 Q 1021.835 20.017 1021.589 22.777 L 1021.589 22.777 L 1031.766 22.777 L 1031.766 22.777 Q 1031.766 19.912 1030.474 18.374 Z  M 1027.512 34.502 L 1027.512 34.502 L 1027.512 34.502 Q 1023.311 34.502 1020.894 31.83 L 1020.894 31.83 L 1020.894 31.83 Q 1018.477 29.158 1018.477 24.517 L 1018.477 24.517 L 1018.477 24.517 Q 1018.477 20.035 1020.815 17.249 L 1020.815 17.249 L 1020.815 17.249 Q 1023.153 14.463 1026.968 14.41 L 1026.968 14.41 L 1026.968 14.41 Q 1030.553 14.41 1032.654 16.862 L 1032.654 16.862 L 1032.654 16.862 Q 1034.755 19.314 1034.755 23.41 L 1034.755 23.41 L 1034.755 23.41 Q 1034.755 23.621 1034.746 24.183 L 1034.746 24.183 L 1034.746 24.183 Q 1034.737 24.746 1034.737 24.992 L 1034.737 24.992 L 1021.501 24.992 L 1021.501 24.992 Q 1021.553 28.279 1023.197 30.116 L 1023.197 30.116 L 1023.197 30.116 Q 1024.841 31.953 1027.618 31.953 L 1027.618 31.953 L 1027.618 31.953 Q 1030.676 31.953 1033.753 30.336 L 1033.753 30.336 L 1034.21 32.709 L 1034.21 32.709 Q 1031.274 34.502 1027.512 34.502 Z  M 1046.989 34.502 L 1046.989 34.502 L 1046.989 34.502 Q 1042.735 34.502 1040.336 31.742 L 1040.336 31.742 L 1040.336 31.742 Q 1037.936 28.982 1037.936 24.517 L 1037.936 24.517 L 1037.936 24.517 Q 1037.954 20.017 1040.388 17.213 L 1040.388 17.213 L 1040.388 17.213 Q 1042.823 14.41 1047.059 14.41 L 1047.059 14.41 L 1047.059 14.41 Q 1048.553 14.41 1049.951 14.779 L 1049.951 14.779 L 1049.951 14.779 Q 1051.348 15.148 1052.157 15.746 L 1052.157 15.746 L 1051.348 18.031 L 1051.348 18.031 Q 1049.292 16.923 1047.007 16.923 L 1047.007 16.923 L 1047.007 16.923 Q 1044.212 16.923 1042.586 18.963 L 1042.586 18.963 L 1042.586 18.963 Q 1040.96 21.002 1040.96 24.535 L 1040.96 24.535 L 1040.96 24.535 Q 1040.96 27.98 1042.568 29.993 L 1042.568 29.993 L 1042.568 29.993 Q 1044.176 32.005 1047.024 32.005 L 1047.024 32.005 L 1047.024 32.005 Q 1049.292 32.005 1051.665 30.775 L 1051.665 30.775 L 1052.034 33.113 L 1052.034 33.113 Q 1050.118 34.502 1046.989 34.502 Z  M 1062.001 34.449 L 1062.001 34.449 L 1062.001 34.449 Q 1059.153 34.449 1057.958 33.06 L 1057.958 33.06 L 1057.958 33.06 Q 1056.762 31.671 1056.692 28.578 L 1056.692 28.578 L 1056.692 16.994 L 1053.827 16.994 L 1053.95 15.06 L 1056.675 14.814 L 1057.676 10.402 L 1059.61 10.332 L 1059.61 14.814 L 1064.971 14.814 L 1064.971 16.994 L 1059.61 16.994 L 1059.61 28.05 L 1059.61 28.05 Q 1059.61 30.248 1060.278 31.144 L 1060.278 31.144 L 1060.278 31.144 Q 1060.946 32.041 1062.563 32.041 L 1062.563 32.041 L 1062.563 32.041 Q 1063.143 32.041 1065.077 31.759 L 1065.077 31.759 L 1065.2 34.08 L 1065.2 34.08 Q 1063.108 34.449 1062.001 34.449 Z " fill-rule="evenodd" fill="rgb(255,255,255)"/><path d=" M 495.98 20.734 L 516.23 20.734 C 519.024 20.734 521.293 23.003 521.293 25.797 L 521.293 25.797 C 521.293 28.591 519.024 30.859 516.23 30.859 L 495.98 30.859 C 493.186 30.859 490.918 28.591 490.918 25.797 L 490.918 25.797 C 490.918 23.003 493.186 20.734 495.98 20.734 Z  M 551.426 31.927 L 548.455 31.927 L 540.475 13.364 L 539.807 11.589 L 539.93 17.952 L 539.93 33.526 L 537.082 33.526 L 537.082 7.528 L 541.02 7.528 L 550.073 28.235 L 559.037 7.528 L 562.87 7.528 L 562.87 33.526 L 559.916 33.526 L 559.916 17.882 L 560.039 11.659 L 559.389 13.434 L 551.426 31.927 L 551.426 31.927 L 551.426 31.927 Z  M 579.578 17.803 L 579.578 17.803 L 579.578 17.803 Q 578.286 16.265 576.036 16.265 L 576.036 16.265 L 576.036 16.265 Q 573.786 16.265 572.362 17.855 L 572.362 17.855 L 572.362 17.855 Q 570.938 19.446 570.692 22.206 L 570.692 22.206 L 580.87 22.206 L 580.87 22.206 Q 580.87 19.341 579.578 17.803 Z  M 576.616 33.931 L 576.616 33.931 L 576.616 33.931 Q 572.414 33.931 569.997 31.259 L 569.997 31.259 L 569.997 31.259 Q 567.58 28.587 567.58 23.946 L 567.58 23.946 L 567.58 23.946 Q 567.58 19.464 569.918 16.678 L 569.918 16.678 L 569.918 16.678 Q 572.256 13.891 576.071 13.839 L 576.071 13.839 L 576.071 13.839 Q 579.657 13.839 581.757 16.291 L 581.757 16.291 L 581.757 16.291 Q 583.858 18.743 583.858 22.839 L 583.858 22.839 L 583.858 22.839 Q 583.858 23.05 583.849 23.612 L 583.849 23.612 L 583.849 23.612 Q 583.84 24.175 583.84 24.421 L 583.84 24.421 L 570.604 24.421 L 570.604 24.421 Q 570.657 27.708 572.3 29.545 L 572.3 29.545 L 572.3 29.545 Q 573.944 31.382 576.721 31.382 L 576.721 31.382 L 576.721 31.382 Q 579.78 31.382 582.856 29.765 L 582.856 29.765 L 583.313 32.138 L 583.313 32.138 Q 580.377 33.931 576.616 33.931 Z  M 590.907 33.526 L 587.936 33.526 L 587.936 14.243 L 590.397 14.243 L 590.766 17.003 L 590.766 17.003 Q 591.909 15.579 593.622 14.709 L 593.622 14.709 L 593.622 14.709 Q 595.336 13.839 597.323 13.839 L 597.323 13.839 L 597.323 13.839 Q 600.662 13.839 602.262 15.711 L 602.262 15.711 L 602.262 15.711 Q 603.862 17.583 603.862 21.468 L 603.862 21.468 L 603.862 33.526 L 600.926 33.526 L 600.926 33.526 Q 600.926 21.925 600.909 21.099 L 600.909 21.099 L 600.909 21.099 Q 600.838 18.638 599.915 17.495 L 599.915 17.495 L 599.915 17.495 Q 598.993 16.352 596.83 16.352 L 596.83 16.352 L 596.83 16.352 Q 594.563 16.352 593.051 17.442 L 593.051 17.442 L 593.051 17.442 Q 591.539 18.532 591.082 20.272 L 591.082 20.272 L 591.082 20.272 Q 590.907 21.45 590.907 22.979 L 590.907 22.979 L 590.907 33.526 L 590.907 33.526 L 590.907 33.526 Z  M 608.08 27.093 L 608.08 27.093 L 608.08 14.243 L 611.034 14.243 L 611.034 27.128 L 611.034 27.128 Q 611.034 28.393 611.394 29.272 L 611.394 29.272 L 611.394 29.272 Q 611.754 30.151 612.431 30.635 L 612.431 30.635 L 612.431 30.635 Q 613.108 31.118 613.96 31.329 L 613.96 31.329 L 613.96 31.329 Q 614.813 31.54 615.92 31.54 L 615.92 31.54 L 615.92 31.54 Q 618.205 31.54 619.48 30.538 L 619.48 30.538 L 619.48 30.538 Q 620.754 29.536 620.754 27.128 L 620.754 27.128 L 620.754 14.243 L 623.707 14.243 L 623.707 27.093 L 623.707 27.093 Q 623.707 28.569 623.286 29.747 L 623.286 29.747 L 623.286 29.747 Q 622.864 30.925 622.152 31.707 L 622.152 31.707 L 622.152 31.707 Q 621.44 32.489 620.438 32.999 L 620.438 32.999 L 620.438 32.999 Q 619.436 33.509 618.32 33.737 L 618.32 33.737 L 618.32 33.737 Q 617.204 33.966 615.92 33.966 L 615.92 33.966 L 615.92 33.966 Q 614.655 33.966 613.53 33.737 L 613.53 33.737 L 613.53 33.737 Q 612.405 33.509 611.394 32.99 L 611.394 32.99 L 611.394 32.99 Q 610.383 32.472 609.654 31.689 L 609.654 31.689 L 609.654 31.689 Q 608.924 30.907 608.502 29.729 L 608.502 29.729 L 608.502 29.729 Q 608.08 28.552 608.08 27.093 Z  M 492.261 16.18 L 492.591 15.266 L 492.591 15.266 Q 494.057 15.989 495.733 15.989 L 495.733 15.989 L 495.733 15.989 Q 497.796 15.989 497.796 14.11 L 497.796 14.11 L 497.796 14.11 Q 497.796 13.501 497.469 13.123 L 497.469 13.123 L 497.469 13.123 Q 497.142 12.746 496.279 12.53 L 496.279 12.53 L 494.413 12.06 L 494.413 12.06 Q 492.274 11.521 492.274 9.775 L 492.274 9.775 L 492.274 9.775 Q 492.274 8.436 493.194 7.785 L 493.194 7.785 L 493.194 7.785 Q 494.115 7.134 495.74 7.134 L 495.74 7.134 L 495.74 7.134 Q 496.59 7.134 497.333 7.318 L 497.333 7.318 L 497.333 7.318 Q 498.076 7.502 498.577 7.813 L 498.577 7.813 L 498.26 8.709 L 498.26 8.709 Q 497.834 8.474 497.133 8.29 L 497.133 8.29 L 497.133 8.29 Q 496.431 8.105 495.714 8.105 L 495.714 8.105 L 495.714 8.105 Q 493.416 8.105 493.416 9.699 L 493.416 9.699 L 493.416 9.699 Q 493.416 10.238 493.769 10.565 L 493.769 10.565 L 493.769 10.565 Q 494.121 10.892 494.826 11.063 L 494.826 11.063 L 496.609 11.495 L 496.609 11.495 Q 497.752 11.768 498.342 12.368 L 498.342 12.368 L 498.342 12.368 Q 498.932 12.968 498.932 14.072 L 498.932 14.072 L 498.932 14.072 Q 498.932 15.507 498.053 16.234 L 498.053 16.234 L 498.053 16.234 Q 497.174 16.96 495.663 16.96 L 495.663 16.96 L 495.663 16.96 Q 494.534 16.96 493.654 16.729 L 493.654 16.729 L 493.654 16.729 Q 492.775 16.497 492.261 16.18 L 492.261 16.18 L 492.261 16.18 L 492.261 16.18 Z  M 502.582 16.941 L 502.582 16.941 L 502.582 16.941 Q 501.554 16.941 501.122 16.44 L 501.122 16.44 L 501.122 16.44 Q 500.691 15.938 500.665 14.821 L 500.665 14.821 L 500.665 10.638 L 499.631 10.638 L 499.675 9.94 L 500.659 9.851 L 501.021 8.258 L 501.719 8.232 L 501.719 9.851 L 503.655 9.851 L 503.655 10.638 L 501.719 10.638 L 501.719 14.631 L 501.719 14.631 Q 501.719 15.424 501.96 15.748 L 501.96 15.748 L 501.96 15.748 Q 502.202 16.072 502.785 16.072 L 502.785 16.072 L 502.785 16.072 Q 502.995 16.072 503.693 15.97 L 503.693 15.97 L 503.738 16.808 L 503.738 16.808 Q 502.982 16.941 502.582 16.941 Z  M 506.88 16.104 L 506.88 16.104 L 506.88 16.104 Q 507.635 16.104 508.21 15.688 L 508.21 15.688 L 508.21 15.688 Q 508.784 15.272 508.949 14.567 L 508.949 14.567 L 508.949 13.393 L 508.949 13.393 Q 508.917 13.393 508.565 13.425 L 508.565 13.425 L 508.565 13.425 Q 508.213 13.457 508.105 13.463 L 508.105 13.463 L 508.105 13.463 Q 506.727 13.584 506.185 13.914 L 506.185 13.914 L 506.185 13.914 Q 505.642 14.244 505.642 14.974 L 505.642 14.974 L 505.642 14.974 Q 505.642 15.532 505.972 15.818 L 505.972 15.818 L 505.972 15.818 Q 506.302 16.104 506.88 16.104 Z  M 510.009 16.814 L 509.184 16.814 L 509.184 16.814 Q 509.089 16.408 509 15.938 L 509 15.938 L 509 15.938 Q 508.422 16.516 507.914 16.738 L 507.914 16.738 L 507.914 16.738 Q 507.407 16.96 506.721 16.96 L 506.721 16.96 L 506.721 16.96 Q 505.743 16.96 505.15 16.449 L 505.15 16.449 L 505.15 16.449 Q 504.556 15.938 504.556 14.98 L 504.556 14.98 L 504.556 14.98 Q 504.556 13.914 505.366 13.399 L 505.366 13.399 L 505.366 13.399 Q 506.175 12.885 507.699 12.758 L 507.699 12.758 L 507.699 12.758 Q 507.908 12.739 508.33 12.704 L 508.33 12.704 L 508.33 12.704 Q 508.752 12.669 508.962 12.65 L 508.962 12.65 L 508.962 12.035 L 508.962 12.035 Q 508.962 11.298 508.619 10.943 L 508.619 10.943 L 508.619 10.943 Q 508.276 10.587 507.54 10.587 L 507.54 10.587 L 507.54 10.587 Q 506.512 10.587 505.464 11.095 L 505.464 11.095 L 505.464 11.095 Q 505.432 11.019 505.299 10.654 L 505.299 10.654 L 505.299 10.654 Q 505.166 10.289 505.16 10.276 L 505.16 10.276 L 505.16 10.276 Q 505.623 10.016 506.261 9.861 L 506.261 9.861 L 506.261 9.861 Q 506.899 9.705 507.559 9.705 L 507.559 9.705 L 507.559 9.705 Q 508.86 9.705 509.435 10.273 L 509.435 10.273 L 509.435 10.273 Q 510.009 10.841 510.009 12.206 L 510.009 12.206 L 510.009 16.814 L 510.009 16.814 L 510.009 16.814 Z  M 514.96 9.788 L 514.96 9.788 L 514.96 9.788 Q 515.246 9.788 515.481 9.826 L 515.481 9.826 L 515.443 10.803 L 515.443 10.803 Q 515.151 10.752 514.935 10.752 L 514.935 10.752 L 514.935 10.752 Q 514.046 10.752 513.491 11.371 L 513.491 11.371 L 513.491 11.371 Q 512.935 11.99 512.935 12.904 L 512.935 12.904 L 512.935 16.814 L 511.875 16.814 L 511.875 16.814 Q 511.869 10.403 511.869 9.851 L 511.869 9.851 L 512.751 9.851 L 512.853 11.102 L 512.853 11.102 Q 513.215 10.511 513.773 10.149 L 513.773 10.149 L 513.773 10.149 Q 514.332 9.788 514.96 9.788 Z  M 518.794 16.941 L 518.794 16.941 L 518.794 16.941 Q 517.766 16.941 517.334 16.44 L 517.334 16.44 L 517.334 16.44 Q 516.903 15.938 516.877 14.821 L 516.877 14.821 L 516.877 10.638 L 515.843 10.638 L 515.887 9.94 L 516.871 9.851 L 517.233 8.258 L 517.931 8.232 L 517.931 9.851 L 519.867 9.851 L 519.867 10.638 L 517.931 10.638 L 517.931 14.631 L 517.931 14.631 Q 517.931 15.424 518.172 15.748 L 518.172 15.748 L 518.172 15.748 Q 518.413 16.072 518.997 16.072 L 518.997 16.072 L 518.997 16.072 Q 519.207 16.072 519.905 15.97 L 519.905 15.97 L 519.95 16.808 L 519.95 16.808 Q 519.194 16.941 518.794 16.941 Z " fill-rule="evenodd" fill="rgb(255,255,255)"/><path d=" M 209.549 22.285 L 229.799 22.285 C 232.593 22.285 234.861 24.554 234.861 27.348 L 234.861 27.348 C 234.861 30.142 232.593 32.41 229.799 32.41 L 209.549 32.41 C 206.755 32.41 204.486 30.142 204.486 27.348 L 204.486 27.348 C 204.486 24.554 206.755 22.285 209.549 22.285 Z  M 202.024 17.786 L 202.354 16.872 L 202.354 16.872 Q 203.82 17.595 205.496 17.595 L 205.496 17.595 L 205.496 17.595 Q 207.559 17.595 207.559 15.717 L 207.559 15.717 L 207.559 15.717 Q 207.559 15.107 207.232 14.729 L 207.232 14.729 L 207.232 14.729 Q 206.905 14.352 206.042 14.136 L 206.042 14.136 L 204.176 13.666 L 204.176 13.666 Q 202.037 13.127 202.037 11.381 L 202.037 11.381 L 202.037 11.381 Q 202.037 10.042 202.957 9.391 L 202.957 9.391 L 202.957 9.391 Q 203.878 8.74 205.503 8.74 L 205.503 8.74 L 205.503 8.74 Q 206.353 8.74 207.096 8.925 L 207.096 8.925 L 207.096 8.925 Q 207.838 9.109 208.34 9.42 L 208.34 9.42 L 208.023 10.315 L 208.023 10.315 Q 207.597 10.08 206.896 9.896 L 206.896 9.896 L 206.896 9.896 Q 206.194 9.712 205.477 9.712 L 205.477 9.712 L 205.477 9.712 Q 203.179 9.712 203.179 11.305 L 203.179 11.305 L 203.179 11.305 Q 203.179 11.844 203.532 12.171 L 203.532 12.171 L 203.532 12.171 Q 203.884 12.498 204.588 12.67 L 204.588 12.67 L 206.372 13.101 L 206.372 13.101 Q 207.515 13.374 208.105 13.974 L 208.105 13.974 L 208.105 13.974 Q 208.695 14.574 208.695 15.678 L 208.695 15.678 L 208.695 15.678 Q 208.695 17.113 207.816 17.84 L 207.816 17.84 L 207.816 17.84 Q 206.937 18.567 205.426 18.567 L 205.426 18.567 L 205.426 18.567 Q 204.296 18.567 203.417 18.335 L 203.417 18.335 L 203.417 18.335 Q 202.538 18.103 202.024 17.786 L 202.024 17.786 L 202.024 17.786 L 202.024 17.786 Z  M 214.139 12.743 L 214.139 12.743 L 214.139 12.743 Q 213.672 12.187 212.859 12.187 L 212.859 12.187 L 212.859 12.187 Q 212.047 12.187 211.533 12.762 L 211.533 12.762 L 211.533 12.762 Q 211.019 13.336 210.93 14.333 L 210.93 14.333 L 214.605 14.333 L 214.605 14.333 Q 214.605 13.298 214.139 12.743 Z  M 213.069 18.567 L 213.069 18.567 L 213.069 18.567 Q 211.552 18.567 210.679 17.602 L 210.679 17.602 L 210.679 17.602 Q 209.806 16.637 209.806 14.961 L 209.806 14.961 L 209.806 14.961 Q 209.806 13.342 210.651 12.336 L 210.651 12.336 L 210.651 12.336 Q 211.495 11.33 212.872 11.311 L 212.872 11.311 L 212.872 11.311 Q 214.167 11.311 214.926 12.197 L 214.926 12.197 L 214.926 12.197 Q 215.684 13.082 215.684 14.561 L 215.684 14.561 L 215.684 14.561 Q 215.684 14.637 215.681 14.841 L 215.681 14.841 L 215.681 14.841 Q 215.678 15.044 215.678 15.133 L 215.678 15.133 L 210.898 15.133 L 210.898 15.133 Q 210.917 16.32 211.511 16.983 L 211.511 16.983 L 211.511 16.983 Q 212.104 17.646 213.107 17.646 L 213.107 17.646 L 213.107 17.646 Q 214.212 17.646 215.322 17.062 L 215.322 17.062 L 215.487 17.919 L 215.487 17.919 Q 214.427 18.567 213.069 18.567 Z  M 219.029 18.548 L 219.029 18.548 L 219.029 18.548 Q 218.014 18.548 217.592 18.002 L 217.592 18.002 L 217.592 18.002 Q 217.17 17.456 217.17 16.104 L 217.17 16.104 L 217.17 8.753 L 218.223 8.69 L 218.223 15.685 L 218.223 15.685 Q 218.223 16.116 218.233 16.377 L 218.233 16.377 L 218.233 16.377 Q 218.242 16.637 218.28 16.888 L 218.28 16.888 L 218.28 16.888 Q 218.318 17.138 218.382 17.265 L 218.382 17.265 L 218.382 17.265 Q 218.445 17.392 218.566 17.497 L 218.566 17.497 L 218.566 17.497 Q 218.687 17.602 218.855 17.637 L 218.855 17.637 L 218.855 17.637 Q 219.023 17.672 219.271 17.672 L 219.271 17.672 L 219.271 17.672 Q 219.474 17.672 220.07 17.595 L 220.07 17.595 L 220.128 18.44 L 220.128 18.44 Q 219.474 18.548 219.029 18.548 Z  M 224.784 12.743 L 224.784 12.743 L 224.784 12.743 Q 224.317 12.187 223.505 12.187 L 223.505 12.187 L 223.505 12.187 Q 222.692 12.187 222.178 12.762 L 222.178 12.762 L 222.178 12.762 Q 221.664 13.336 221.575 14.333 L 221.575 14.333 L 225.25 14.333 L 225.25 14.333 Q 225.25 13.298 224.784 12.743 Z  M 223.714 18.567 L 223.714 18.567 L 223.714 18.567 Q 222.197 18.567 221.324 17.602 L 221.324 17.602 L 221.324 17.602 Q 220.451 16.637 220.451 14.961 L 220.451 14.961 L 220.451 14.961 Q 220.451 13.342 221.296 12.336 L 221.296 12.336 L 221.296 12.336 Q 222.14 11.33 223.517 11.311 L 223.517 11.311 L 223.517 11.311 Q 224.812 11.311 225.571 12.197 L 225.571 12.197 L 225.571 12.197 Q 226.329 13.082 226.329 14.561 L 226.329 14.561 L 226.329 14.561 Q 226.329 14.637 226.326 14.841 L 226.326 14.841 L 226.326 14.841 Q 226.323 15.044 226.323 15.133 L 226.323 15.133 L 221.543 15.133 L 221.543 15.133 Q 221.562 16.32 222.156 16.983 L 222.156 16.983 L 222.156 16.983 Q 222.749 17.646 223.752 17.646 L 223.752 17.646 L 223.752 17.646 Q 224.857 17.646 225.967 17.062 L 225.967 17.062 L 226.132 17.919 L 226.132 17.919 Q 225.072 18.567 223.714 18.567 Z  M 230.747 18.567 L 230.747 18.567 L 230.747 18.567 Q 229.211 18.567 228.345 17.57 L 228.345 17.57 L 228.345 17.57 Q 227.478 16.573 227.478 14.961 L 227.478 14.961 L 227.478 14.961 Q 227.484 13.336 228.364 12.324 L 228.364 12.324 L 228.364 12.324 Q 229.243 11.311 230.773 11.311 L 230.773 11.311 L 230.773 11.311 Q 231.312 11.311 231.817 11.445 L 231.817 11.445 L 231.817 11.445 Q 232.321 11.578 232.613 11.794 L 232.613 11.794 L 232.321 12.619 L 232.321 12.619 Q 231.579 12.219 230.754 12.219 L 230.754 12.219 L 230.754 12.219 Q 229.744 12.219 229.157 12.955 L 229.157 12.955 L 229.157 12.955 Q 228.57 13.692 228.57 14.967 L 228.57 14.967 L 228.57 14.967 Q 228.57 16.212 229.151 16.938 L 229.151 16.938 L 229.151 16.938 Q 229.732 17.665 230.76 17.665 L 230.76 17.665 L 230.76 17.665 Q 231.579 17.665 232.436 17.221 L 232.436 17.221 L 232.569 18.065 L 232.569 18.065 Q 231.877 18.567 230.747 18.567 Z  M 236.168 18.548 L 236.168 18.548 L 236.168 18.548 Q 235.14 18.548 234.708 18.046 L 234.708 18.046 L 234.708 18.046 Q 234.276 17.545 234.251 16.427 L 234.251 16.427 L 234.251 12.244 L 233.216 12.244 L 233.261 11.546 L 234.245 11.457 L 234.607 9.864 L 235.305 9.839 L 235.305 11.457 L 237.241 11.457 L 237.241 12.244 L 235.305 12.244 L 235.305 16.237 L 235.305 16.237 Q 235.305 17.03 235.546 17.354 L 235.546 17.354 L 235.546 17.354 Q 235.787 17.678 236.371 17.678 L 236.371 17.678 L 236.371 17.678 Q 236.581 17.678 237.279 17.576 L 237.279 17.576 L 237.323 18.414 L 237.323 18.414 Q 236.568 18.548 236.168 18.548 Z  M 248.815 31.993 L 249.729 29.462 L 249.729 29.462 Q 253.789 31.466 258.43 31.466 L 258.43 31.466 L 258.43 31.466 Q 264.143 31.466 264.143 26.263 L 264.143 26.263 L 264.143 26.263 Q 264.143 24.575 263.238 23.529 L 263.238 23.529 L 263.238 23.529 Q 262.332 22.484 259.942 21.886 L 259.942 21.886 L 254.774 20.585 L 254.774 20.585 Q 248.85 19.091 248.85 14.257 L 248.85 14.257 L 248.85 14.257 Q 248.85 10.548 251.399 8.746 L 251.399 8.746 L 251.399 8.746 Q 253.947 6.945 258.447 6.945 L 258.447 6.945 L 258.447 6.945 Q 260.803 6.945 262.86 7.454 L 262.86 7.454 L 262.86 7.454 Q 264.916 7.964 266.305 8.825 L 266.305 8.825 L 265.426 11.304 L 265.426 11.304 Q 264.248 10.654 262.306 10.144 L 262.306 10.144 L 262.306 10.144 Q 260.363 9.634 258.377 9.634 L 258.377 9.634 L 258.377 9.634 Q 252.014 9.634 252.014 14.046 L 252.014 14.046 L 252.014 14.046 Q 252.014 15.54 252.989 16.446 L 252.989 16.446 L 252.989 16.446 Q 253.965 17.351 255.916 17.825 L 255.916 17.825 L 260.856 19.021 L 260.856 19.021 Q 264.02 19.777 265.655 21.438 L 265.655 21.438 L 265.655 21.438 Q 267.289 23.099 267.289 26.157 L 267.289 26.157 L 267.289 26.157 Q 267.289 30.13 264.855 32.143 L 264.855 32.143 L 264.855 32.143 Q 262.42 34.155 258.237 34.155 L 258.237 34.155 L 258.237 34.155 Q 255.108 34.155 252.673 33.514 L 252.673 33.514 L 252.673 33.514 Q 250.238 32.872 248.815 31.993 L 248.815 31.993 L 248.815 31.993 L 248.815 31.993 Z  M 279.401 34.155 L 279.401 34.155 L 279.401 34.155 Q 275.147 34.155 272.747 31.396 L 272.747 31.396 L 272.747 31.396 Q 270.348 28.636 270.348 24.171 L 270.348 24.171 L 270.348 24.171 Q 270.365 19.671 272.8 16.867 L 272.8 16.867 L 272.8 16.867 Q 275.235 14.064 279.471 14.064 L 279.471 14.064 L 279.471 14.064 Q 280.965 14.064 282.363 14.433 L 282.363 14.433 L 282.363 14.433 Q 283.76 14.802 284.569 15.4 L 284.569 15.4 L 283.76 17.685 L 283.76 17.685 Q 281.703 16.577 279.418 16.577 L 279.418 16.577 L 279.418 16.577 Q 276.623 16.577 274.997 18.616 L 274.997 18.616 L 274.997 18.616 Q 273.371 20.655 273.371 24.189 L 273.371 24.189 L 273.371 24.189 Q 273.371 27.634 274.98 29.647 L 274.98 29.647 L 274.98 29.647 Q 276.588 31.659 279.436 31.659 L 279.436 31.659 L 279.436 31.659 Q 281.703 31.659 284.076 30.429 L 284.076 30.429 L 284.446 32.767 L 284.446 32.767 Q 282.53 34.155 279.401 34.155 Z  M 296.908 14.292 L 296.908 14.292 L 296.908 14.292 Q 297.699 14.292 298.35 14.398 L 298.35 14.398 L 298.244 17.105 L 298.244 17.105 Q 297.436 16.964 296.838 16.964 L 296.838 16.964 L 296.838 16.964 Q 294.377 16.964 292.839 18.678 L 292.839 18.678 L 292.839 18.678 Q 291.301 20.392 291.301 22.923 L 291.301 22.923 L 291.301 33.751 L 288.365 33.751 L 288.365 33.751 Q 288.348 15.997 288.348 14.468 L 288.348 14.468 L 290.791 14.468 L 291.072 17.931 L 291.072 17.931 Q 292.074 16.296 293.621 15.294 L 293.621 15.294 L 293.621 15.294 Q 295.168 14.292 296.908 14.292 Z  M 312.491 18.028 L 312.491 18.028 L 312.491 18.028 Q 311.199 16.489 308.949 16.489 L 308.949 16.489 L 308.949 16.489 Q 306.699 16.489 305.276 18.08 L 305.276 18.08 L 305.276 18.08 Q 303.852 19.671 303.606 22.431 L 303.606 22.431 L 313.783 22.431 L 313.783 22.431 Q 313.783 19.566 312.491 18.028 Z  M 309.53 34.155 L 309.53 34.155 L 309.53 34.155 Q 305.328 34.155 302.911 31.484 L 302.911 31.484 L 302.911 31.484 Q 300.494 28.812 300.494 24.171 L 300.494 24.171 L 300.494 24.171 Q 300.494 19.689 302.832 16.903 L 302.832 16.903 L 302.832 16.903 Q 305.17 14.116 308.985 14.064 L 308.985 14.064 L 308.985 14.064 Q 312.571 14.064 314.671 16.516 L 314.671 16.516 L 314.671 16.516 Q 316.772 18.968 316.772 23.064 L 316.772 23.064 L 316.772 23.064 Q 316.772 23.275 316.763 23.837 L 316.763 23.837 L 316.763 23.837 Q 316.754 24.4 316.754 24.646 L 316.754 24.646 L 303.518 24.646 L 303.518 24.646 Q 303.571 27.933 305.214 29.77 L 305.214 29.77 L 305.214 29.77 Q 306.858 31.607 309.635 31.607 L 309.635 31.607 L 309.635 31.607 Q 312.694 31.607 315.77 29.989 L 315.77 29.989 L 316.227 32.362 L 316.227 32.362 Q 313.291 34.155 309.53 34.155 Z  M 331.968 18.028 L 331.968 18.028 L 331.968 18.028 Q 330.676 16.489 328.426 16.489 L 328.426 16.489 L 328.426 16.489 Q 326.176 16.489 324.752 18.08 L 324.752 18.08 L 324.752 18.08 Q 323.328 19.671 323.082 22.431 L 323.082 22.431 L 333.26 22.431 L 333.26 22.431 Q 333.26 19.566 331.968 18.028 Z  M 329.006 34.155 L 329.006 34.155 L 329.006 34.155 Q 324.805 34.155 322.388 31.484 L 322.388 31.484 L 322.388 31.484 Q 319.971 28.812 319.971 24.171 L 319.971 24.171 L 319.971 24.171 Q 319.971 19.689 322.309 16.903 L 322.309 16.903 L 322.309 16.903 Q 324.647 14.116 328.461 14.064 L 328.461 14.064 L 328.461 14.064 Q 332.047 14.064 334.148 16.516 L 334.148 16.516 L 334.148 16.516 Q 336.248 18.968 336.248 23.064 L 336.248 23.064 L 336.248 23.064 Q 336.248 23.275 336.239 23.837 L 336.239 23.837 L 336.239 23.837 Q 336.231 24.4 336.231 24.646 L 336.231 24.646 L 322.994 24.646 L 322.994 24.646 Q 323.047 27.933 324.691 29.77 L 324.691 29.77 L 324.691 29.77 Q 326.334 31.607 329.112 31.607 L 329.112 31.607 L 329.112 31.607 Q 332.17 31.607 335.246 29.989 L 335.246 29.989 L 335.703 32.362 L 335.703 32.362 Q 332.768 34.155 329.006 34.155 Z  M 343.297 33.751 L 340.326 33.751 L 340.326 14.468 L 342.787 14.468 L 343.156 17.228 L 343.156 17.228 Q 344.299 15.804 346.013 14.934 L 346.013 14.934 L 346.013 14.934 Q 347.727 14.064 349.713 14.064 L 349.713 14.064 L 349.713 14.064 Q 353.053 14.064 354.653 15.936 L 354.653 15.936 L 354.653 15.936 Q 356.252 17.808 356.252 21.693 L 356.252 21.693 L 356.252 33.751 L 353.317 33.751 L 353.317 33.751 Q 353.317 22.15 353.299 21.323 L 353.299 21.323 L 353.299 21.323 Q 353.229 18.862 352.306 17.72 L 352.306 17.72 L 352.306 17.72 Q 351.383 16.577 349.221 16.577 L 349.221 16.577 L 349.221 16.577 Q 346.953 16.577 345.442 17.667 L 345.442 17.667 L 345.442 17.667 Q 343.93 18.757 343.473 20.497 L 343.473 20.497 L 343.473 20.497 Q 343.297 21.675 343.297 23.204 L 343.297 23.204 L 343.297 33.751 L 343.297 33.751 L 343.297 33.751 Z  M 366.887 34.155 L 366.887 34.155 L 366.887 34.155 Q 364.918 34.155 363.257 33.734 L 363.257 33.734 L 363.257 33.734 Q 361.596 33.312 360.559 32.644 L 360.559 32.644 L 360.928 30.165 L 360.928 30.165 Q 363.863 31.73 366.694 31.73 L 366.694 31.73 L 366.694 31.73 Q 370.983 31.73 371.106 28.706 L 371.106 28.706 L 371.106 28.706 Q 371.106 27.423 370.192 26.685 L 370.192 26.685 L 370.192 26.685 Q 369.278 25.946 366.606 25.032 L 366.606 25.032 L 365.147 24.523 L 365.147 24.523 Q 362.615 23.679 361.534 22.431 L 361.534 22.431 L 361.534 22.431 Q 360.453 21.183 360.436 19.32 L 360.436 19.32 L 360.436 19.32 Q 360.436 17.052 362.255 15.558 L 362.255 15.558 L 362.255 15.558 Q 364.074 14.064 367.238 14.064 L 367.238 14.064 L 367.238 14.064 Q 370.508 14.064 373.197 15.329 L 373.197 15.329 L 372.336 17.579 L 372.336 17.579 Q 369.612 16.454 367.238 16.454 L 367.238 16.454 L 367.238 16.454 Q 365.393 16.454 364.347 17.184 L 364.347 17.184 L 364.347 17.184 Q 363.301 17.913 363.301 19.232 L 363.301 19.232 L 363.301 19.232 Q 363.301 20.357 364.057 20.954 L 364.057 20.954 L 364.057 20.954 Q 364.813 21.552 367.08 22.325 L 367.08 22.325 L 367.08 22.325 Q 367.66 22.536 368.539 22.818 L 368.539 22.818 L 368.539 22.818 Q 371.457 23.767 372.67 25.059 L 372.67 25.059 L 372.67 25.059 Q 373.883 26.351 373.883 28.548 L 373.883 28.548 L 373.883 28.548 Q 373.848 31.22 371.967 32.688 L 371.967 32.688 L 371.967 32.688 Q 370.086 34.155 366.887 34.155 Z  M 383.463 31.782 L 383.463 31.782 L 383.463 31.782 Q 385.555 31.782 387.146 30.631 L 387.146 30.631 L 387.146 30.631 Q 388.737 29.48 389.194 27.529 L 389.194 27.529 L 389.194 24.277 L 389.194 24.277 Q 389.106 24.277 388.13 24.364 L 388.13 24.364 L 388.13 24.364 Q 387.155 24.452 386.856 24.47 L 386.856 24.47 L 386.856 24.47 Q 383.041 24.804 381.538 25.718 L 381.538 25.718 L 381.538 25.718 Q 380.035 26.632 380.035 28.654 L 380.035 28.654 L 380.035 28.654 Q 380.035 30.2 380.949 30.991 L 380.949 30.991 L 380.949 30.991 Q 381.863 31.782 383.463 31.782 Z  M 392.129 33.751 L 389.844 33.751 L 389.844 33.751 Q 389.58 32.626 389.334 31.325 L 389.334 31.325 L 389.334 31.325 Q 387.735 32.925 386.328 33.54 L 386.328 33.54 L 386.328 33.54 Q 384.922 34.155 383.024 34.155 L 383.024 34.155 L 383.024 34.155 Q 380.317 34.155 378.673 32.74 L 378.673 32.74 L 378.673 32.74 Q 377.03 31.325 377.03 28.671 L 377.03 28.671 L 377.03 28.671 Q 377.03 25.718 379.271 24.294 L 379.271 24.294 L 379.271 24.294 Q 381.512 22.87 385.731 22.519 L 385.731 22.519 L 385.731 22.519 Q 386.311 22.466 387.48 22.369 L 387.48 22.369 L 387.48 22.369 Q 388.649 22.273 389.229 22.22 L 389.229 22.22 L 389.229 20.515 L 389.229 20.515 Q 389.229 18.476 388.28 17.491 L 388.28 17.491 L 388.28 17.491 Q 387.33 16.507 385.291 16.507 L 385.291 16.507 L 385.291 16.507 Q 382.444 16.507 379.543 17.913 L 379.543 17.913 L 379.543 17.913 Q 379.455 17.702 379.086 16.692 L 379.086 16.692 L 379.086 16.692 Q 378.717 15.681 378.699 15.646 L 378.699 15.646 L 378.699 15.646 Q 379.983 14.925 381.749 14.494 L 381.749 14.494 L 381.749 14.494 Q 383.516 14.064 385.344 14.064 L 385.344 14.064 L 385.344 14.064 Q 388.947 14.064 390.538 15.637 L 390.538 15.637 L 390.538 15.637 Q 392.129 17.21 392.129 20.989 L 392.129 20.989 L 392.129 33.751 L 392.129 33.751 L 392.129 33.751 Z  M 405.33 33.751 L 402.131 33.751 L 394.66 14.468 L 397.807 14.468 L 402.061 25.929 L 402.061 25.929 Q 402.061 25.929 403.819 30.816 L 403.819 30.816 L 403.819 30.816 Q 404.416 28.935 405.471 25.964 L 405.471 25.964 L 405.471 25.964 Q 406.807 22.22 409.619 14.468 L 409.619 14.468 L 412.748 14.468 L 405.33 33.751 L 405.33 33.751 L 405.33 33.751 Z  M 426.433 18.028 L 426.433 18.028 L 426.433 18.028 Q 425.141 16.489 422.891 16.489 L 422.891 16.489 L 422.891 16.489 Q 420.641 16.489 419.217 18.08 L 419.217 18.08 L 419.217 18.08 Q 417.793 19.671 417.547 22.431 L 417.547 22.431 L 427.725 22.431 L 427.725 22.431 Q 427.725 19.566 426.433 18.028 Z  M 423.471 34.155 L 423.471 34.155 L 423.471 34.155 Q 419.27 34.155 416.853 31.484 L 416.853 31.484 L 416.853 31.484 Q 414.436 28.812 414.436 24.171 L 414.436 24.171 L 414.436 24.171 Q 414.436 19.689 416.774 16.903 L 416.774 16.903 L 416.774 16.903 Q 419.112 14.116 422.926 14.064 L 422.926 14.064 L 422.926 14.064 Q 426.512 14.064 428.613 16.516 L 428.613 16.516 L 428.613 16.516 Q 430.713 18.968 430.713 23.064 L 430.713 23.064 L 430.713 23.064 Q 430.713 23.275 430.704 23.837 L 430.704 23.837 L 430.704 23.837 Q 430.696 24.4 430.696 24.646 L 430.696 24.646 L 417.459 24.646 L 417.459 24.646 Q 417.512 27.933 419.155 29.77 L 419.155 29.77 L 419.155 29.77 Q 420.799 31.607 423.576 31.607 L 423.576 31.607 L 423.576 31.607 Q 426.635 31.607 429.711 29.989 L 429.711 29.989 L 430.168 32.362 L 430.168 32.362 Q 427.233 34.155 423.471 34.155 Z  M 443.44 14.292 L 443.44 14.292 L 443.44 14.292 Q 444.231 14.292 444.881 14.398 L 444.881 14.398 L 444.776 17.105 L 444.776 17.105 Q 443.967 16.964 443.369 16.964 L 443.369 16.964 L 443.369 16.964 Q 440.908 16.964 439.37 18.678 L 439.37 18.678 L 439.37 18.678 Q 437.832 20.392 437.832 22.923 L 437.832 22.923 L 437.832 33.751 L 434.897 33.751 L 434.897 33.751 Q 434.879 15.997 434.879 14.468 L 434.879 14.468 L 437.322 14.468 L 437.604 17.931 L 437.604 17.931 Q 438.606 16.296 440.153 15.294 L 440.153 15.294 L 440.153 15.294 Q 441.699 14.292 443.44 14.292 Z " fill-rule="evenodd" fill="rgb(255,255,255)"/></g></g></svg>