<?xml version="1.0" standalone="no"?><!-- Generator: Gravit.io --><svg xmlns="http://www.w3.org/2000/svg" xmlns:xlink="http://www.w3.org/1999/xlink" style="isolation:isolate" viewBox="0 0 1065.236 41.119" width="1065.236" height="41.119"><defs><clipPath id="_clipPath_xmsuxrlT72nDXFS5Ti5Vc6rUBmMr5yy3"><rect width="1065.236" height="41.119"/></clipPath></defs><g clip-path="url(#_clipPath_xmsuxrlT72nDXFS5Ti5Vc6rUBmMr5yy3)"><g><path d=" M 419.469 19.708 C 419.469 8.831 428.3 0 439.178 0 C 450.055 0 458.886 8.831 458.886 19.708 C 458.886 30.585 450.055 39.416 439.178 39.416 C 428.3 39.416 419.469 30.585 419.469 19.708 Z  M 440.861 28.707 L 437.519 28.707 L 437.519 21.569 L 431.29 10.709 L 434.902 10.709 L 439.19 18.498 L 443.502 10.709 L 447.065 10.709 L 440.861 21.508 L 440.861 28.707 L 440.861 28.707 Z  M 481.72 20.992 L 481.72 32.594 L 478.679 32.594 L 478.679 6.596 L 493.11 6.596 L 492.987 9.285 L 481.72 9.285 L 481.72 18.408 L 492.46 18.408 L 492.46 20.992 L 481.72 20.992 L 481.72 20.992 Z  M 502.005 30.625 L 502.005 30.625 L 502.005 30.625 Q 504.097 30.625 505.688 29.474 L 505.688 29.474 L 505.688 29.474 Q 507.278 28.322 507.735 26.371 L 507.735 26.371 L 507.735 23.119 L 507.735 23.119 Q 507.648 23.119 506.672 23.207 L 506.672 23.207 L 506.672 23.207 Q 505.696 23.295 505.398 23.313 L 505.398 23.313 L 505.398 23.313 Q 501.583 23.647 500.08 24.561 L 500.08 24.561 L 500.08 24.561 Q 498.577 25.475 498.577 27.496 L 498.577 27.496 L 498.577 27.496 Q 498.577 29.043 499.491 29.834 L 499.491 29.834 L 499.491 29.834 Q 500.405 30.625 502.005 30.625 Z  M 510.671 32.594 L 508.386 32.594 L 508.386 32.594 Q 508.122 31.469 507.876 30.168 L 507.876 30.168 L 507.876 30.168 Q 506.276 31.768 504.87 32.383 L 504.87 32.383 L 504.87 32.383 Q 503.464 32.998 501.566 32.998 L 501.566 32.998 L 501.566 32.998 Q 498.859 32.998 497.215 31.583 L 497.215 31.583 L 497.215 31.583 Q 495.571 30.168 495.571 27.514 L 495.571 27.514 L 495.571 27.514 Q 495.571 24.561 497.813 23.137 L 497.813 23.137 L 497.813 23.137 Q 500.054 21.713 504.273 21.361 L 504.273 21.361 L 504.273 21.361 Q 504.853 21.309 506.022 21.212 L 506.022 21.212 L 506.022 21.212 Q 507.191 21.115 507.771 21.063 L 507.771 21.063 L 507.771 19.357 L 507.771 19.357 Q 507.771 17.318 506.821 16.334 L 506.821 16.334 L 506.821 16.334 Q 505.872 15.35 503.833 15.35 L 503.833 15.35 L 503.833 15.35 Q 500.985 15.35 498.085 16.756 L 498.085 16.756 L 498.085 16.756 Q 497.997 16.545 497.628 15.534 L 497.628 15.534 L 497.628 15.534 Q 497.259 14.523 497.241 14.488 L 497.241 14.488 L 497.241 14.488 Q 498.525 13.768 500.291 13.337 L 500.291 13.337 L 500.291 13.337 Q 502.058 12.906 503.886 12.906 L 503.886 12.906 L 503.886 12.906 Q 507.489 12.906 509.08 14.48 L 509.08 14.48 L 509.08 14.48 Q 510.671 16.053 510.671 19.832 L 510.671 19.832 L 510.671 32.594 L 510.671 32.594 Z  M 523.872 32.594 L 520.673 32.594 L 513.202 13.311 L 516.349 13.311 L 520.603 24.772 L 520.603 24.772 Q 520.603 24.772 522.36 29.658 L 522.36 29.658 L 522.36 29.658 Q 522.958 27.777 524.013 24.807 L 524.013 24.807 L 524.013 24.807 Q 525.349 21.063 528.161 13.311 L 528.161 13.311 L 531.29 13.311 L 523.872 32.594 L 523.872 32.594 Z  M 536.001 22.996 L 536.001 22.996 L 536.001 22.996 Q 536.001 26.424 537.522 28.489 L 537.522 28.489 L 537.522 28.489 Q 539.042 30.555 541.96 30.555 L 541.96 30.555 L 541.96 30.555 Q 544.843 30.555 546.311 28.498 L 546.311 28.498 L 546.311 28.498 Q 547.778 26.441 547.778 22.961 L 547.778 22.961 L 547.778 22.961 Q 547.778 19.428 546.328 17.398 L 546.328 17.398 L 546.328 17.398 Q 544.878 15.367 541.907 15.367 L 541.907 15.367 L 541.907 15.367 Q 539.025 15.367 537.513 17.441 L 537.513 17.441 L 537.513 17.441 Q 536.001 19.516 536.001 22.996 Z  M 550.819 22.943 L 550.819 22.943 L 550.819 22.943 Q 550.819 27.426 548.429 30.212 L 548.429 30.212 L 548.429 30.212 Q 546.038 32.998 541.819 32.998 L 541.819 32.998 L 541.819 32.998 Q 537.759 32.998 535.359 30.186 L 535.359 30.186 L 535.359 30.186 Q 532.96 27.373 532.96 22.961 L 532.96 22.961 L 532.96 22.961 Q 532.96 18.461 535.368 15.684 L 535.368 15.684 L 535.368 15.684 Q 537.776 12.906 541.978 12.906 L 541.978 12.906 L 541.978 12.906 Q 546.109 12.906 548.464 15.692 L 548.464 15.692 L 548.464 15.692 Q 550.819 18.479 550.819 22.943 Z  M 563.616 13.135 L 563.616 13.135 L 563.616 13.135 Q 564.407 13.135 565.058 13.24 L 565.058 13.24 L 564.952 15.947 L 564.952 15.947 Q 564.144 15.807 563.546 15.807 L 563.546 15.807 L 563.546 15.807 Q 561.085 15.807 559.547 17.521 L 559.547 17.521 L 559.547 17.521 Q 558.009 19.234 558.009 21.766 L 558.009 21.766 L 558.009 32.594 L 555.073 32.594 L 555.073 32.594 Q 555.056 14.84 555.056 13.311 L 555.056 13.311 L 557.499 13.311 L 557.78 16.773 L 557.78 16.773 Q 558.782 15.139 560.329 14.137 L 560.329 14.137 L 560.329 14.137 Q 561.876 13.135 563.616 13.135 Z  M 568.591 13.311 L 571.544 13.311 L 571.544 32.594 L 568.591 32.594 L 568.591 13.311 L 568.591 13.311 Z  M 568.591 6.297 L 571.544 6.297 L 571.544 9.777 L 568.591 9.777 L 568.591 6.297 L 568.591 6.297 Z  M 583.216 32.945 L 583.216 32.945 L 583.216 32.945 Q 580.368 32.945 579.173 31.557 L 579.173 31.557 L 579.173 31.557 Q 577.978 30.168 577.907 27.074 L 577.907 27.074 L 577.907 15.49 L 575.042 15.49 L 575.165 13.557 L 577.89 13.311 L 578.892 8.898 L 580.825 8.828 L 580.825 13.311 L 586.187 13.311 L 586.187 15.49 L 580.825 15.49 L 580.825 26.547 L 580.825 26.547 Q 580.825 28.744 581.493 29.641 L 581.493 29.641 L 581.493 29.641 Q 582.161 30.537 583.778 30.537 L 583.778 30.537 L 583.778 30.537 Q 584.359 30.537 586.292 30.256 L 586.292 30.256 L 586.415 32.576 L 586.415 32.576 Q 584.323 32.945 583.216 32.945 Z  M 600.662 16.87 L 600.662 16.87 L 600.662 16.87 Q 599.37 15.332 597.12 15.332 L 597.12 15.332 L 597.12 15.332 Q 594.87 15.332 593.446 16.923 L 593.446 16.923 L 593.446 16.923 Q 592.023 18.514 591.776 21.273 L 591.776 21.273 L 601.954 21.273 L 601.954 21.273 Q 601.954 18.408 600.662 16.87 Z  M 597.7 32.998 L 597.7 32.998 L 597.7 32.998 Q 593.499 32.998 591.082 30.326 L 591.082 30.326 L 591.082 30.326 Q 588.665 27.654 588.665 23.014 L 588.665 23.014 L 588.665 23.014 Q 588.665 18.531 591.003 15.745 L 591.003 15.745 L 591.003 15.745 Q 593.341 12.959 597.155 12.906 L 597.155 12.906 L 597.155 12.906 Q 600.741 12.906 602.842 15.358 L 602.842 15.358 L 602.842 15.358 Q 604.942 17.811 604.942 21.906 L 604.942 21.906 L 604.942 21.906 Q 604.942 22.117 604.934 22.68 L 604.934 22.68 L 604.934 22.68 Q 604.925 23.242 604.925 23.488 L 604.925 23.488 L 591.689 23.488 L 591.689 23.488 Q 591.741 26.775 593.385 28.612 L 593.385 28.612 L 593.385 28.612 Q 595.028 30.449 597.806 30.449 L 597.806 30.449 L 597.806 30.449 Q 600.864 30.449 603.941 28.832 L 603.941 28.832 L 604.398 31.205 L 604.398 31.205 Q 601.462 32.998 597.7 32.998 Z " fill-rule="evenodd" fill="rgb(255,255,255)"/><path d=" M 660.38 19.703 C 660.38 8.83 669.207 0.003 680.08 0.003 C 690.953 0.003 699.78 8.83 699.78 19.703 C 699.78 30.576 690.953 39.403 680.08 39.403 C 669.207 39.403 660.38 30.576 660.38 19.703 Z  M 675.39 28.698 L 671.742 28.698 L 678.042 19.488 L 672.209 10.708 L 675.954 10.708 L 680.191 17.413 L 684.55 10.708 L 688.099 10.708 L 682.143 19.537 L 688.418 28.698 L 684.575 28.698 L 680.031 21.699 L 675.39 28.698 L 675.39 28.698 Z  M 729.719 9.678 L 722.758 9.678 L 722.758 18.467 L 722.758 18.467 Q 723.479 18.467 725.738 18.502 L 725.738 18.502 L 725.738 18.502 Q 727.996 18.537 729.227 18.537 L 729.227 18.537 L 729.227 18.537 Q 732.584 18.537 733.903 17.421 L 733.903 17.421 L 733.903 17.421 Q 735.221 16.305 735.221 13.879 L 735.221 13.879 L 735.221 13.879 Q 735.221 11.752 733.955 10.715 L 733.955 10.715 L 733.955 10.715 Q 732.69 9.678 729.719 9.678 L 729.719 9.678 L 729.719 9.678 Z  M 735.168 24.074 L 739.422 33.25 L 735.907 33.25 L 732.321 25.094 L 732.321 25.094 Q 730.862 21.807 730.457 21.139 L 730.457 21.139 L 730.457 21.139 Q 729.174 21.227 727.416 21.227 L 727.416 21.227 L 722.758 21.086 L 722.758 33.25 L 719.647 33.25 L 719.647 6.953 L 727.961 6.953 L 727.961 6.953 Q 729.403 6.953 730.51 7.024 L 730.51 7.024 L 730.51 7.024 Q 731.618 7.094 732.716 7.279 L 732.716 7.279 L 732.716 7.279 Q 733.815 7.463 734.623 7.788 L 734.623 7.788 L 734.623 7.788 Q 735.432 8.114 736.135 8.632 L 736.135 8.632 L 736.135 8.632 Q 736.838 9.151 737.269 9.871 L 737.269 9.871 L 737.269 9.871 Q 737.7 10.592 737.946 11.585 L 737.946 11.585 L 737.946 11.585 Q 738.192 12.578 738.192 13.826 L 738.192 13.826 L 738.192 13.826 Q 738.192 16.287 736.9 18.063 L 736.9 18.063 L 736.9 18.063 Q 735.608 19.838 733.235 20.524 L 733.235 20.524 L 733.235 20.524 Q 733.235 20.559 733.586 21.157 L 733.586 21.157 L 733.586 21.157 Q 733.938 21.754 734.421 22.624 L 734.421 22.624 L 734.421 22.624 Q 734.905 23.494 735.168 24.074 L 735.168 24.074 L 735.168 24.074 Z  M 748.686 31.282 L 748.686 31.282 L 748.686 31.282 Q 750.778 31.282 752.369 30.13 L 752.369 30.13 L 752.369 30.13 Q 753.959 28.979 754.416 27.028 L 754.416 27.028 L 754.416 23.776 L 754.416 23.776 Q 754.329 23.776 753.353 23.864 L 753.353 23.864 L 753.353 23.864 Q 752.377 23.951 752.079 23.969 L 752.079 23.969 L 752.079 23.969 Q 748.264 24.303 746.761 25.217 L 746.761 25.217 L 746.761 25.217 Q 745.258 26.131 745.258 28.153 L 745.258 28.153 L 745.258 28.153 Q 745.258 29.699 746.172 30.491 L 746.172 30.491 L 746.172 30.491 Q 747.086 31.282 748.686 31.282 Z  M 757.352 33.25 L 755.067 33.25 L 755.067 33.25 Q 754.803 32.125 754.557 30.824 L 754.557 30.824 L 754.557 30.824 Q 752.957 32.424 751.551 33.039 L 751.551 33.039 L 751.551 33.039 Q 750.145 33.655 748.246 33.655 L 748.246 33.655 L 748.246 33.655 Q 745.539 33.655 743.896 32.24 L 743.896 32.24 L 743.896 32.24 Q 742.252 30.824 742.252 28.17 L 742.252 28.17 L 742.252 28.17 Q 742.252 25.217 744.494 23.793 L 744.494 23.793 L 744.494 23.793 Q 746.735 22.369 750.954 22.018 L 750.954 22.018 L 750.954 22.018 Q 751.534 21.965 752.703 21.868 L 752.703 21.868 L 752.703 21.868 Q 753.871 21.772 754.452 21.719 L 754.452 21.719 L 754.452 20.014 L 754.452 20.014 Q 754.452 17.975 753.502 16.991 L 753.502 16.991 L 753.502 16.991 Q 752.553 16.006 750.514 16.006 L 750.514 16.006 L 750.514 16.006 Q 747.666 16.006 744.766 17.412 L 744.766 17.412 L 744.766 17.412 Q 744.678 17.201 744.309 16.191 L 744.309 16.191 L 744.309 16.191 Q 743.94 15.18 743.922 15.145 L 743.922 15.145 L 743.922 15.145 Q 745.205 14.424 746.972 13.993 L 746.972 13.993 L 746.972 13.993 Q 748.739 13.563 750.567 13.563 L 750.567 13.563 L 750.567 13.563 Q 754.17 13.563 755.761 15.136 L 755.761 15.136 L 755.761 15.136 Q 757.352 16.709 757.352 20.489 L 757.352 20.489 L 757.352 33.25 L 757.352 33.25 Z  M 765.385 33.25 L 762.414 33.25 L 762.414 13.967 L 764.875 13.967 L 765.245 16.727 L 765.245 16.727 Q 766.387 15.303 768.101 14.433 L 768.101 14.433 L 768.101 14.433 Q 769.815 13.563 771.801 13.563 L 771.801 13.563 L 771.801 13.563 Q 775.141 13.563 776.741 15.435 L 776.741 15.435 L 776.741 15.435 Q 778.34 17.307 778.34 21.192 L 778.34 21.192 L 778.34 33.25 L 775.405 33.25 L 775.405 33.25 Q 775.405 21.649 775.387 20.823 L 775.387 20.823 L 775.387 20.823 Q 775.317 18.362 774.394 17.219 L 774.394 17.219 L 774.394 17.219 Q 773.471 16.076 771.309 16.076 L 771.309 16.076 L 771.309 16.076 Q 769.041 16.076 767.53 17.166 L 767.53 17.166 L 767.53 17.166 Q 766.018 18.256 765.561 19.996 L 765.561 19.996 L 765.561 19.996 Q 765.385 21.174 765.385 22.703 L 765.385 22.703 L 765.385 33.25 L 765.385 33.25 Z  M 790.75 31.123 L 790.75 31.123 L 790.75 31.123 Q 793.651 31.123 795.066 29.26 L 795.066 29.26 L 795.066 29.26 Q 796.481 27.397 796.481 23.934 L 796.481 23.934 L 796.481 23.934 Q 796.481 20.032 795.119 18.054 L 795.119 18.054 L 795.119 18.054 Q 793.756 16.076 790.715 16.076 L 790.715 16.076 L 790.715 16.076 Q 789.362 16.076 788.325 16.657 L 788.325 16.657 L 788.325 16.657 Q 787.288 17.237 786.655 18.274 L 786.655 18.274 L 786.655 18.274 Q 786.022 19.311 785.697 20.656 L 785.697 20.656 L 785.697 20.656 Q 785.371 22 785.371 23.6 L 785.371 23.6 L 785.371 23.6 Q 785.371 25.85 785.925 27.502 L 785.925 27.502 L 785.925 27.502 Q 786.479 29.155 787.709 30.139 L 787.709 30.139 L 787.709 30.139 Q 788.94 31.123 790.75 31.123 Z  M 796.92 33.25 L 796.534 30.455 L 796.534 30.455 Q 795.584 31.914 794.002 32.776 L 794.002 32.776 L 794.002 32.776 Q 792.42 33.637 790.469 33.637 L 790.469 33.637 L 790.469 33.637 Q 786.655 33.637 784.493 30.921 L 784.493 30.921 L 784.493 30.921 Q 782.33 28.205 782.33 23.53 L 782.33 23.53 L 782.33 23.53 Q 782.33 19.065 784.528 16.314 L 784.528 16.314 L 784.528 16.314 Q 786.725 13.563 790.416 13.563 L 790.416 13.563 L 790.416 13.563 Q 792.332 13.563 794.029 14.398 L 794.029 14.398 L 794.029 14.398 Q 795.725 15.233 796.569 16.639 L 796.569 16.639 L 796.516 14.969 L 796.516 6.479 L 799.416 6.303 L 799.416 33.25 L 796.92 33.25 L 796.92 33.25 Z  M 806.659 23.653 L 806.659 23.653 L 806.659 23.653 Q 806.659 27.08 808.179 29.146 L 808.179 29.146 L 808.179 29.146 Q 809.7 31.211 812.618 31.211 L 812.618 31.211 L 812.618 31.211 Q 815.5 31.211 816.968 29.155 L 816.968 29.155 L 816.968 29.155 Q 818.436 27.098 818.436 23.617 L 818.436 23.617 L 818.436 23.617 Q 818.436 20.084 816.986 18.054 L 816.986 18.054 L 816.986 18.054 Q 815.536 16.024 812.565 16.024 L 812.565 16.024 L 812.565 16.024 Q 809.682 16.024 808.17 18.098 L 808.17 18.098 L 808.17 18.098 Q 806.659 20.172 806.659 23.653 Z  M 821.477 23.6 L 821.477 23.6 L 821.477 23.6 Q 821.477 28.082 819.086 30.868 L 819.086 30.868 L 819.086 30.868 Q 816.696 33.655 812.477 33.655 L 812.477 33.655 L 812.477 33.655 Q 808.416 33.655 806.017 30.842 L 806.017 30.842 L 806.017 30.842 Q 803.618 28.03 803.618 23.617 L 803.618 23.617 L 803.618 23.617 Q 803.618 19.117 806.026 16.34 L 806.026 16.34 L 806.026 16.34 Q 808.434 13.563 812.635 13.563 L 812.635 13.563 L 812.635 13.563 Q 816.766 13.563 819.121 16.349 L 819.121 16.349 L 819.121 16.349 Q 821.477 19.135 821.477 23.6 Z  M 853.047 33.25 L 850.112 33.25 L 850.112 23.213 L 850.112 23.213 Q 850.112 21.807 850.05 20.858 L 850.05 20.858 L 850.05 20.858 Q 849.989 19.908 849.769 18.924 L 849.769 18.924 L 849.769 18.924 Q 849.549 17.94 849.154 17.368 L 849.154 17.368 L 849.154 17.368 Q 848.758 16.797 848.055 16.437 L 848.055 16.437 L 848.055 16.437 Q 847.352 16.076 846.368 16.076 L 846.368 16.076 L 846.368 16.076 Q 844.434 16.076 843.072 17.114 L 843.072 17.114 L 843.072 17.114 Q 841.709 18.151 841.129 20.032 L 841.129 20.032 L 841.129 20.032 Q 840.971 21.297 840.971 22.739 L 840.971 22.739 L 840.971 33.25 L 838.036 33.25 L 838.036 22.897 L 838.036 22.897 Q 838.036 21.596 837.948 20.638 L 837.948 20.638 L 837.948 20.638 Q 837.86 19.68 837.614 18.775 L 837.614 18.775 L 837.614 18.775 Q 837.368 17.869 836.954 17.307 L 836.954 17.307 L 836.954 17.307 Q 836.541 16.744 835.856 16.41 L 835.856 16.41 L 835.856 16.41 Q 835.17 16.076 834.221 16.076 L 834.221 16.076 L 834.221 16.076 Q 832.112 16.076 830.679 17.149 L 830.679 17.149 L 830.679 17.149 Q 829.246 18.221 828.754 19.996 L 828.754 19.996 L 828.754 19.996 Q 828.596 21.35 828.596 22.932 L 828.596 22.932 L 828.596 33.25 L 825.661 33.25 L 825.661 33.25 Q 825.625 15.162 825.625 13.967 L 825.625 13.967 L 828.086 13.967 L 828.455 16.727 L 828.455 16.727 Q 829.334 15.391 830.952 14.477 L 830.952 14.477 L 830.952 14.477 Q 832.569 13.563 834.625 13.563 L 834.625 13.563 L 834.625 13.563 Q 835.698 13.563 836.603 13.782 L 836.603 13.782 L 836.603 13.782 Q 837.508 14.002 838.115 14.336 L 838.115 14.336 L 838.115 14.336 Q 838.721 14.67 839.196 15.136 L 839.196 15.136 L 839.196 15.136 Q 839.67 15.602 839.934 16.05 L 839.934 16.05 L 839.934 16.05 Q 840.198 16.498 840.373 16.991 L 840.373 16.991 L 840.373 16.991 Q 842.483 13.563 846.825 13.563 L 846.825 13.563 L 846.825 13.563 Q 850.041 13.563 851.544 15.4 L 851.544 15.4 L 851.544 15.4 Q 853.047 17.237 853.047 20.84 L 853.047 20.84 L 853.047 33.25 L 853.047 33.25 Z " fill-rule="evenodd" fill="rgb(255,255,255)"/><path d=" M 908.485 19.703 C 908.485 8.83 917.312 0.003 928.185 0.003 C 939.058 0.003 947.885 8.83 947.885 19.703 C 947.885 30.576 939.058 39.403 928.185 39.403 C 917.312 39.403 908.485 30.576 908.485 19.703 Z  M 923.279 28.704 L 919.804 28.704 L 926.423 10.702 L 930.045 10.702 L 936.566 28.704 L 933.152 28.704 L 931.372 23.62 L 925.072 23.62 L 923.279 28.704 L 923.279 28.704 Z  M 928.252 13.821 L 925.907 21.14 L 930.524 21.14 L 930.524 21.14 Q 928.314 14.055 928.252 13.821 L 928.252 13.821 L 928.252 13.821 Z  M 967.485 31.492 L 968.399 28.961 L 968.399 28.961 Q 972.46 30.965 977.1 30.965 L 977.1 30.965 L 977.1 30.965 Q 982.813 30.965 982.813 25.762 L 982.813 25.762 L 982.813 25.762 Q 982.813 24.074 981.908 23.029 L 981.908 23.029 L 981.908 23.029 Q 981.003 21.983 978.612 21.385 L 978.612 21.385 L 973.444 20.084 L 973.444 20.084 Q 967.52 18.59 967.52 13.756 L 967.52 13.756 L 967.52 13.756 Q 967.52 10.047 970.069 8.245 L 970.069 8.245 L 970.069 8.245 Q 972.618 6.444 977.118 6.444 L 977.118 6.444 L 977.118 6.444 Q 979.473 6.444 981.53 6.953 L 981.53 6.953 L 981.53 6.953 Q 983.587 7.463 984.975 8.324 L 984.975 8.324 L 984.096 10.803 L 984.096 10.803 Q 982.919 10.153 980.976 9.643 L 980.976 9.643 L 980.976 9.643 Q 979.034 9.133 977.047 9.133 L 977.047 9.133 L 977.047 9.133 Q 970.684 9.133 970.684 13.545 L 970.684 13.545 L 970.684 13.545 Q 970.684 15.039 971.66 15.945 L 971.66 15.945 L 971.66 15.945 Q 972.635 16.85 974.587 17.324 L 974.587 17.324 L 979.526 18.52 L 979.526 18.52 Q 982.69 19.276 984.325 20.937 L 984.325 20.937 L 984.325 20.937 Q 985.96 22.598 985.96 25.657 L 985.96 25.657 L 985.96 25.657 Q 985.96 29.629 983.525 31.642 L 983.525 31.642 L 983.525 31.642 Q 981.09 33.655 976.907 33.655 L 976.907 33.655 L 976.907 33.655 Q 973.778 33.655 971.343 33.013 L 971.343 33.013 L 971.343 33.013 Q 968.909 32.371 967.485 31.492 L 967.485 31.492 L 967.485 31.492 Z  M 1001.033 17.527 L 1001.033 17.527 L 1001.033 17.527 Q 999.741 15.989 997.491 15.989 L 997.491 15.989 L 997.491 15.989 Q 995.241 15.989 993.817 17.579 L 993.817 17.579 L 993.817 17.579 Q 992.393 19.17 992.147 21.93 L 992.147 21.93 L 1002.325 21.93 L 1002.325 21.93 Q 1002.325 19.065 1001.033 17.527 Z  M 998.071 33.655 L 998.071 33.655 L 998.071 33.655 Q 993.87 33.655 991.453 30.983 L 991.453 30.983 L 991.453 30.983 Q 989.036 28.311 989.036 23.67 L 989.036 23.67 L 989.036 23.67 Q 989.036 19.188 991.374 16.402 L 991.374 16.402 L 991.374 16.402 Q 993.712 13.616 997.526 13.563 L 997.526 13.563 L 997.526 13.563 Q 1001.112 13.563 1003.213 16.015 L 1003.213 16.015 L 1003.213 16.015 Q 1005.313 18.467 1005.313 22.563 L 1005.313 22.563 L 1005.313 22.563 Q 1005.313 22.774 1005.304 23.336 L 1005.304 23.336 L 1005.304 23.336 Q 1005.296 23.899 1005.296 24.145 L 1005.296 24.145 L 992.059 24.145 L 992.059 24.145 Q 992.112 27.432 993.755 29.269 L 993.755 29.269 L 993.755 29.269 Q 995.399 31.106 998.176 31.106 L 998.176 31.106 L 998.176 31.106 Q 1001.235 31.106 1004.311 29.489 L 1004.311 29.489 L 1004.768 31.862 L 1004.768 31.862 Q 1001.833 33.655 998.071 33.655 Z  M 1014.577 33.602 L 1014.577 33.602 L 1014.577 33.602 Q 1011.764 33.602 1010.595 32.09 L 1010.595 32.09 L 1010.595 32.09 Q 1009.426 30.578 1009.426 26.834 L 1009.426 26.834 L 1009.426 6.479 L 1012.344 6.303 L 1012.344 25.674 L 1012.344 25.674 Q 1012.344 26.869 1012.371 27.59 L 1012.371 27.59 L 1012.371 27.59 Q 1012.397 28.311 1012.503 29.005 L 1012.503 29.005 L 1012.503 29.005 Q 1012.608 29.699 1012.784 30.051 L 1012.784 30.051 L 1012.784 30.051 Q 1012.96 30.403 1013.294 30.693 L 1013.294 30.693 L 1013.294 30.693 Q 1013.628 30.983 1014.093 31.079 L 1014.093 31.079 L 1014.093 31.079 Q 1014.559 31.176 1015.245 31.176 L 1015.245 31.176 L 1015.245 31.176 Q 1015.807 31.176 1017.46 30.965 L 1017.46 30.965 L 1017.618 33.303 L 1017.618 33.303 Q 1015.807 33.602 1014.577 33.602 Z  M 1030.511 17.527 L 1030.511 17.527 L 1030.511 17.527 Q 1029.219 15.989 1026.969 15.989 L 1026.969 15.989 L 1026.969 15.989 Q 1024.719 15.989 1023.296 17.579 L 1023.296 17.579 L 1023.296 17.579 Q 1021.872 19.17 1021.626 21.93 L 1021.626 21.93 L 1031.803 21.93 L 1031.803 21.93 Q 1031.803 19.065 1030.511 17.527 Z  M 1027.549 33.655 L 1027.549 33.655 L 1027.549 33.655 Q 1023.348 33.655 1020.931 30.983 L 1020.931 30.983 L 1020.931 30.983 Q 1018.514 28.311 1018.514 23.67 L 1018.514 23.67 L 1018.514 23.67 Q 1018.514 19.188 1020.852 16.402 L 1020.852 16.402 L 1020.852 16.402 Q 1023.19 13.616 1027.005 13.563 L 1027.005 13.563 L 1027.005 13.563 Q 1030.59 13.563 1032.691 16.015 L 1032.691 16.015 L 1032.691 16.015 Q 1034.792 18.467 1034.792 22.563 L 1034.792 22.563 L 1034.792 22.563 Q 1034.792 22.774 1034.783 23.336 L 1034.783 23.336 L 1034.783 23.336 Q 1034.774 23.899 1034.774 24.145 L 1034.774 24.145 L 1021.538 24.145 L 1021.538 24.145 Q 1021.59 27.432 1023.234 29.269 L 1023.234 29.269 L 1023.234 29.269 Q 1024.878 31.106 1027.655 31.106 L 1027.655 31.106 L 1027.655 31.106 Q 1030.713 31.106 1033.79 29.489 L 1033.79 29.489 L 1034.247 31.862 L 1034.247 31.862 Q 1031.311 33.655 1027.549 33.655 Z  M 1047.026 33.655 L 1047.026 33.655 L 1047.026 33.655 Q 1042.772 33.655 1040.373 30.895 L 1040.373 30.895 L 1040.373 30.895 Q 1037.973 28.135 1037.973 23.67 L 1037.973 23.67 L 1037.973 23.67 Q 1037.991 19.17 1040.425 16.366 L 1040.425 16.366 L 1040.425 16.366 Q 1042.86 13.563 1047.096 13.563 L 1047.096 13.563 L 1047.096 13.563 Q 1048.59 13.563 1049.988 13.932 L 1049.988 13.932 L 1049.988 13.932 Q 1051.385 14.301 1052.194 14.899 L 1052.194 14.899 L 1051.385 17.184 L 1051.385 17.184 Q 1049.329 16.076 1047.044 16.076 L 1047.044 16.076 L 1047.044 16.076 Q 1044.249 16.076 1042.623 18.116 L 1042.623 18.116 L 1042.623 18.116 Q 1040.997 20.155 1040.997 23.688 L 1040.997 23.688 L 1040.997 23.688 Q 1040.997 27.133 1042.605 29.146 L 1042.605 29.146 L 1042.605 29.146 Q 1044.213 31.158 1047.061 31.158 L 1047.061 31.158 L 1047.061 31.158 Q 1049.329 31.158 1051.702 29.928 L 1051.702 29.928 L 1052.071 32.266 L 1052.071 32.266 Q 1050.155 33.655 1047.026 33.655 Z  M 1062.038 33.602 L 1062.038 33.602 L 1062.038 33.602 Q 1059.19 33.602 1057.995 32.213 L 1057.995 32.213 L 1057.995 32.213 Q 1056.799 30.824 1056.729 27.731 L 1056.729 27.731 L 1056.729 16.147 L 1053.864 16.147 L 1053.987 14.213 L 1056.712 13.967 L 1057.713 9.555 L 1059.647 9.485 L 1059.647 13.967 L 1065.008 13.967 L 1065.008 16.147 L 1059.647 16.147 L 1059.647 27.203 L 1059.647 27.203 Q 1059.647 29.401 1060.315 30.297 L 1060.315 30.297 L 1060.315 30.297 Q 1060.983 31.194 1062.6 31.194 L 1062.6 31.194 L 1062.6 31.194 Q 1063.18 31.194 1065.114 30.912 L 1065.114 30.912 L 1065.237 33.233 L 1065.237 33.233 Q 1063.145 33.602 1062.038 33.602 Z " fill-rule="evenodd" fill="rgb(255,255,255)"/><path d=" M 236.304 19.503 L 256.554 19.503 C 259.348 19.503 261.617 21.771 261.617 24.566 L 261.617 24.566 C 261.617 27.36 259.348 29.628 256.554 29.628 L 236.304 29.628 C 233.51 29.628 231.242 27.36 231.242 24.566 L 231.242 24.566 C 231.242 21.771 233.51 19.503 236.304 19.503 Z  M 291.75 30.695 L 288.779 30.695 L 280.799 12.133 L 280.131 10.357 L 280.254 16.721 L 280.254 32.295 L 277.406 32.295 L 277.406 6.297 L 281.344 6.297 L 290.397 27.004 L 299.362 6.297 L 303.194 6.297 L 303.194 32.295 L 300.24 32.295 L 300.24 16.65 L 300.363 10.428 L 299.713 12.203 L 291.75 30.695 L 291.75 30.695 Z  M 319.902 16.571 L 319.902 16.571 L 319.902 16.571 Q 318.61 15.033 316.36 15.033 L 316.36 15.033 L 316.36 15.033 Q 314.11 15.033 312.686 16.624 L 312.686 16.624 L 312.686 16.624 Q 311.262 18.215 311.016 20.975 L 311.016 20.975 L 321.194 20.975 L 321.194 20.975 Q 321.194 18.109 319.902 16.571 Z  M 316.94 32.699 L 316.94 32.699 L 316.94 32.699 Q 312.738 32.699 310.321 30.027 L 310.321 30.027 L 310.321 30.027 Q 307.904 27.356 307.904 22.715 L 307.904 22.715 L 307.904 22.715 Q 307.904 18.232 310.242 15.446 L 310.242 15.446 L 310.242 15.446 Q 312.58 12.66 316.395 12.607 L 316.395 12.607 L 316.395 12.607 Q 319.981 12.607 322.081 15.06 L 322.081 15.06 L 322.081 15.06 Q 324.182 17.512 324.182 21.607 L 324.182 21.607 L 324.182 21.607 Q 324.182 21.818 324.173 22.381 L 324.173 22.381 L 324.173 22.381 Q 324.164 22.943 324.164 23.19 L 324.164 23.19 L 310.928 23.19 L 310.928 23.19 Q 310.981 26.477 312.624 28.314 L 312.624 28.314 L 312.624 28.314 Q 314.268 30.15 317.045 30.15 L 317.045 30.15 L 317.045 30.15 Q 320.104 30.15 323.18 28.533 L 323.18 28.533 L 323.637 30.906 L 323.637 30.906 Q 320.701 32.699 316.94 32.699 Z  M 331.231 32.295 L 328.26 32.295 L 328.26 13.012 L 330.721 13.012 L 331.09 15.772 L 331.09 15.772 Q 332.233 14.348 333.946 13.478 L 333.946 13.478 L 333.946 13.478 Q 335.66 12.607 337.647 12.607 L 337.647 12.607 L 337.647 12.607 Q 340.987 12.607 342.586 14.48 L 342.586 14.48 L 342.586 14.48 Q 344.186 16.352 344.186 20.236 L 344.186 20.236 L 344.186 32.295 L 341.25 32.295 L 341.25 32.295 Q 341.25 20.693 341.233 19.867 L 341.233 19.867 L 341.233 19.867 Q 341.162 17.406 340.239 16.264 L 340.239 16.264 L 340.239 16.264 Q 339.317 15.121 337.154 15.121 L 337.154 15.121 L 337.154 15.121 Q 334.887 15.121 333.375 16.211 L 333.375 16.211 L 333.375 16.211 Q 331.863 17.301 331.406 19.041 L 331.406 19.041 L 331.406 19.041 Q 331.231 20.219 331.231 21.748 L 331.231 21.748 L 331.231 32.295 L 331.231 32.295 Z  M 348.404 25.861 L 348.404 25.861 L 348.404 13.012 L 351.358 13.012 L 351.358 25.897 L 351.358 25.897 Q 351.358 27.162 351.718 28.041 L 351.718 28.041 L 351.718 28.041 Q 352.078 28.92 352.755 29.403 L 352.755 29.403 L 352.755 29.403 Q 353.432 29.887 354.284 30.098 L 354.284 30.098 L 354.284 30.098 Q 355.137 30.309 356.244 30.309 L 356.244 30.309 L 356.244 30.309 Q 358.529 30.309 359.804 29.307 L 359.804 29.307 L 359.804 29.307 Q 361.078 28.305 361.078 25.897 L 361.078 25.897 L 361.078 13.012 L 364.031 13.012 L 364.031 25.861 L 364.031 25.861 Q 364.031 27.338 363.61 28.516 L 363.61 28.516 L 363.61 28.516 Q 363.188 29.693 362.476 30.476 L 362.476 30.476 L 362.476 30.476 Q 361.764 31.258 360.762 31.768 L 360.762 31.768 L 360.762 31.768 Q 359.76 32.277 358.644 32.506 L 358.644 32.506 L 358.644 32.506 Q 357.528 32.734 356.244 32.734 L 356.244 32.734 L 356.244 32.734 Q 354.979 32.734 353.854 32.506 L 353.854 32.506 L 353.854 32.506 Q 352.729 32.277 351.718 31.759 L 351.718 31.759 L 351.718 31.759 Q 350.707 31.24 349.978 30.458 L 349.978 30.458 L 349.978 30.458 Q 349.248 29.676 348.826 28.498 L 348.826 28.498 L 348.826 28.498 Q 348.404 27.32 348.404 25.861 Z  M 232.585 14.948 L 232.915 14.034 L 232.915 14.034 Q 234.382 14.758 236.057 14.758 L 236.057 14.758 L 236.057 14.758 Q 238.12 14.758 238.12 12.879 L 238.12 12.879 L 238.12 12.879 Q 238.12 12.27 237.793 11.892 L 237.793 11.892 L 237.793 11.892 Q 237.466 11.514 236.603 11.299 L 236.603 11.299 L 234.737 10.829 L 234.737 10.829 Q 232.598 10.289 232.598 8.544 L 232.598 8.544 L 232.598 8.544 Q 232.598 7.204 233.518 6.554 L 233.518 6.554 L 233.518 6.554 Q 234.439 5.903 236.064 5.903 L 236.064 5.903 L 236.064 5.903 Q 236.914 5.903 237.657 6.087 L 237.657 6.087 L 237.657 6.087 Q 238.4 6.271 238.901 6.582 L 238.901 6.582 L 238.584 7.477 L 238.584 7.477 Q 238.158 7.242 237.457 7.058 L 237.457 7.058 L 237.457 7.058 Q 236.756 6.874 236.038 6.874 L 236.038 6.874 L 236.038 6.874 Q 233.74 6.874 233.74 8.467 L 233.74 8.467 L 233.74 8.467 Q 233.74 9.007 234.093 9.334 L 234.093 9.334 L 234.093 9.334 Q 234.445 9.661 235.15 9.832 L 235.15 9.832 L 236.933 10.264 L 236.933 10.264 Q 238.076 10.537 238.666 11.137 L 238.666 11.137 L 238.666 11.137 Q 239.257 11.736 239.257 12.841 L 239.257 12.841 L 239.257 12.841 Q 239.257 14.276 238.377 15.002 L 238.377 15.002 L 238.377 15.002 Q 237.498 15.729 235.987 15.729 L 235.987 15.729 L 235.987 15.729 Q 234.858 15.729 233.978 15.497 L 233.978 15.497 L 233.978 15.497 Q 233.099 15.266 232.585 14.948 L 232.585 14.948 L 232.585 14.948 Z  M 242.906 15.71 L 242.906 15.71 L 242.906 15.71 Q 241.878 15.71 241.446 15.209 L 241.446 15.209 L 241.446 15.209 Q 241.015 14.707 240.989 13.59 L 240.989 13.59 L 240.989 9.407 L 239.955 9.407 L 239.999 8.709 L 240.983 8.62 L 241.345 7.027 L 242.043 7.001 L 242.043 8.62 L 243.979 8.62 L 243.979 9.407 L 242.043 9.407 L 242.043 13.4 L 242.043 13.4 Q 242.043 14.193 242.284 14.517 L 242.284 14.517 L 242.284 14.517 Q 242.526 14.84 243.11 14.84 L 243.11 14.84 L 243.11 14.84 Q 243.319 14.84 244.017 14.739 L 244.017 14.739 L 244.062 15.577 L 244.062 15.577 Q 243.306 15.71 242.906 15.71 Z  M 247.204 14.872 L 247.204 14.872 L 247.204 14.872 Q 247.959 14.872 248.534 14.456 L 248.534 14.456 L 248.534 14.456 Q 249.108 14.041 249.273 13.336 L 249.273 13.336 L 249.273 12.162 L 249.273 12.162 Q 249.241 12.162 248.889 12.194 L 248.889 12.194 L 248.889 12.194 Q 248.537 12.225 248.429 12.232 L 248.429 12.232 L 248.429 12.232 Q 247.051 12.352 246.509 12.682 L 246.509 12.682 L 246.509 12.682 Q 245.966 13.012 245.966 13.742 L 245.966 13.742 L 245.966 13.742 Q 245.966 14.301 246.296 14.587 L 246.296 14.587 L 246.296 14.587 Q 246.626 14.872 247.204 14.872 Z  M 250.333 15.583 L 249.508 15.583 L 249.508 15.583 Q 249.413 15.177 249.324 14.707 L 249.324 14.707 L 249.324 14.707 Q 248.746 15.285 248.238 15.507 L 248.238 15.507 L 248.238 15.507 Q 247.731 15.729 247.045 15.729 L 247.045 15.729 L 247.045 15.729 Q 246.068 15.729 245.474 15.218 L 245.474 15.218 L 245.474 15.218 Q 244.881 14.707 244.881 13.749 L 244.881 13.749 L 244.881 13.749 Q 244.881 12.682 245.69 12.168 L 245.69 12.168 L 245.69 12.168 Q 246.499 11.654 248.023 11.527 L 248.023 11.527 L 248.023 11.527 Q 248.232 11.508 248.654 11.473 L 248.654 11.473 L 248.654 11.473 Q 249.076 11.438 249.286 11.419 L 249.286 11.419 L 249.286 10.803 L 249.286 10.803 Q 249.286 10.067 248.943 9.712 L 248.943 9.712 L 248.943 9.712 Q 248.6 9.356 247.864 9.356 L 247.864 9.356 L 247.864 9.356 Q 246.836 9.356 245.788 9.864 L 245.788 9.864 L 245.788 9.864 Q 245.757 9.788 245.623 9.423 L 245.623 9.423 L 245.623 9.423 Q 245.49 9.058 245.484 9.045 L 245.484 9.045 L 245.484 9.045 Q 245.947 8.785 246.585 8.629 L 246.585 8.629 L 246.585 8.629 Q 247.223 8.474 247.883 8.474 L 247.883 8.474 L 247.883 8.474 Q 249.184 8.474 249.759 9.042 L 249.759 9.042 L 249.759 9.042 Q 250.333 9.61 250.333 10.975 L 250.333 10.975 L 250.333 15.583 L 250.333 15.583 Z  M 255.284 8.556 L 255.284 8.556 L 255.284 8.556 Q 255.57 8.556 255.805 8.594 L 255.805 8.594 L 255.767 9.572 L 255.767 9.572 Q 255.475 9.521 255.259 9.521 L 255.259 9.521 L 255.259 9.521 Q 254.37 9.521 253.815 10.14 L 253.815 10.14 L 253.815 10.14 Q 253.259 10.759 253.259 11.673 L 253.259 11.673 L 253.259 15.583 L 252.199 15.583 L 252.199 15.583 Q 252.193 9.172 252.193 8.62 L 252.193 8.62 L 253.075 8.62 L 253.177 9.87 L 253.177 9.87 Q 253.539 9.28 254.097 8.918 L 254.097 8.918 L 254.097 8.918 Q 254.656 8.556 255.284 8.556 Z  M 259.118 15.71 L 259.118 15.71 L 259.118 15.71 Q 258.09 15.71 257.658 15.209 L 257.658 15.209 L 257.658 15.209 Q 257.227 14.707 257.201 13.59 L 257.201 13.59 L 257.201 9.407 L 256.167 9.407 L 256.211 8.709 L 257.195 8.62 L 257.557 7.027 L 258.255 7.001 L 258.255 8.62 L 260.191 8.62 L 260.191 9.407 L 258.255 9.407 L 258.255 13.4 L 258.255 13.4 Q 258.255 14.193 258.496 14.517 L 258.496 14.517 L 258.496 14.517 Q 258.737 14.84 259.321 14.84 L 259.321 14.84 L 259.321 14.84 Q 259.531 14.84 260.229 14.739 L 260.229 14.739 L 260.274 15.577 L 260.274 15.577 Q 259.518 15.71 259.118 15.71 Z " fill-rule="evenodd" fill="rgb(255,255,255)"/><path d=" M 7.525 19.504 L 27.775 19.504 C 30.569 19.504 32.838 21.773 32.838 24.567 L 32.838 24.567 C 32.838 27.361 30.569 29.629 27.775 29.629 L 7.525 29.629 C 4.731 29.629 2.463 27.361 2.463 24.567 L 2.463 24.567 C 2.463 21.773 4.731 19.504 7.525 19.504 Z  M 52.013 19.762 L 52.013 19.762 L 52.013 19.762 Q 52.013 24.772 54.316 27.628 L 54.316 27.628 L 54.316 27.628 Q 56.619 30.484 61.119 30.484 L 61.119 30.484 L 61.119 30.484 Q 65.619 30.484 67.895 27.637 L 67.895 27.637 L 67.895 27.637 Q 70.171 24.789 70.171 19.762 L 70.171 19.762 L 70.171 19.762 Q 70.171 14.629 67.877 11.799 L 67.877 11.799 L 67.877 11.799 Q 65.583 8.969 61.136 8.969 L 61.136 8.969 L 61.136 8.969 Q 56.689 8.969 54.351 11.799 L 54.351 11.799 L 54.351 11.799 Q 52.013 14.629 52.013 19.762 Z  M 73.423 19.762 L 73.423 19.762 L 73.423 19.762 Q 73.423 22.732 72.606 25.193 L 72.606 25.193 L 72.606 25.193 Q 71.789 27.654 70.25 29.421 L 70.25 29.421 L 70.25 29.421 Q 68.712 31.188 66.374 32.163 L 66.374 32.163 L 66.374 32.163 Q 64.037 33.139 61.119 33.139 L 61.119 33.139 L 61.119 33.139 Q 57.181 33.139 54.377 31.46 L 54.377 31.46 L 54.377 31.46 Q 51.574 29.781 50.176 26.784 L 50.176 26.784 L 50.176 26.784 Q 48.779 23.787 48.779 19.744 L 48.779 19.744 L 48.779 19.744 Q 48.779 13.504 52.031 9.9 L 52.031 9.9 L 52.031 9.9 Q 55.283 6.297 61.136 6.297 L 61.136 6.297 L 61.136 6.297 Q 66.902 6.297 70.163 9.927 L 70.163 9.927 L 70.163 9.927 Q 73.423 13.557 73.423 19.762 Z  M 80.841 40.926 L 77.906 41.119 L 77.906 13.469 L 80.49 13.469 L 80.771 16.088 L 80.771 16.088 Q 83.302 13.065 86.853 13.065 L 86.853 13.065 L 86.853 13.065 Q 89.49 13.065 91.318 14.383 L 91.318 14.383 L 91.318 14.383 Q 93.146 15.701 94.016 17.951 L 94.016 17.951 L 94.016 17.951 Q 94.886 20.201 94.886 23.207 L 94.886 23.207 L 94.886 23.207 Q 94.886 26.09 93.937 28.331 L 93.937 28.331 L 93.937 28.331 Q 92.988 30.572 91.151 31.864 L 91.151 31.864 L 91.151 31.864 Q 89.314 33.156 86.853 33.156 L 86.853 33.156 L 86.853 33.156 Q 84.99 33.156 83.355 32.321 L 83.355 32.321 L 83.355 32.321 Q 81.72 31.486 80.736 30.115 L 80.736 30.115 L 80.736 30.115 Q 80.841 32.014 80.841 33.807 L 80.841 33.807 L 80.841 40.926 L 80.841 40.926 Z  M 86.449 30.678 L 86.449 30.678 L 86.449 30.678 Q 87.785 30.678 88.839 30.071 L 88.839 30.071 L 88.839 30.071 Q 89.894 29.465 90.544 28.41 L 90.544 28.41 L 90.544 28.41 Q 91.195 27.356 91.529 26.011 L 91.529 26.011 L 91.529 26.011 Q 91.863 24.666 91.863 23.102 L 91.863 23.102 L 91.863 23.102 Q 91.863 19.797 90.474 17.679 L 90.474 17.679 L 90.474 17.679 Q 89.085 15.561 86.414 15.561 L 86.414 15.561 L 86.414 15.561 Q 80.824 15.561 80.824 22.785 L 80.824 22.785 L 80.824 22.785 Q 80.824 26.705 82.133 28.691 L 82.133 28.691 L 82.133 28.691 Q 83.443 30.678 86.449 30.678 Z  M 105.169 33.104 L 105.169 33.104 L 105.169 33.104 Q 102.322 33.104 101.126 31.715 L 101.126 31.715 L 101.126 31.715 Q 99.931 30.326 99.861 27.232 L 99.861 27.232 L 99.861 15.648 L 96.996 15.648 L 97.119 13.715 L 99.843 13.469 L 100.845 9.057 L 102.779 8.986 L 102.779 13.469 L 108.14 13.469 L 108.14 15.648 L 102.779 15.648 L 102.779 26.705 L 102.779 26.705 Q 102.779 28.902 103.447 29.799 L 103.447 29.799 L 103.447 29.799 Q 104.115 30.695 105.732 30.695 L 105.732 30.695 L 105.732 30.695 Q 106.312 30.695 108.246 30.414 L 108.246 30.414 L 108.369 32.734 L 108.369 32.734 Q 106.277 33.104 105.169 33.104 Z  M 112.007 13.469 L 114.96 13.469 L 114.96 32.752 L 112.007 32.752 L 112.007 13.469 L 112.007 13.469 Z  M 112.007 6.455 L 114.96 6.455 L 114.96 9.936 L 112.007 9.936 L 112.007 6.455 L 112.007 6.455 Z  M 122.624 23.154 L 122.624 23.154 L 122.624 23.154 Q 122.624 26.582 124.145 28.648 L 124.145 28.648 L 124.145 28.648 Q 125.665 30.713 128.583 30.713 L 128.583 30.713 L 128.583 30.713 Q 131.466 30.713 132.934 28.656 L 132.934 28.656 L 132.934 28.656 Q 134.402 26.6 134.402 23.119 L 134.402 23.119 L 134.402 23.119 Q 134.402 19.586 132.952 17.556 L 132.952 17.556 L 132.952 17.556 Q 131.501 15.525 128.531 15.525 L 128.531 15.525 L 128.531 15.525 Q 125.648 15.525 124.136 17.6 L 124.136 17.6 L 124.136 17.6 Q 122.624 19.674 122.624 23.154 Z  M 137.443 23.102 L 137.443 23.102 L 137.443 23.102 Q 137.443 27.584 135.052 30.37 L 135.052 30.37 L 135.052 30.37 Q 132.662 33.156 128.443 33.156 L 128.443 33.156 L 128.443 33.156 Q 124.382 33.156 121.983 30.344 L 121.983 30.344 L 121.983 30.344 Q 119.583 27.531 119.583 23.119 L 119.583 23.119 L 119.583 23.119 Q 119.583 18.619 121.992 15.842 L 121.992 15.842 L 121.992 15.842 Q 124.4 13.065 128.601 13.065 L 128.601 13.065 L 128.601 13.065 Q 132.732 13.065 135.087 15.851 L 135.087 15.851 L 135.087 15.851 Q 137.443 18.637 137.443 23.102 Z  M 144.562 32.752 L 141.591 32.752 L 141.591 13.469 L 144.052 13.469 L 144.421 16.229 L 144.421 16.229 Q 145.564 14.805 147.278 13.935 L 147.278 13.935 L 147.278 13.935 Q 148.992 13.065 150.978 13.065 L 150.978 13.065 L 150.978 13.065 Q 154.318 13.065 155.917 14.937 L 155.917 14.937 L 155.917 14.937 Q 157.517 16.809 157.517 20.693 L 157.517 20.693 L 157.517 32.752 L 154.581 32.752 L 154.581 32.752 Q 154.581 21.15 154.564 20.324 L 154.564 20.324 L 154.564 20.324 Q 154.494 17.863 153.571 16.721 L 153.571 16.721 L 153.571 16.721 Q 152.648 15.578 150.486 15.578 L 150.486 15.578 L 150.486 15.578 Q 148.218 15.578 146.706 16.668 L 146.706 16.668 L 146.706 16.668 Q 145.195 17.758 144.738 19.498 L 144.738 19.498 L 144.738 19.498 Q 144.562 20.676 144.562 22.205 L 144.562 22.205 L 144.562 32.752 L 144.562 32.752 Z  M 168.152 33.156 L 168.152 33.156 L 168.152 33.156 Q 166.183 33.156 164.522 32.734 L 164.522 32.734 L 164.522 32.734 Q 162.861 32.313 161.824 31.645 L 161.824 31.645 L 162.193 29.166 L 162.193 29.166 Q 165.128 30.731 167.958 30.731 L 167.958 30.731 L 167.958 30.731 Q 172.248 30.731 172.371 27.707 L 172.371 27.707 L 172.371 27.707 Q 172.371 26.424 171.456 25.686 L 171.456 25.686 L 171.456 25.686 Q 170.542 24.947 167.871 24.033 L 167.871 24.033 L 166.412 23.523 L 166.412 23.523 Q 163.88 22.68 162.799 21.432 L 162.799 21.432 L 162.799 21.432 Q 161.718 20.184 161.701 18.32 L 161.701 18.32 L 161.701 18.32 Q 161.701 16.053 163.52 14.559 L 163.52 14.559 L 163.52 14.559 Q 165.339 13.065 168.503 13.065 L 168.503 13.065 L 168.503 13.065 Q 171.773 13.065 174.462 14.33 L 174.462 14.33 L 173.601 16.58 L 173.601 16.58 Q 170.876 15.455 168.503 15.455 L 168.503 15.455 L 168.503 15.455 Q 166.658 15.455 165.612 16.185 L 165.612 16.185 L 165.612 16.185 Q 164.566 16.914 164.566 18.232 L 164.566 18.232 L 164.566 18.232 Q 164.566 19.357 165.322 19.955 L 165.322 19.955 L 165.322 19.955 Q 166.078 20.553 168.345 21.326 L 168.345 21.326 L 168.345 21.326 Q 168.925 21.537 169.804 21.818 L 169.804 21.818 L 169.804 21.818 Q 172.722 22.768 173.935 24.06 L 173.935 24.06 L 173.935 24.06 Q 175.148 25.352 175.148 27.549 L 175.148 27.549 L 175.148 27.549 Q 175.113 30.221 173.232 31.689 L 173.232 31.689 L 173.232 31.689 Q 171.351 33.156 168.152 33.156 Z  M 0 15.005 L 0.331 14.091 L 0.331 14.091 Q 1.797 14.814 3.473 14.814 L 3.473 14.814 L 3.473 14.814 Q 5.536 14.814 5.536 12.936 L 5.536 12.936 L 5.536 12.936 Q 5.536 12.326 5.209 11.948 L 5.209 11.948 L 5.209 11.948 Q 4.882 11.571 4.018 11.355 L 4.018 11.355 L 2.152 10.885 L 2.152 10.885 Q 0.013 10.346 0.013 8.6 L 0.013 8.6 L 0.013 8.6 Q 0.013 7.261 0.934 6.61 L 0.934 6.61 L 0.934 6.61 Q 1.854 5.959 3.479 5.959 L 3.479 5.959 L 3.479 5.959 Q 4.33 5.959 5.072 6.144 L 5.072 6.144 L 5.072 6.144 Q 5.815 6.328 6.316 6.639 L 6.316 6.639 L 5.999 7.534 L 5.999 7.534 Q 5.574 7.299 4.872 7.115 L 4.872 7.115 L 4.872 7.115 Q 4.171 6.931 3.454 6.931 L 3.454 6.931 L 3.454 6.931 Q 1.156 6.931 1.156 8.524 L 1.156 8.524 L 1.156 8.524 Q 1.156 9.063 1.508 9.39 L 1.508 9.39 L 1.508 9.39 Q 1.86 9.717 2.565 9.889 L 2.565 9.889 L 4.349 10.32 L 4.349 10.32 Q 5.491 10.593 6.081 11.193 L 6.081 11.193 L 6.081 11.193 Q 6.672 11.793 6.672 12.897 L 6.672 12.897 L 6.672 12.897 Q 6.672 14.332 5.793 15.059 L 5.793 15.059 L 5.793 15.059 Q 4.914 15.786 3.403 15.786 L 3.403 15.786 L 3.403 15.786 Q 2.273 15.786 1.394 15.554 L 1.394 15.554 L 1.394 15.554 Q 0.515 15.322 0 15.005 L 0 15.005 L 0 15.005 Z  M 12.115 9.962 L 12.115 9.962 L 12.115 9.962 Q 11.648 9.406 10.836 9.406 L 10.836 9.406 L 10.836 9.406 Q 10.023 9.406 9.509 9.981 L 9.509 9.981 L 9.509 9.981 Q 8.995 10.555 8.906 11.552 L 8.906 11.552 L 12.581 11.552 L 12.581 11.552 Q 12.581 10.517 12.115 9.962 Z  M 11.045 15.786 L 11.045 15.786 L 11.045 15.786 Q 9.528 15.786 8.655 14.821 L 8.655 14.821 L 8.655 14.821 Q 7.783 13.856 7.783 12.18 L 7.783 12.18 L 7.783 12.18 Q 7.783 10.561 8.627 9.555 L 8.627 9.555 L 8.627 9.555 Q 9.471 8.549 10.849 8.53 L 10.849 8.53 L 10.849 8.53 Q 12.143 8.53 12.902 9.416 L 12.902 9.416 L 12.902 9.416 Q 13.661 10.301 13.661 11.78 L 13.661 11.78 L 13.661 11.78 Q 13.661 11.856 13.657 12.06 L 13.657 12.06 L 13.657 12.06 Q 13.654 12.263 13.654 12.352 L 13.654 12.352 L 8.874 12.352 L 8.874 12.352 Q 8.893 13.539 9.487 14.202 L 9.487 14.202 L 9.487 14.202 Q 10.081 14.865 11.083 14.865 L 11.083 14.865 L 11.083 14.865 Q 12.188 14.865 13.299 14.281 L 13.299 14.281 L 13.464 15.138 L 13.464 15.138 Q 12.404 15.786 11.045 15.786 Z  M 17.006 15.767 L 17.006 15.767 L 17.006 15.767 Q 15.99 15.767 15.568 15.221 L 15.568 15.221 L 15.568 15.221 Q 15.146 14.675 15.146 13.323 L 15.146 13.323 L 15.146 5.972 L 16.2 5.909 L 16.2 12.904 L 16.2 12.904 Q 16.2 13.335 16.209 13.596 L 16.209 13.596 L 16.209 13.596 Q 16.219 13.856 16.257 14.107 L 16.257 14.107 L 16.257 14.107 Q 16.295 14.357 16.358 14.484 L 16.358 14.484 L 16.358 14.484 Q 16.422 14.611 16.542 14.716 L 16.542 14.716 L 16.542 14.716 Q 16.663 14.821 16.831 14.856 L 16.831 14.856 L 16.831 14.856 Q 16.999 14.891 17.247 14.891 L 17.247 14.891 L 17.247 14.891 Q 17.45 14.891 18.047 14.814 L 18.047 14.814 L 18.104 15.659 L 18.104 15.659 Q 17.45 15.767 17.006 15.767 Z  M 22.76 9.962 L 22.76 9.962 L 22.76 9.962 Q 22.293 9.406 21.481 9.406 L 21.481 9.406 L 21.481 9.406 Q 20.668 9.406 20.154 9.981 L 20.154 9.981 L 20.154 9.981 Q 19.64 10.555 19.551 11.552 L 19.551 11.552 L 23.227 11.552 L 23.227 11.552 Q 23.227 10.517 22.76 9.962 Z  M 21.69 15.786 L 21.69 15.786 L 21.69 15.786 Q 20.173 15.786 19.3 14.821 L 19.3 14.821 L 19.3 14.821 Q 18.428 13.856 18.428 12.18 L 18.428 12.18 L 18.428 12.18 Q 18.428 10.561 19.272 9.555 L 19.272 9.555 L 19.272 9.555 Q 20.116 8.549 21.494 8.53 L 21.494 8.53 L 21.494 8.53 Q 22.789 8.53 23.547 9.416 L 23.547 9.416 L 23.547 9.416 Q 24.306 10.301 24.306 11.78 L 24.306 11.78 L 24.306 11.78 Q 24.306 11.856 24.302 12.06 L 24.302 12.06 L 24.302 12.06 Q 24.299 12.263 24.299 12.352 L 24.299 12.352 L 19.519 12.352 L 19.519 12.352 Q 19.539 13.539 20.132 14.202 L 20.132 14.202 L 20.132 14.202 Q 20.726 14.865 21.728 14.865 L 21.728 14.865 L 21.728 14.865 Q 22.833 14.865 23.944 14.281 L 23.944 14.281 L 24.109 15.138 L 24.109 15.138 Q 23.049 15.786 21.69 15.786 Z  M 28.724 15.786 L 28.724 15.786 L 28.724 15.786 Q 27.187 15.786 26.321 14.789 L 26.321 14.789 L 26.321 14.789 Q 25.455 13.792 25.455 12.18 L 25.455 12.18 L 25.455 12.18 Q 25.461 10.555 26.34 9.543 L 26.34 9.543 L 26.34 9.543 Q 27.219 8.53 28.749 8.53 L 28.749 8.53 L 28.749 8.53 Q 29.289 8.53 29.793 8.664 L 29.793 8.664 L 29.793 8.664 Q 30.298 8.797 30.59 9.013 L 30.59 9.013 L 30.298 9.838 L 30.298 9.838 Q 29.555 9.438 28.73 9.438 L 28.73 9.438 L 28.73 9.438 Q 27.721 9.438 27.133 10.174 L 27.133 10.174 L 27.133 10.174 Q 26.546 10.911 26.546 12.186 L 26.546 12.186 L 26.546 12.186 Q 26.546 13.431 27.127 14.157 L 27.127 14.157 L 27.127 14.157 Q 27.708 14.884 28.736 14.884 L 28.736 14.884 L 28.736 14.884 Q 29.555 14.884 30.412 14.44 L 30.412 14.44 L 30.545 15.284 L 30.545 15.284 Q 29.853 15.786 28.724 15.786 Z  M 34.144 15.767 L 34.144 15.767 L 34.144 15.767 Q 33.116 15.767 32.685 15.265 L 32.685 15.265 L 32.685 15.265 Q 32.253 14.764 32.227 13.646 L 32.227 13.646 L 32.227 9.463 L 31.193 9.463 L 31.237 8.765 L 32.221 8.676 L 32.583 7.083 L 33.281 7.058 L 33.281 8.676 L 35.217 8.676 L 35.217 9.463 L 33.281 9.463 L 33.281 13.456 L 33.281 13.456 Q 33.281 14.249 33.522 14.573 L 33.522 14.573 L 33.522 14.573 Q 33.764 14.897 34.348 14.897 L 34.348 14.897 L 34.348 14.897 Q 34.557 14.897 35.255 14.795 L 35.255 14.795 L 35.3 15.633 L 35.3 15.633 Q 34.544 15.767 34.144 15.767 Z " fill-rule="evenodd" fill="rgb(255,255,255)"/></g></g></svg>