<?xml version="1.0" standalone="no"?><!-- Generator: Gravit.io --><svg xmlns="http://www.w3.org/2000/svg" xmlns:xlink="http://www.w3.org/1999/xlink" style="isolation:isolate" viewBox="0 0 258 258" width="258" height="258"><defs><clipPath id="_clipPath_9Fbs7pfS4tYHQ4Vamu0PmJrhfsMHsdUH"><rect width="258" height="258"/></clipPath></defs><g clip-path="url(#_clipPath_9Fbs7pfS4tYHQ4Vamu0PmJrhfsMHsdUH)"><path d=" M 16.6 129 C 16.6 66.91 67.01 16.5 129.1 16.5 C 191.19 16.5 241.6 66.91 241.6 129 C 241.6 191.09 191.19 241.5 129.1 241.5 C 67.01 241.5 16.6 191.09 16.6 129 Z " fill="rgb(235,235,235)"/><path d=" M 165.594 192.034 L 136.575 176.779 C 132.45 174.609 125.75 174.609 121.625 176.779 L 92.606 192.034 C 88.481 194.203 85.772 192.235 86.56 187.641 L 92.102 155.328 C 92.89 150.735 90.82 144.364 87.482 141.111 L 64.006 118.227 C 60.668 114.974 61.703 111.789 66.315 111.118 L 98.759 106.403 C 103.371 105.734 108.791 101.796 110.854 97.617 L 125.363 68.218 C 127.425 64.039 130.775 64.039 132.837 68.218 L 147.346 97.617 C 149.409 101.796 154.829 105.734 159.441 106.403 L 191.885 111.118 C 196.497 111.789 197.532 114.974 194.194 118.227 L 170.718 141.111 C 167.38 144.364 165.31 150.735 166.098 155.328 L 171.64 187.641 C 172.428 192.235 169.719 194.203 165.594 192.034 Z " fill="none" vector-effect="non-scaling-stroke" stroke-width="8" stroke="rgb(233,153,16)" stroke-opacity="100" stroke-linejoin="miter" stroke-linecap="square" stroke-miterlimit="3"/></g></svg>