<?xml version="1.0" encoding="UTF-8" standalone="no"?>
<svg
   xmlns:dc="http://purl.org/dc/elements/1.1/"
   xmlns:cc="http://creativecommons.org/ns#"
   xmlns:rdf="http://www.w3.org/1999/02/22-rdf-syntax-ns#"
   xmlns:svg="http://www.w3.org/2000/svg"
   xmlns="http://www.w3.org/2000/svg"
   xmlns:sodipodi="http://sodipodi.sourceforge.net/DTD/sodipodi-0.dtd"
   xmlns:inkscape="http://www.inkscape.org/namespaces/inkscape"
   width="1920"
   height="1080"
   viewBox="0 0 508 285.75001"
   version="1.1"
   id="svg8"
   inkscape:version="1.0 (4035a4fb49, 2020-05-01)"
   sodipodi:docname="Mini menu - light.svg">
  <title
     id="title188">Nintendo Switch Mini menu</title>
  <defs
     id="defs2" />
  <sodipodi:namedview
     id="base"
     pagecolor="#ffffff"
     bordercolor="#666666"
     borderopacity="1.0"
     inkscape:pageopacity="0.0"
     inkscape:pageshadow="2"
     inkscape:zoom="0.44817708"
     inkscape:cx="668.07701"
     inkscape:cy="366.26561"
     inkscape:document-units="mm"
     inkscape:current-layer="layer2"
     inkscape:document-rotation="0"
     showgrid="false"
     units="px"
     inkscape:window-width="1920"
     inkscape:window-height="1017"
     inkscape:window-x="1912"
     inkscape:window-y="-8"
     inkscape:window-maximized="1" />
  <metadata
     id="metadata5">
    <rdf:RDF>
      <cc:Work
         rdf:about="">
        <dc:format>image/svg+xml</dc:format>
        <dc:type
           rdf:resource="http://purl.org/dc/dcmitype/StillImage" />
        <dc:title>Nintendo Switch Mini menu</dc:title>
      </cc:Work>
    </rdf:RDF>
  </metadata>
  <g
     inkscape:label="Circles"
     id="layer3"
     inkscape:groupmode="layer" />
  <g
     inkscape:groupmode="layer"
     id="layer2"
     inkscape:label="Icons">
    <g
       id="g901">
      <ellipse
         style="fill:#ffffff;fill-opacity:1;stroke:#e8e8e8;stroke-width:1.33637;stroke-linecap:butt;stroke-miterlimit:4;stroke-dasharray:none;stroke-opacity:1;paint-order:stroke fill markers"
         id="path41"
         cx="156"
         cy="231.5"
         rx="15.331813"
         ry="15.331815" />
      <ellipse
         ry="11.433035"
         rx="11.459127"
         cy="25.359699"
         cx="36.030613"
         id="path856"
         style="fill:none;stroke:#e8e8e8;stroke-width:0.637427;stroke-miterlimit:4;stroke-dasharray:none;stroke-opacity:1;paint-order:stroke fill markers" />
      <ellipse
         ry="15.331815"
         rx="15.331813"
         cy="231.5"
         cx="195.18593"
         id="path41-5"
         style="fill:#ffffff;fill-opacity:1;stroke:#e8e8e8;stroke-width:1.33637;stroke-linecap:butt;stroke-miterlimit:4;stroke-dasharray:none;stroke-opacity:1;paint-order:stroke fill markers" />
      <ellipse
         ry="15.331815"
         rx="15.331813"
         cy="231.5"
         cx="233.96428"
         id="path41-8"
         style="fill:#ffffff;fill-opacity:1;stroke:#e8e8e8;stroke-width:1.33637;stroke-linecap:butt;stroke-miterlimit:4;stroke-dasharray:none;stroke-opacity:1;paint-order:stroke fill markers" />
      <ellipse
         style="fill:#ffffff;fill-opacity:1;stroke:#e8e8e8;stroke-width:1.33637;stroke-linecap:butt;stroke-miterlimit:4;stroke-dasharray:none;stroke-opacity:1;paint-order:stroke fill markers"
         id="path41-5-4"
         cx="273.15018"
         cy="231.5"
         rx="15.331813"
         ry="15.331815" />
      <ellipse
         ry="15.331815"
         rx="15.331813"
         cy="231.5"
         cx="312.03864"
         id="path41-7"
         style="fill:#ffffff;fill-opacity:1;stroke:#e8e8e8;stroke-width:1.33637;stroke-linecap:butt;stroke-miterlimit:4;stroke-dasharray:none;stroke-opacity:1;paint-order:stroke fill markers" />
      <ellipse
         style="fill:#ffffff;fill-opacity:1;stroke:#e8e8e8;stroke-width:1.33637;stroke-linecap:butt;stroke-miterlimit:4;stroke-dasharray:none;stroke-opacity:1;paint-order:stroke fill markers"
         id="path41-5-1"
         cx="351.22458"
         cy="231.5"
         rx="15.331813"
         ry="15.331815" />
      <g
         transform="matrix(0.34121733,0,0,0.34121733,148.63245,225.21565)"
         style="fill-rule:evenodd;stroke:none;stroke-width:1"
         fill="#fe3b43"
         id="news">
        <path
           id="Fill-1"
           d="M 38,17 H 4 V 6.5 C 4,5.119 5.119,4 6.5,4 h 29 C 36.881,4 38,5.119 38,6.5 Z m 0,11.5 C 38,29.881 36.881,31 35.5,31 H 25.142 l -4,4 L 21,35.142 20.858,35 l -4,-4 H 6.5 C 5.119,31 4,29.881 4,28.5 V 21 H 38 Z M 37.003,0 H 4.997 C 2.237,0 0,2.237 0,4.997 V 30.003 C 0,32.763 2.237,35 4.997,35 h 9.688 L 21,41.315 27.315,35 h 9.688 C 39.763,35 42,32.763 42,30.003 V 4.997 C 42,2.237 39.763,0 37.003,0 Z" />
        <polygon
           points="21,25.0352 7,25.0352 7,29.0352 21,29.0352 "
           id="Fill-4" />
      </g>
      <path
         style="fill:#6d7577;fill-rule:evenodd;stroke:none;stroke-width:0.341216"
         d="m 312.32457,235.35782 c -2.02581,0 -3.6681,-1.64228 -3.6681,-3.66807 0,-2.02583 1.64229,-3.66808 3.6681,-3.66808 2.02581,0 3.66809,1.64225 3.66809,3.66808 0,2.02579 -1.64228,3.66807 -3.66809,3.66807 z m 7.20822,-2.9877 v -1.36487 h -2.1408 c -0.12046,-1.02365 -0.47496,-1.72724 -1.00182,-2.41719 l 1.48363,-1.48326 -0.96498,-0.96463 -1.46247,1.48397 c -0.68992,-0.52719 -1.37304,-0.88137 -2.3967,-1.00183 v -2.10017 h -1.36486 v 2.10017 c -1.02365,0.12046 -1.74942,0.47499 -2.43936,1.00183 l -1.49455,-1.48361 -0.97042,0.96496 1.48125,1.48257 c -0.52686,0.68995 -0.8841,1.39354 -1.00457,2.41719 h -2.05549 v 1.36487 h 2.05549 c 0.12047,1.02367 0.47498,1.72928 1.00184,2.41889 l -1.48362,1.48429 0.96496,0.96565 1.50511,-1.48395 c 0.68994,0.52717 1.41571,0.88172 2.43936,1.00215 v 2.09611 h 1.36486 v -2.09611 c 1.02366,-0.12044 1.70678,-0.47498 2.3967,-1.0018 l 1.47305,1.4836 0.95985,-0.96497 -1.48634,-1.48497 c 0.52684,-0.68961 0.87862,-1.39522 0.99908,-2.41889 z"
         id="Fill-1-0" />
      <path
         style="fill:#1373ff;fill-rule:evenodd;stroke:none;stroke-width:0.341216"
         d="m 240.87523,235.91743 h -2.0473 v -2.72973 h -8.6e-4 c 0,-0.004 8.6e-4,-0.008 8.6e-4,-0.0142 0,-1.12668 -1.14582,-2.04012 -2.55916,-2.04012 -0.43162,0 -0.83769,0.086 -1.19425,0.23645 v -0.22929 h -8.5e-4 c 0,-0.004 8.5e-4,-0.008 8.5e-4,-0.0143 0,-1.36622 -1.37477,-2.47381 -3.07095,-2.47381 -1.69618,0 -3.07095,1.10759 -3.07095,2.47381 0,0.004 8.5e-4,0.008 8.5e-4,0.0143 h -8.5e-4 v 4.77704 h -1.70609 v -8.53042 h 13.6487 z m -10.57773,0 v -4.77705 h 8.5e-4 c 0,-0.004 -8.5e-4,-0.008 -8.5e-4,-0.0142 0,-0.75886 0.76397,-1.37408 1.70607,-1.37408 0.94211,0 1.70608,0.61522 1.70608,1.37408 0,0.004 -8.4e-4,0.008 -8.4e-4,0.0142 h 8.4e-4 v 2.04732 h 1.36658 c 0.0105,-0.68243 0.53913,-0.95201 1.19254,-0.95201 0.65958,0 1.19428,0.41901 1.19428,0.94485 0,0.004 -8.4e-4,0.002 -8.4e-4,0.007 h 8.4e-4 v 2.72972 z m -4.43585,1.36486 h 16.37844 v -11.26017 h -16.37844 z"
         id="Page-1-9" />
      <g
         style="fill-rule:evenodd;stroke:none;stroke-width:1"
         fill="#6d7577"
         transform="matrix(0.34121733,0,0,0.34121733,265.11914,223.57066)"
         id="controlls">
        <path
           id="Fill-1-30"
           d="m 39.7813,22.4442 -17.324,17.324 c -3.124,3.124 -8.19,3.124 -11.314,0 l -5.303,-5.303 28.638,-28.638 5.303,5.303 c 3.124,3.124 3.124,8.19 0,11.314 m 2.999,-13.959 -8.486,-8.485 -34.294,34.295 8.485,8.485 c 4.686,4.686 12.284,4.686 16.971,0 l 17.324,-17.324 c 4.686,-4.687 4.686,-12.285 0,-16.971" />
        <path
           id="Fill-3"
           d="m 35.7507,16.8795 c 0,1.105 -0.895,2 -2,2 -1.105,0 -2,-0.895 -2,-2 0,-1.105 0.895,-2 2,-2 1.105,0 2,0.895 2,2" />
        <path
           id="Fill-5"
           d="m 29.7507,16.8795 c 0,1.105 -0.895,2 -2,2 -1.105,0 -2,-0.895 -2,-2 0,-1.105 0.895,-2 2,-2 1.105,0 2,0.895 2,2" />
        <path
           id="Fill-7"
           d="m 35.7507,22.8795 c 0,1.105 -0.895,2 -2,2 -1.105,0 -2,-0.895 -2,-2 0,-1.105 0.895,-2 2,-2 1.105,0 2,0.895 2,2" />
        <path
           id="Fill-9"
           d="m 29.7507,22.8795 c 0,1.105 -0.895,2 -2,2 -1.105,0 -2,-0.895 -2,-2 0,-1.105 0.895,-2 2,-2 1.105,0 2,0.895 2,2" />
        <path
           id="Fill-11"
           d="m 23.584,30.8795 c 0,2.209 -1.791,4 -4,4 -2.209,0 -4,-1.791 -4,-4 0,-2.209 1.791,-4 4,-4 2.209,0 4,1.791 4,4" />
      </g>
      <path
         style="fill:#fda000;fill-rule:evenodd;stroke:none;stroke-width:0.341216"
         d="m 189.5993,235.95389 0.36954,-7.848 h 2.01897 v 1.7061 h 1.3649 v -1.7061 h 3.41216 v 1.7061 h 1.36487 v -1.7061 h 2.07562 l 0.31291,7.848 z m 3.75341,-10.06147 c 0,-0.47123 0.38317,-0.85747 0.85438,-0.85747 h 1.7061 c 0.47122,0 0.85168,0.38624 0.85168,0.85747 v 0.84861 h -3.41216 z m 8.21753,0.84861 h -3.4405 v -1.36043 c 0,-0.94209 -0.76228,-1.71052 -1.70472,-1.71052 h -2.72975 c -0.94211,0 -1.70746,0.76843 -1.70746,1.71052 v 1.36043 h -3.44047 l -0.66845,10.91895 h 14.33113 z"
         id="Fill-1-7" />
      <g
         transform="matrix(0.34121733,0,0,0.34121733,344.40021,224.33331)"
         style="fill-rule:evenodd;stroke:none;stroke-width:1"
         fill="#6d7577"
         id="power">
        <path
           id="Fill-1-9"
           d="m 26.1253,4.4093 v 4.996 c 4.377,2.496 7.333,7.196 7.333,12.595 0,8.008 -6.492,14.5 -14.5,14.5 -8.008,0 -14.458,-6.492 -14.458,-14.5 0,-5.504 2.625,-10.291 7.625,-12.748 v -4.935 c -7,2.768 -12.125,9.632 -12.125,17.683 0,10.493 8.486,19 18.979,19 10.493,0 18.99,-8.507 18.99,-19 0,-7.956 -4.905,-14.761 -11.844,-17.591" />
        <polygon
           points="21.136,20 21.136,0 17.136,0 17.136,20 "
           id="Fill-4-0" />
      </g>
    </g>
  </g>
</svg>
