<?xml version="1.0" standalone="no"?><!-- Generator: Gravit.io --><svg xmlns="http://www.w3.org/2000/svg" xmlns:xlink="http://www.w3.org/1999/xlink" style="isolation:isolate" viewBox="0 0 258 258" width="258" height="258"><defs><clipPath id="_clipPath_h49qSya0UtYpDJtslSeXteNf8XlkI2gr"><rect width="258" height="258"/></clipPath></defs><g clip-path="url(#_clipPath_h49qSya0UtYpDJtslSeXteNf8XlkI2gr)"><path d=" M 16.6 129.1 C 16.6 67.01 67.01 16.6 129.1 16.6 C 191.19 16.6 241.6 67.01 241.6 129.1 C 241.6 191.19 191.19 241.6 129.1 241.6 C 67.01 241.6 16.6 191.19 16.6 129.1 Z " fill="rgb(235,235,235)"/><path d=" M 165.594 192.134 L 136.575 176.879 C 132.45 174.709 125.75 174.709 121.625 176.879 L 92.606 192.134 C 88.481 194.303 85.772 192.335 86.56 187.741 L 92.102 155.428 C 92.89 150.835 90.82 144.464 87.482 141.211 L 64.006 118.327 C 60.668 115.074 61.703 111.889 66.315 111.218 L 98.759 106.503 C 103.371 105.834 108.791 101.896 110.854 97.717 L 125.363 68.318 C 127.425 64.139 130.775 64.139 132.837 68.318 L 147.346 97.717 C 149.409 101.896 154.829 105.834 159.441 106.503 L 191.885 111.218 C 196.497 111.889 197.532 115.074 194.194 118.327 L 170.718 141.211 C 167.38 144.464 165.31 150.835 166.098 155.428 L 171.64 187.741 C 172.428 192.335 169.719 194.303 165.594 192.134 Z " fill="none" vector-effect="non-scaling-stroke" stroke-width="8" stroke="rgb(101,111,110)" stroke-opacity="100" stroke-linejoin="miter" stroke-linecap="square" stroke-miterlimit="3"/></g></svg>