<?xml version="1.0" encoding="UTF-8" standalone="no"?>
<svg
   xmlns:dc="http://purl.org/dc/elements/1.1/"
   xmlns:cc="http://creativecommons.org/ns#"
   xmlns:rdf="http://www.w3.org/1999/02/22-rdf-syntax-ns#"
   xmlns:svg="http://www.w3.org/2000/svg"
   xmlns="http://www.w3.org/2000/svg"
   xmlns:sodipodi="http://sodipodi.sourceforge.net/DTD/sodipodi-0.dtd"
   xmlns:inkscape="http://www.inkscape.org/namespaces/inkscape"
   inkscape:version="1.0 (4035a4fb49, 2020-05-01)"
   sodipodi:docname="switchIcon.svg"
   id="svg12"
   version="1.1"
   viewBox="0 0 69 30"
   height="30px"
   width="69px">
  <metadata
     id="metadata16">
    <rdf:RDF>
      <cc:Work
         rdf:about="">
        <dc:format>image/svg+xml</dc:format>
        <dc:type
           rdf:resource="http://purl.org/dc/dcmitype/StillImage" />
      </cc:Work>
    </rdf:RDF>
  </metadata>
  <sodipodi:namedview
     inkscape:current-layer="mode"
     inkscape:window-maximized="1"
     inkscape:window-y="-8"
     inkscape:window-x="1912"
     inkscape:cy="15"
     inkscape:cx="34.5"
     inkscape:zoom="15.463768"
     showgrid="false"
     id="namedview14"
     inkscape:window-height="1017"
     inkscape:window-width="1920"
     inkscape:pageshadow="2"
     inkscape:pageopacity="0"
     guidetolerance="10"
     gridtolerance="10"
     objecttolerance="10"
     borderopacity="1"
     bordercolor="#666666"
     pagecolor="#ffffff" />
  <!-- Generator: Sketch 42 (36781) - http://www.bohemiancoding.com/sketch -->
  <title
     id="title2">mode</title>
  <desc
     id="desc4">Created with Sketch.</desc>
  <defs
     id="defs6" />
  <g
     fill-rule="evenodd"
     fill="none"
     stroke-width="1"
     stroke="none"
     id="g10">
    <g
       fill="#2D2D2D"
       id="mode">
      <path
         style="fill:#ffffff;fill-opacity:1"
         id="Page-1"
         d="M65.5,10 C64.672,10 64,9.328 64,8.5 C64,7.672 64.672,7 65.5,7 C66.328,7 67,7.672 67,8.5 C67,9.328 66.328,10 65.5,10 L65.5,10 Z M62.5,21 C61.119,21 60,19.881 60,18.5 C60,17.119 61.119,16 62.5,16 C63.881,16 65,17.119 65,18.5 C65,19.881 63.881,21 62.5,21 L62.5,21 Z M58,8.5 C58,7.672 58.672,7 59.5,7 C60.328,7 61,7.672 61,8.5 C61,9.328 60.328,10 59.5,10 C58.672,10 58,9.328 58,8.5 L58,8.5 Z M14,26 L54,26 L54,4 L14,4 L14,26 Z M9.5,19 C8.672,19 8,18.328 8,17.5 C8,16.672 8.672,16 9.5,16 C10.328,16 11,16.672 11,17.5 C11,18.328 10.328,19 9.5,19 L9.5,19 Z M6.5,22 C5.672,22 5,21.328 5,20.5 C5,19.672 5.672,19 6.5,19 C7.328,19 8,19.672 8,20.5 C8,21.328 7.328,22 6.5,22 L6.5,22 Z M3.5,19 C2.672,19 2,18.328 2,17.5 C2,16.672 2.672,16 3.5,16 C4.328,16 5,16.672 5,17.5 C5,18.328 4.328,19 3.5,19 L3.5,19 Z M8,14.5 C8,15.328 7.328,16 6.5,16 C5.672,16 5,15.328 5,14.5 C5,13.672 5.672,13 6.5,13 C7.328,13 8,13.672 8,14.5 L8,14.5 Z M6.5,5 C7.881,5 9,6.119 9,7.5 C9,8.881 7.881,10 6.5,10 C5.119,10 4,8.881 4,7.5 C4,6.119 5.119,5 6.5,5 L6.5,5 Z M64,11.5 C64,12.328 63.328,13 62.5,13 C61.672,13 61,12.328 61,11.5 C61,10.672 61.672,10 62.5,10 C63.328,10 64,10.672 64,11.5 L64,11.5 Z M62.5,4 C63.328,4 64,4.672 64,5.5 C64,6.328 63.328,7 62.5,7 C61.672,7 61,6.328 61,5.5 C61,4.672 61.672,4 62.5,4 L62.5,4 Z M63,0 L6,0 C2.686,0 0,2.686 0,6 L0,24 C0,27.314 2.686,30 6,30 L63,30 C66.314,30 69,27.314 69,24 L69,6 C69,2.686 66.314,0 63,0 L63,0 Z" />
    </g>
  </g>
</svg>
